<svg xmlns="http://www.w3.org/2000/svg" width="180" height="69" viewBox="0 0 180 69" fill="none">
                      <path fill-rule="evenodd" clip-rule="evenodd" d="M27.4869 7.50354C42.5654 7.50354 54.9738 19.7549 54.9738 34.9905C54.9738 50.2261 42.5654 62.4774 27.4869 62.4774C12.4084 62.4774 0 50.2261 0 34.9905C0 19.7549 12.2513 7.50354 27.4869 7.50354ZM27.4869 11.9014C14.7644 11.9014 4.39791 22.2679 4.39791 34.9905C4.39791 47.713 14.7644 58.0795 27.4869 58.0795C40.2094 58.0795 50.5759 47.713 50.5759 34.9905C50.4189 22.2679 40.2094 11.9014 27.4869 11.9014ZM32.6702 30.5925C32.8272 30.7496 33.1414 30.9067 33.2984 31.2208L30.1571 34.5193L30 34.3622C28.1152 32.4774 27.0157 32.4774 25.1309 34.3622C23.7173 35.7758 20.8901 38.7601 19.6335 40.3308C18.377 41.7444 17.7487 44.7287 23.089 44.7287H31.5707C35.1833 44.7287 36.911 42.8439 35.0262 40.3308C34.8691 40.1737 34.712 40.0166 34.555 39.8596L37.8534 36.4041C38.6387 37.3465 39.267 38.2889 39.5812 39.0742C41.7801 43.3151 39.8953 48.9695 34.8691 48.9695H19.9476C14.6073 48.9695 13.0367 42.6868 14.6073 39.7025C16.178 36.5611 19.7906 33.1056 22.3037 30.7496C24.9738 28.2365 28.2723 26.1946 32.6702 30.5925ZM34.8691 21.7967C40.2094 21.7967 41.7801 28.0795 40.2094 31.0638C38.6387 34.2051 35.0262 37.6606 32.5131 40.0166C30.1571 42.0585 26.7016 44.1004 22.4607 39.8596C22.3037 39.7025 21.9895 39.5454 21.8325 39.2313L24.9738 35.9329L25.1309 36.0899C27.0157 37.9747 28.1152 37.9747 30 36.0899C31.4136 34.6763 34.2408 31.692 35.4974 30.1213C36.7539 28.7077 37.3822 25.7234 32.0419 25.7234H23.5602C19.9476 25.7234 18.2199 27.6083 20.1047 30.1213C20.2618 30.2784 20.4188 30.4355 20.5759 30.5925L16.9634 34.2051C16.178 33.2627 15.5497 32.3203 15.2356 31.535C13.0366 27.2941 14.9215 21.6397 19.9476 21.6397H34.8691V21.7967Z" fill="white"/>
                      <path fill-rule="evenodd" clip-rule="evenodd" d="M95.4974 20.069V22.8962H98.3246V20.069H100.366V22.8962H100.524C106.335 22.8962 109.791 25.5664 110.105 29.8072V30.1213C110.105 32.9486 107.906 34.8334 106.335 35.4616C108.22 36.247 110.576 37.8177 110.576 41.2732C110.576 45.9852 106.649 48.6554 101.152 48.6554H100.524V51.0114H98.4817V48.6554H95.6544V51.0114H93.6126V48.6554H66.2827V44.5716L79.4764 27.4512H66.911V22.8962H86.5445V26.8229L73.3508 43.9433H88.4293H100.681C103.351 43.9433 104.764 42.5297 104.764 40.802C104.764 39.0742 103.508 37.6606 100.681 37.6606H95.6544V33.1056H100.209C102.723 33.1056 104.136 31.8491 104.136 30.1213C104.136 28.3936 102.723 27.137 100.209 27.137H93.4555V41.9014H88.2722V22.8962H93.4555V20.069H95.4974ZM135.079 33.5768C136.335 34.5192 137.12 35.6187 137.277 36.0899C137.435 36.247 137.435 36.5611 137.592 36.7182L133.508 37.3465C133.351 37.0323 132.88 36.247 131.937 35.6187C131.466 35.3046 130.366 34.6763 128.953 34.6763C128.639 34.6763 127.539 34.6763 126.597 35.1475C124.555 36.0899 123.613 37.9747 123.613 40.3308C123.613 41.4302 123.927 42.6868 124.555 43.6292C124.712 43.7863 125.026 44.2575 125.497 44.7287C126.126 45.1999 127.225 45.9852 129.11 45.9852C131.309 45.9852 132.565 45.0428 133.037 44.2575C133.351 43.9433 133.508 43.6292 133.822 43.0009H137.749C137.592 43.7863 137.435 44.1004 137.277 44.5716C137.12 45.0428 136.649 45.8281 135.707 46.6135C134.45 47.713 132.408 48.9695 128.796 48.9695C128.01 48.9695 124.869 48.9695 122.67 47.0847C120 44.8857 119.843 41.5873 119.843 40.3308C119.843 38.7601 120.157 37.0323 121.099 35.6187C121.414 35.1475 121.728 34.8334 122.042 34.3622C122.513 33.891 122.827 33.5768 123.141 33.4198C124.084 32.6344 126.126 31.692 129.11 31.692C129.895 31.8491 132.723 31.8491 135.079 33.5768ZM153.455 32.9486C153.613 33.1056 154.084 33.2627 154.712 33.7339C155.183 34.048 155.497 34.5192 155.969 34.9904C156.597 35.7758 157.539 37.5035 157.539 40.3308C157.539 40.6449 157.539 41.4302 157.382 42.3726C157.225 43.4721 156.597 45.8281 154.241 47.3988C153.141 48.1842 151.257 48.9695 148.272 48.9695C143.717 48.9695 141.361 47.0847 140.262 45.3569C139.791 44.5716 138.848 42.8438 138.848 40.3308C138.848 36.5611 140.576 34.6763 141.675 33.7339C143.246 32.3203 145.602 31.8491 147.487 31.692C149.529 31.692 151.728 32.0061 153.455 32.9486ZM117.644 44.4145V48.4983H113.246V44.4145H117.644ZM165.236 32.3203L169.948 44.2575L174.66 32.3203H180V48.4983H176.387L176.544 36.0899L171.675 48.4983H168.22L163.351 36.0899L163.508 48.4983H159.895V32.3203H165.236ZM147.958 34.6763C147.644 34.6763 146.702 34.8334 145.759 35.1475C142.932 36.4041 142.775 39.3883 142.775 40.4878C142.775 40.802 142.775 41.9014 143.246 42.8438C143.403 43.158 143.403 43.4721 143.874 43.9433C144.031 44.1004 144.188 44.5716 144.66 44.8857C145.288 45.3569 146.387 46.1423 148.272 46.1423C148.586 46.1423 149.529 46.1423 150.471 45.8281C153.455 44.7287 153.77 41.5873 153.77 40.4878C153.77 39.8595 153.613 37.9747 152.356 36.5611C151.099 35.1475 149.529 34.6763 147.958 34.6763Z" fill="white"/>
                    </svg>