<svg xmlns="http://www.w3.org/2000/svg" width="180" height="69" viewBox="0 0 180 69" fill="none">
<mask id="mask0_444_987" style="mask-type:alpha" maskUnits="userSpaceOnUse" x="0" y="8" width="180" height="53">
<path d="M120.132 26.9158V32.1554H139.089C139.291 32.1843 139.494 32.3001 139.58 32.4738C139.638 32.5606 139.667 32.6475 139.667 32.7633C139.667 32.7922 139.667 32.7922 139.667 32.8211V36.7001C139.667 36.7291 139.667 36.7291 139.667 36.758C139.638 37.0765 139.378 37.337 139.06 37.3659H120.103V42.6054H140.332H140.361C140.563 42.6344 140.765 42.7502 140.852 42.9239C140.91 43.0107 140.939 43.0976 140.939 43.2133C140.939 43.2423 140.939 43.2423 140.939 43.2712V47.1792C140.939 47.2081 140.939 47.2081 140.939 47.2371C140.91 47.5844 140.621 47.845 140.303 47.845H116.23C114.785 47.845 113.629 46.6871 113.629 45.2397V24.3105C113.629 22.8921 114.785 21.7342 116.201 21.7053C116.201 21.7053 116.23 21.7053 116.259 21.7053H140.39C140.621 21.7053 140.823 21.8211 140.939 22.0237C140.996 22.1105 141.025 22.2263 141.025 22.3711V26.3369C140.996 26.6843 140.707 26.9448 140.39 26.9448H120.132V26.9158Z" fill="white"/>
<path d="M108.254 47.0923C108.254 46.9766 108.225 46.8897 108.168 46.8029L94.4118 22.9211C93.9494 22.1684 93.1402 21.6763 92.2155 21.6763H87.6206C86.7247 21.6763 85.9445 22.1395 85.4532 22.8342L85.2509 23.1816L71.6397 46.8318C71.6397 46.8608 71.6108 46.8608 71.6108 46.8897C71.553 46.9766 71.553 47.0634 71.553 47.1792C71.553 47.3529 71.6397 47.5266 71.7553 47.6424C71.8709 47.7581 72.0443 47.845 72.2176 47.845H78.6331L81.6386 42.6055H98.1975L101.203 47.845H107.59C107.936 47.845 108.225 47.5845 108.225 47.2371C108.225 47.2371 108.225 47.2081 108.225 47.1792C108.254 47.1502 108.254 47.1213 108.254 47.0923ZM84.6152 37.3659L89.8747 28.2185L95.1342 37.3659H84.6152V37.3659Z" fill="white"/>
<path d="M179.749 46.8318C179.807 46.9187 179.836 47.0344 179.836 47.1792C179.836 47.3529 179.749 47.5266 179.634 47.6424C179.518 47.7581 179.345 47.845 179.171 47.845H171.513L163.075 39.3923L154.665 47.816H147.007C146.834 47.816 146.66 47.7292 146.545 47.6134C146.429 47.4976 146.343 47.3239 146.343 47.1502C146.343 46.9766 146.4 46.8318 146.516 46.716L146.574 46.6581C146.574 46.6581 146.574 46.6581 146.603 46.6581L158.48 34.7317L146.574 22.8053C146.458 22.6895 146.371 22.5158 146.371 22.3421C146.371 21.9948 146.66 21.7053 147.007 21.6763H154.665L163.104 30.129L171.542 21.6763H179.2C179.431 21.6763 179.634 21.7921 179.749 21.9948C179.807 22.0816 179.836 22.1974 179.836 22.3421C179.836 22.5158 179.749 22.6895 179.634 22.8053L167.699 34.7607L179.634 46.716C179.692 46.745 179.72 46.7739 179.749 46.8318Z" fill="white"/>
<path d="M56.15 45.9343C56.0055 45.587 55.861 45.2396 55.6587 44.9212C55.6009 44.8054 55.5142 44.6896 55.4564 44.5449C55.3986 44.458 55.3408 44.3712 55.283 44.2554C55.2252 44.1685 55.1674 44.0527 55.0808 43.9659C54.9363 43.7633 54.8207 43.5606 54.6473 43.387C54.5606 43.2712 54.445 43.1554 54.3583 43.0396L54.3294 43.0106C54.2716 42.9238 54.1849 42.8659 54.1271 42.7791C54.0404 42.6633 53.9248 42.5764 53.8381 42.4606C53.7514 42.3738 53.6647 42.2869 53.578 42.2001L53.5491 42.1712C53.5202 42.1422 53.4624 42.0843 53.4335 42.0554C52.9134 41.5633 52.3354 41.158 51.7285 40.7817C51.6129 40.6948 51.4684 40.6369 51.3239 40.5501C50.5437 40.1159 49.7056 39.7685 48.8098 39.5659C48.6653 39.5369 48.5208 39.508 48.3474 39.4501C47.6538 39.3053 46.9313 39.2474 46.2089 39.2474C45.5153 39.2474 44.8506 39.3053 44.2149 39.4501C43.8681 39.508 43.4924 39.5948 43.1745 39.7106C43.1167 39.7396 43.0589 39.7396 42.9722 39.7685C42.9144 39.7974 42.8566 39.7974 42.7699 39.8264C42.7121 39.8553 42.6543 39.8553 42.5966 39.8843C42.5388 39.9132 42.481 39.9132 42.4232 39.9422C42.3943 39.9711 42.3365 39.9711 42.3076 40.0001C42.2209 40.029 42.1053 40.0869 42.0186 40.1159C41.903 40.1738 41.7874 40.2317 41.6429 40.2896C41.5562 40.3185 41.4406 40.3764 41.3539 40.4343C41.325 40.4343 41.325 40.4632 41.2961 40.4632C41.2383 40.4922 41.1516 40.5211 41.0938 40.579C41.0649 40.608 41.0071 40.608 40.9782 40.6369C40.9782 40.6369 40.9493 40.6369 40.9493 40.6659C40.8626 40.7238 40.747 40.7817 40.6603 40.8396C40.5159 40.9264 40.4003 41.0132 40.2558 41.1001L40.2269 41.129L39.9668 41.3317L39.7645 41.4764C39.6778 41.5343 39.5911 41.6211 39.5044 41.679H39.4755L32.222 47.0922L28.3784 49.9581L17.2236 58.266C17.397 58.1213 17.5704 57.9766 17.7437 57.8029C17.5126 58.0345 17.2525 58.2371 16.9924 58.4397C15.1429 59.8292 12.8888 60.5818 10.5769 60.5818C10.4324 60.5818 10.259 60.5818 10.1145 60.5818C10.0856 60.5818 10.0278 60.5818 9.99892 60.5818C9.88333 60.5818 9.76773 60.5818 9.65214 60.5529C9.62324 60.5529 9.59434 60.5529 9.56544 60.5529C9.50764 60.5529 9.44985 60.5529 9.39205 60.524C9.24756 60.524 9.10306 60.495 8.95857 60.4661C8.78518 60.4371 8.64069 60.4082 8.46729 60.3792C8.265 60.3503 8.06271 60.2924 7.86042 60.2345C7.71593 60.2055 7.60034 60.1766 7.45584 60.1187C7.34025 60.0897 7.22465 60.0608 7.13796 60.0029C7.05126 59.9739 6.96457 59.945 6.87787 59.9161C6.76228 59.8871 6.61778 59.8292 6.50219 59.7713C6.41549 59.7424 6.2999 59.6845 6.2132 59.6555C6.01091 59.5687 5.77972 59.4529 5.57743 59.3371C5.49074 59.3082 5.43294 59.2503 5.34624 59.2213C5.31734 59.2213 5.28845 59.1924 5.25955 59.1634C5.20175 59.1345 5.11505 59.0766 5.05726 59.0476C4.91276 58.9608 4.76827 58.8739 4.62378 58.7871C4.45039 58.6713 4.30589 58.5555 4.1325 58.4397C4.01691 58.3529 3.93021 58.266 3.81462 58.1792C3.78572 58.1502 3.78572 58.1502 3.75682 58.1213C3.64123 58.0345 3.52563 57.9187 3.41004 57.8029C3.29444 57.6871 3.14995 57.5713 3.03435 57.4555C2.80317 57.2239 2.57198 56.9923 2.36969 56.7318C2.22519 56.5871 2.1096 56.4134 1.994 56.2397C1.90731 56.1239 1.82061 55.9792 1.73392 55.8634C1.64722 55.7186 1.53163 55.5739 1.44493 55.4292C1.38713 55.3134 1.30044 55.1976 1.24264 55.0818C1.21374 54.995 1.15594 54.9371 1.12705 54.8502C1.01145 54.6476 0.924756 54.445 0.83806 54.2423C0.780263 54.1265 0.751364 54.0397 0.693567 53.9239C0.606871 53.7213 0.520175 53.4897 0.462378 53.287C0.433479 53.1713 0.404581 53.0844 0.346783 52.9686C0.317885 52.8528 0.288986 52.737 0.260087 52.6502C0.231189 52.5634 0.20229 52.4765 0.20229 52.3897C0.20229 52.3607 0.20229 52.3607 0.173392 52.3318C0.173392 52.3028 0.173392 52.3028 0.173392 52.2739C0.144493 52.187 0.144493 52.0712 0.115594 51.9844C0.115594 51.9265 0.0866958 51.8686 0.0866958 51.8107C0.0866958 51.7528 0.0866958 51.6949 0.0577972 51.637C0.0288986 51.5502 0.0288986 51.4344 0.0288986 51.3476C0.0288986 51.3186 0.0288986 51.3186 0.0288986 51.2897C0.0288986 51.2607 0.0288986 51.2028 0.0288986 51.1449C0.0288986 51.087 0.0288986 51.0291 0 50.9712C0 50.9133 0 50.8844 0 50.8265C0 50.7975 0 50.7397 0 50.7107C0 50.6528 0 50.5949 0 50.537C0 50.4791 0 50.4212 0 50.3633C0 50.2475 0 50.1028 0 49.9581V49.9002C0 49.7554 0 49.5817 0 49.437C0 49.4081 0 49.3502 0 49.3212C0 49.2054 0 49.0607 0.0288986 48.9449C0.0288986 48.916 0.0288986 48.887 0.0288986 48.887C0.0288986 48.8291 0.0288986 48.7712 0.0577972 48.7133C0.0577972 48.5686 0.0866958 48.4238 0.115594 48.2791C0.144493 48.1054 0.173392 47.9317 0.20229 47.758C0.231189 47.5844 0.288986 47.4107 0.317885 47.237C0.317885 47.208 0.317885 47.208 0.317885 47.1791C0.346783 47.0344 0.404581 46.8896 0.433479 46.7449C0.462378 46.6291 0.520175 46.4843 0.549074 46.3686C0.577972 46.3107 0.606871 46.2238 0.606871 46.1659C0.664668 46.0212 0.693567 45.9054 0.751364 45.7607C0.895857 45.3843 1.06925 45.037 1.27154 44.6896C1.30044 44.6317 1.32934 44.6028 1.35823 44.5449L7.31135 34.2395L19.0731 13.8314C19.1309 13.7156 19.1887 13.6288 19.2754 13.513C19.3332 13.4262 19.391 13.3104 19.4488 13.2235C19.4777 13.1656 19.5355 13.1077 19.5644 13.0498C19.6222 12.963 19.68 12.9051 19.7378 12.8183C19.8533 12.6446 19.9689 12.4709 20.1134 12.3261C20.1712 12.2682 20.229 12.2104 20.2868 12.1235C20.518 11.834 20.7781 11.5735 21.0671 11.313C21.1538 11.2551 21.2116 11.1682 21.2983 11.1103C21.385 11.0524 21.4428 10.9656 21.5295 10.9077C21.6451 10.8209 21.7318 10.734 21.8473 10.6472C21.934 10.5603 22.0496 10.5024 22.1363 10.4445C22.223 10.3867 22.3386 10.2998 22.4253 10.2419C22.5409 10.184 22.6276 10.0972 22.7432 10.0393C22.8588 9.98139 22.9455 9.92349 23.0611 9.83665C23.1767 9.77875 23.2634 9.72086 23.379 9.66296C23.4946 9.60507 23.5813 9.54717 23.6969 9.48928C24.0147 9.34454 24.3326 9.1998 24.6794 9.08401C24.795 9.05506 24.9106 8.99717 24.9973 8.96822C25.4308 8.82348 25.8932 8.70769 26.3266 8.62085C26.5578 8.5919 26.7601 8.534 26.9913 8.50506C27.9161 8.38927 28.8119 8.38927 29.7367 8.50506C29.9679 8.534 30.199 8.56295 30.4013 8.62085C30.5169 8.64979 30.6325 8.67874 30.7481 8.67874C30.9793 8.73664 31.1816 8.79453 31.4128 8.85243C32.4531 9.17085 33.4357 9.63401 34.3315 10.2419C34.4471 10.2998 34.5338 10.3867 34.6205 10.4445C34.7072 10.5024 34.7939 10.5893 34.8806 10.6472C35.0251 10.763 35.1696 10.8788 35.3141 11.0235C35.4008 11.0814 35.4586 11.1393 35.5164 11.2261C35.7187 11.3998 35.921 11.6025 36.0944 11.8051C36.1522 11.863 36.2389 11.9498 36.2967 12.0367C36.3545 12.1235 36.4411 12.1814 36.4989 12.2682L36.759 12.5867C36.8168 12.6735 36.9035 12.7893 36.9613 12.8761C37.0191 12.963 37.1058 13.0788 37.1636 13.1656C37.2214 13.2525 37.3081 13.3683 37.3659 13.484C37.4237 13.5998 37.4815 13.6867 37.5682 13.8025L37.626 13.9183L55.4853 44.5159C55.5142 44.5738 55.5431 44.6028 55.572 44.6606C55.8032 45.0659 56.0055 45.5001 56.15 45.9343Z" fill="url(#paint0_linear_444_987)"/>
<path d="M42.6543 39.8843C42.6254 39.8843 42.5966 39.9132 42.5677 39.9132C42.5388 39.9132 42.5099 39.9132 42.481 39.9422C42.5388 39.9132 42.5965 39.8843 42.6543 39.8843Z" fill="url(#paint1_linear_444_987)"/>
<path d="M41.0644 40.608C41.0644 40.608 41.036 40.608 41.036 40.6364C41.036 40.608 41.0644 40.608 41.0644 40.608Z" fill="url(#paint2_linear_444_987)"/>
<path d="M42.6543 39.8843C42.6254 39.8843 42.5966 39.9132 42.5677 39.9132C42.5388 39.9132 42.5099 39.9132 42.481 39.9422C42.5388 39.9132 42.5965 39.8843 42.6543 39.8843Z" fill="url(#paint3_linear_444_987)"/>
<path d="M42.8277 39.7975C42.7699 39.8264 42.7121 39.8264 42.6543 39.8554C42.7121 39.8554 42.7699 39.8264 42.8277 39.7975Z" fill="url(#paint4_linear_444_987)"/>
<path d="M41.1805 40.5501C41.2383 40.5211 41.2961 40.4632 41.3828 40.4343C41.2672 40.4922 41.1516 40.5501 41.0361 40.6369C40.8049 40.7816 40.5737 40.8974 40.3714 41.0422L40.3425 41.0711C40.2558 41.129 40.1691 41.1869 40.0824 41.2737L40.3425 41.0711L40.3714 41.0422C40.5159 40.9553 40.6315 40.8685 40.776 40.7816C40.8627 40.7237 40.9494 40.6658 41.0649 40.608L41.0939 40.579C41.0939 40.579 41.1516 40.5501 41.1805 40.5501Z" fill="url(#paint5_linear_444_987)"/>
<path d="M41.7296 40.2606C41.614 40.3185 41.4984 40.3764 41.3828 40.4343C41.4117 40.4343 41.4117 40.4054 41.4406 40.4054C41.5273 40.3475 41.6429 40.2896 41.7296 40.2606Z" fill="url(#paint6_linear_444_987)"/>
<path d="M43.03 39.7396C42.9722 39.7685 42.9144 39.7685 42.8277 39.7975C42.741 39.8264 42.6543 39.8554 42.5676 39.8843C42.5099 39.9132 42.4521 39.9422 42.3654 39.9422C42.3943 39.9422 42.4521 39.9132 42.481 39.8843C42.5388 39.8554 42.5965 39.8554 42.6543 39.8264C42.7121 39.7975 42.7699 39.7685 42.8277 39.7685C42.8855 39.7975 42.9722 39.7685 43.03 39.7396Z" fill="url(#paint7_linear_444_987)"/>
<path d="M56.9013 49.8134V49.8713C56.9013 50.016 56.9013 50.1318 56.9013 50.2765C56.9013 50.3344 56.9013 50.3923 56.9013 50.4502C56.9013 50.5371 56.9013 50.595 56.8724 50.6818C56.8724 50.8555 56.8435 51.0002 56.8146 51.1739C56.8146 51.2029 56.8146 51.2608 56.7858 51.2897C56.7858 51.3766 56.7569 51.4634 56.7569 51.5502C56.7569 51.666 56.728 51.7818 56.6991 51.8976C56.6702 52.0134 56.6702 52.1002 56.6413 52.1871C56.5835 52.4187 56.5257 52.6502 56.4679 52.8818C56.439 52.9976 56.4101 53.0845 56.3523 53.2003C56.2945 53.4029 56.2078 53.6345 56.1211 53.8371C56.0922 53.9529 56.0344 54.0397 55.9766 54.1555C55.8899 54.3871 55.7743 54.5897 55.6587 54.7924C55.6298 54.8503 55.6009 54.9371 55.5431 54.995C55.3986 55.2555 55.2252 55.545 55.0518 55.7766C54.9651 55.8924 54.8784 56.0371 54.7917 56.1529C54.7628 56.1819 54.7628 56.2108 54.7339 56.2398C54.6473 56.3555 54.5317 56.5003 54.445 56.6161C54.2427 56.8766 54.0115 57.1371 53.7514 57.3687C53.6358 57.4845 53.5202 57.6003 53.3757 57.7161C53.2601 57.8319 53.1445 57.9187 53.0289 58.0345C53 58.0345 53 58.0635 52.9711 58.0924C52.8555 58.1792 52.7688 58.2661 52.6532 58.3529C52.4799 58.4687 52.3354 58.5845 52.162 58.7003C52.0175 58.7871 51.873 58.874 51.7285 58.9608C51.6707 58.9898 51.6129 59.0477 51.5262 59.0766C51.4973 59.1056 51.4684 59.1056 51.4395 59.1345C51.3528 59.1924 51.295 59.2214 51.2083 59.2503C51.0927 59.3082 51.006 59.3661 50.8904 59.424C50.8037 59.4529 50.717 59.5108 50.6303 59.5398C50.1969 59.7424 49.7634 59.9161 49.301 60.0319C49.1565 60.0608 49.0409 60.1187 48.8964 60.1477C48.6941 60.2056 48.4918 60.2345 48.2896 60.2924C48.1162 60.3214 47.9717 60.3503 47.7983 60.3793C47.6538 60.4082 47.5093 60.4082 47.3648 60.4372C47.307 60.4372 47.2492 60.4372 47.1914 60.4661C47.1625 60.4661 47.1336 60.4661 47.1047 60.4661C46.9891 60.4661 46.8735 60.4951 46.7579 60.4951C46.729 60.4951 46.6712 60.4951 46.6423 60.4951C46.4978 60.4951 46.3245 60.4951 46.18 60.4951C44.0993 60.4951 42.0764 59.8872 40.3424 58.7582L40.2846 58.7293L39.3599 58.0635C39.1287 57.8608 38.8975 57.6582 38.6663 57.4556C38.8686 57.6582 39.042 57.8319 39.2443 58.0056L28.3784 49.9292L32.2219 47.0634L39.4755 41.6501H39.5044L39.7645 41.4475L39.9668 41.3028L40.2268 41.1001L40.2557 41.0712C41.1227 40.4922 42.1053 40.0291 43.1167 39.7107C43.4635 39.5949 43.8103 39.508 44.1571 39.4501C44.7928 39.3343 45.4575 39.2475 46.1511 39.2475C46.8735 39.2475 47.596 39.3343 48.2896 39.4501C48.4341 39.4791 48.5785 39.508 48.7519 39.5659C49.6478 39.7975 50.4859 40.1159 51.2661 40.5501C51.4106 40.637 51.5262 40.6949 51.6707 40.7817C54.8495 42.6344 56.9013 45.9923 56.9013 49.8134Z" fill="url(#paint8_linear_444_987)"/>
<path d="M56.15 45.8475C56.15 45.8765 56.1789 45.9054 56.1789 45.9344C56.15 45.9054 56.15 45.8475 56.1211 45.8186C56.0344 45.6449 55.9477 45.4423 55.8899 45.2396C55.8321 45.037 55.7454 44.8633 55.601 44.7186C55.5432 44.6607 55.5143 44.5738 55.4565 44.487L49.5611 34.2395C49.5322 34.2106 49.5322 34.1816 49.5034 34.1816C45.6598 32.5027 39.8512 32.7921 30.5748 37.5106C8.29394 48.887 6.29993 36.1211 6.29993 36.1211L5.95315 36.758L1.50277 44.487C1.47387 44.5449 1.44497 44.5738 1.41607 44.6317C1.21378 44.9791 1.04039 45.3265 0.895895 45.7028C0.838098 45.8186 0.780301 45.9633 0.751402 46.1081C0.722503 46.166 0.693605 46.2528 0.693605 46.3107C0.635808 46.4265 0.606909 46.5712 0.57801 46.687C0.549112 46.8317 0.491314 46.9765 0.462416 47.1212C0.462416 47.1502 0.462416 47.1502 0.462416 47.1791C0.404619 47.3528 0.37572 47.5265 0.346821 47.7002C0.317923 47.8739 0.289024 48.0475 0.260126 48.2212C0.231227 48.366 0.231227 48.5107 0.202328 48.6554C0.202328 48.7133 0.202328 48.7712 0.17343 48.8291C0.17343 48.8581 0.17343 48.887 0.17343 48.887C0.17343 49.0028 0.144531 49.1476 0.144531 49.2633C0.144531 49.2923 0.144531 49.3212 0.144531 49.3791C0.144531 49.5239 0.144531 49.6976 0.144531 49.8423V49.9002C0.144531 50.0449 0.144531 50.1607 0.144531 50.3055C0.144531 50.3634 0.144531 50.4213 0.144531 50.4792C0.144531 50.537 0.144531 50.5949 0.144531 50.6528C0.144531 50.6818 0.144531 50.7397 0.144531 50.7686C0.144531 50.8265 0.144531 50.8555 0.144531 50.9134C0.144531 50.9713 0.144531 51.0292 0.17343 51.087C0.17343 51.1449 0.17343 51.1739 0.17343 51.2318C0.17343 51.2607 0.17343 51.2607 0.17343 51.2897C0.17343 51.4055 0.202328 51.4923 0.202328 51.5792C0.202328 51.6371 0.231227 51.695 0.231227 51.7528C0.231227 51.8107 0.260126 51.8686 0.260126 51.9265C0.289024 52.0134 0.289024 52.1292 0.317923 52.216C0.317923 52.245 0.317923 52.245 0.317923 52.2739C0.317923 52.3029 0.317923 52.3029 0.346821 52.3318C0.37572 52.4186 0.37572 52.5055 0.404619 52.5923C0.433517 52.7081 0.462416 52.8239 0.491315 52.9108C0.520213 53.0265 0.549112 53.1423 0.606909 53.2292C0.664706 53.4318 0.751402 53.6634 0.838098 53.866C0.866996 53.9818 0.924794 54.0687 0.982591 54.1844C1.06929 54.3871 1.18488 54.5897 1.27158 54.7923C1.30048 54.8213 1.30048 54.8502 1.32937 54.8792C1.38717 54.995 1.50277 55.1687 1.56056 55.2845C1.67616 55.4581 1.76285 55.6318 1.87845 55.8055C1.96514 55.9213 2.05184 56.066 2.13853 56.1818C2.25413 56.3555 2.36972 56.5003 2.51422 56.6739C2.71651 56.9345 2.9477 57.1661 3.17888 57.3976C3.29448 57.5134 3.41007 57.6292 3.55457 57.745C3.67016 57.8608 3.78576 57.9476 3.90135 58.0634C3.93025 58.0634 3.93025 58.0924 3.95915 58.1213C4.07474 58.2082 4.16144 58.295 4.27703 58.3819C4.45042 58.4976 4.59492 58.6134 4.76831 58.7292C4.9128 58.8161 5.0284 58.9029 5.20179 58.9898C5.25958 59.0187 5.31738 59.0766 5.40408 59.1055C5.43298 59.1345 5.46187 59.1345 5.49077 59.1634C5.57747 59.2213 5.63527 59.2503 5.72196 59.2792C5.92425 59.395 6.15544 59.5108 6.35773 59.5977C6.44443 59.6266 6.56002 59.6845 6.64672 59.7134C6.76231 59.7713 6.90681 59.8292 7.0224 59.8582C7.1091 59.8871 7.19579 59.9161 7.28249 59.945C7.39808 59.974 7.48478 60.0319 7.60037 60.0608C7.74486 60.0898 7.86046 60.1477 8.00495 60.1766C8.20724 60.2345 8.40953 60.2635 8.61182 60.3213C8.78521 60.3503 8.92971 60.3792 9.1031 60.4082C9.24759 60.4371 9.39209 60.4371 9.53658 60.4661C9.59438 60.4661 9.65217 60.4661 9.70997 60.495C9.73887 60.495 9.76777 60.495 9.79667 60.495C9.91226 60.495 10.0279 60.524 10.1434 60.524C10.1723 60.524 10.2301 60.524 10.259 60.524C10.4035 60.524 10.5769 60.524 10.7214 60.524C13.0044 60.524 15.2874 59.7713 17.1369 58.3819C17.397 58.1792 17.6571 57.9766 17.8883 57.745C17.7149 57.9187 17.5415 58.0634 17.3681 58.2082L22.4254 54.445L24.4483 52.9397L24.5928 52.8239L26.9046 51.116C27.8872 50.3923 29.1876 50.3923 30.1702 51.116L32.222 52.6213L39.4466 58.0055C39.2443 57.8319 39.0421 57.6582 38.8687 57.4555C39.0999 57.6871 39.3021 57.8897 39.5622 58.0634L40.487 58.7292L40.5448 58.7582C42.2787 59.8871 44.3305 60.495 46.3823 60.495C46.5268 60.495 46.7002 60.495 46.8447 60.495C46.8736 60.495 46.9314 60.495 46.9603 60.495C47.0759 60.495 47.1915 60.495 47.3071 60.4661C47.336 60.4661 47.3649 60.4661 47.3938 60.4661C47.4515 60.4661 47.5093 60.4661 47.5671 60.4371C47.7116 60.4371 47.8561 60.4082 48.0006 60.3792C48.174 60.3503 48.3185 60.3213 48.4919 60.2924C48.6942 60.2635 48.8965 60.2056 49.0988 60.1477C49.2433 60.1187 49.3589 60.0898 49.5034 60.0319C49.9657 59.8871 50.3992 59.7134 50.8327 59.5398C50.9194 59.5108 51.0061 59.4529 51.0928 59.424C51.2084 59.3661 51.2951 59.3082 51.4107 59.2503C51.4974 59.2213 51.5551 59.1634 51.6418 59.1345C51.6707 59.1345 51.6996 59.1055 51.7285 59.0766C51.7863 59.0477 51.873 58.9898 51.9308 58.9608C52.1042 58.874 52.2487 58.7582 52.3932 58.6713C52.5377 58.5845 52.6822 58.4687 52.8267 58.3529C52.9423 58.2661 53.0579 58.1792 53.1735 58.0924C53.1735 58.0924 53.2024 58.0924 53.2024 58.0634C53.318 57.9766 53.4914 57.8029 53.607 57.7161C53.7225 57.6003 53.8381 57.4845 53.9537 57.3687C54.1849 57.1371 54.4161 56.8766 54.6473 56.616C54.734 56.5003 54.8496 56.3845 54.9363 56.2397C54.9652 56.2108 54.9652 56.1818 54.9941 56.1529C55.0808 56.0371 55.1675 55.8924 55.2542 55.7766C55.4276 55.516 55.601 55.2555 55.7454 54.995C55.7743 54.966 55.7743 54.9081 55.8032 54.8792C55.8899 54.7055 56.0055 54.5029 56.0922 54.3292C56.15 54.1844 56.2367 54.0108 56.2945 53.8371C56.3812 53.6344 56.4679 53.4029 56.5257 53.2002C56.5546 53.0844 56.5835 52.9976 56.6413 52.8818C56.6991 52.6502 56.7858 52.4186 56.8147 52.1871C56.8436 52.1002 56.8436 52.0134 56.8725 51.9265C56.9014 51.8107 56.9303 51.666 56.9303 51.5502C56.9303 51.4634 56.9592 51.3765 56.9592 51.2897C56.9592 51.2607 56.9592 51.2028 56.9881 51.1739C57.017 51.0002 57.017 50.8555 57.0459 50.6818C57.0459 50.5949 57.0459 50.537 57.0748 50.4502C57.0748 50.3923 57.0748 50.3344 57.0748 50.2765C57.0748 50.1607 57.0748 50.016 57.0748 49.8712V49.8134C56.9303 48.4239 56.6413 47.0633 56.15 45.8475Z" fill="url(#paint9_linear_444_987)"/>
</mask>
<g mask="url(#mask0_444_987)">
<rect x="-9" y="-8" width="262" height="88" fill="#4AFEBF"/>
</g>
<defs>
<linearGradient id="paint0_linear_444_987" x1="0.0577972" y1="34.4161" x2="56.1635" y2="34.4161" gradientUnits="userSpaceOnUse">
<stop stop-color="#ABABAB"/>
<stop offset="0.9997" stop-color="white"/>
</linearGradient>
<linearGradient id="paint1_linear_444_987" x1="42.4855" y1="39.9068" x2="42.6487" y2="39.9068" gradientUnits="userSpaceOnUse">
<stop stop-color="#1473F9"/>
<stop offset="0.9997" stop-color="#1AD4FF"/>
</linearGradient>
<linearGradient id="paint2_linear_444_987" x1="41.0241" y1="40.6139" x2="41.0657" y2="40.6139" gradientUnits="userSpaceOnUse">
<stop stop-color="#1473F9"/>
<stop offset="0.9997" stop-color="#1AD4FF"/>
</linearGradient>
<linearGradient id="paint3_linear_444_987" x1="42.4855" y1="39.9068" x2="42.6487" y2="39.9068" gradientUnits="userSpaceOnUse">
<stop stop-color="#1473F9"/>
<stop offset="0.9997" stop-color="#1AD4FF"/>
</linearGradient>
<linearGradient id="paint4_linear_444_987" x1="42.6487" y1="39.8429" x2="42.8334" y2="39.8429" gradientUnits="userSpaceOnUse">
<stop stop-color="#1473F9"/>
<stop offset="0.9997" stop-color="#1AD4FF"/>
</linearGradient>
<linearGradient id="paint5_linear_444_987" x1="40.0658" y1="40.8433" x2="41.3716" y2="40.8433" gradientUnits="userSpaceOnUse">
<stop stop-color="#1473F9"/>
<stop offset="0.9997" stop-color="#1AD4FF"/>
</linearGradient>
<linearGradient id="paint6_linear_444_987" x1="41.3715" y1="40.3493" x2="41.7264" y2="40.3493" gradientUnits="userSpaceOnUse">
<stop stop-color="#1473F9"/>
<stop offset="0.9997" stop-color="#1AD4FF"/>
</linearGradient>
<linearGradient id="paint7_linear_444_987" x1="42.3686" y1="39.8658" x2="43.025" y2="39.8658" gradientUnits="userSpaceOnUse">
<stop stop-color="#1473F9"/>
<stop offset="0.9997" stop-color="#1AD4FF"/>
</linearGradient>
<linearGradient id="paint8_linear_444_987" x1="28.5045" y1="49.8642" x2="56.9139" y2="49.8642" gradientUnits="userSpaceOnUse">
<stop stop-color="#1473F9"/>
<stop offset="0.9997" stop-color="#1AD4FF"/>
</linearGradient>
<linearGradient id="paint9_linear_444_987" x1="28.5046" y1="60.4927" x2="28.5046" y2="33.2632" gradientUnits="userSpaceOnUse">
<stop stop-color="white"/>
<stop offset="0.9939" stop-color="#C8C8C8"/>
</linearGradient>
</defs>
</svg>