<svg xmlns="http://www.w3.org/2000/svg" width="205" height="69" viewBox="0 0 205 69" fill="none">
<path fill-rule="evenodd" clip-rule="evenodd" d="M0.783077 9.98066C5.77366 16.1052 11.2532 23.7995 12.1395 25.044C12.1868 25.1103 12.2209 25.1583 12.2413 25.1868C12.7138 25.8471 13.1038 26.3379 13.4 26.7107L13.4 26.7107C14.0576 27.5382 14.2527 27.7837 13.8603 28.0093C13.5438 28.1911 13.2174 28.2511 12.8916 28.2511C12.5231 28.2511 12.108 28.0717 11.8057 27.7818C11.5921 27.5769 10.1301 25.43 8.13943 22.3068C6.61627 19.917 5.34155 17.9346 5.30678 17.9014C5.22638 17.8246 5.22775 17.8272 7.98413 22.814C9.71489 25.9453 10.8988 28.2593 10.8988 28.4074C10.8988 28.7085 10.8175 28.8668 10.4501 29.2811C9.8377 29.9721 9.5639 30.7483 9.36628 32.3548C9.14472 34.1556 8.5217 35.4279 6.79512 37.605C5.78445 38.8796 5.61908 39.1131 5.36405 39.6269C5.04284 40.2738 4.9545 40.636 4.9187 41.4529C4.88087 42.3167 4.95456 42.8746 5.21552 43.7002C5.44399 44.4231 5.68245 44.9006 6.29208 45.8554C6.8182 46.6792 7.12114 47.2915 7.12114 47.531C7.12114 47.7217 7.15712 47.7219 7.97237 47.5358C9.92338 47.0902 11.5076 46.3069 12.3986 45.3467C12.95 44.7523 13.0795 44.4242 13.0837 43.6098C13.0864 43.0771 13.0679 42.9656 12.9255 42.6592C12.6937 42.1602 12.2716 41.7456 11.3415 41.1027C10.1228 40.2602 9.60222 39.5821 9.45843 38.6494C9.34049 37.8842 9.47733 37.3442 10.1515 35.9154C10.8494 34.4365 11.0223 33.8063 11.1393 32.3154C11.2149 31.3523 11.3195 30.9725 11.5932 30.6677C11.8786 30.3498 12.1355 30.2421 12.8419 30.1444C13.9935 29.9854 14.7268 29.6841 15.3295 29.1225C15.8524 28.6354 16.0712 28.1659 16.1048 27.4592L16.1303 26.9236L15.8381 26.5791C14.7799 25.3316 0.0744334 9 0.00931389 9C-0.00459749 9 0.34361 9.44133 0.783077 9.98066ZM7.71514 42.4302C7.95439 42.0017 7.82728 41.451 7.42707 41.1819C7.04894 40.9277 6.46155 41.0475 6.46155 41.3788C6.46155 41.4798 6.51683 41.5533 6.64145 41.6183C6.85125 41.7275 6.86648 41.8502 6.70141 42.101C6.53423 42.3552 6.54771 42.5785 6.73947 42.7302C7.04852 42.975 7.48601 42.8404 7.71514 42.4302ZM14.9163 19.0676C14.4442 18.9936 14.4243 18.9849 14.6465 18.9504C15.0722 18.8841 16.0775 18.9744 16.7702 19.1409C18.3875 19.5296 19.8591 20.5254 21.4299 22.2938L21.8472 22.7636L22.4443 22.6666C24.9594 22.2579 27.518 22.5827 29.658 23.5823C30.2468 23.8573 31.175 24.4047 31.2909 24.5454C31.3277 24.5902 31.3958 24.8789 31.4416 25.1868C31.6006 26.2522 31.5211 27.0688 31.1987 27.6788C31.0235 28.0107 31.0137 28.1159 31.1315 28.3999C31.2255 28.6266 31.488 28.7944 31.7479 28.794C32.2797 28.7933 32.852 27.924 33.1173 26.7145L33.2226 26.2341L33.4314 26.4731C34.576 27.7846 35.4753 29.573 35.6297 30.846L35.6699 31.1779L35.4776 30.8763C35.1463 30.3571 34.8137 30.0035 34.3875 29.7185C33.6195 29.2046 32.8072 29.0297 30.6566 28.9151C28.714 28.8116 27.6147 28.6439 26.5246 28.2844C24.6697 27.673 23.7348 26.8586 21.5315 23.9358C20.5529 22.6376 19.9481 21.9194 19.3464 21.3409C17.9793 20.0266 16.6359 19.3373 14.9163 19.0676ZM31.729 21.9662C31.7779 21.0963 31.8946 20.5225 32.1292 19.9985C32.222 19.7911 32.309 19.6213 32.3223 19.6213C32.3359 19.6213 32.2955 19.7744 32.2326 19.9615C32.0622 20.47 32.0341 21.1656 32.1517 21.9749C32.3007 23.0017 32.3856 23.1499 33.4588 24.2591C33.9623 24.7793 34.5479 25.4355 34.7602 25.7172L35.1463 26.2294L34.7602 25.8634C34.2882 25.4157 33.2027 24.5426 32.9629 24.4178C32.802 24.3341 32.7781 24.3356 32.679 24.4354C32.5877 24.5274 32.5683 24.6656 32.5556 25.3189C32.5359 26.3372 32.3987 26.9907 32.0674 27.6443C31.8882 27.9977 31.8599 27.9223 32.022 27.5233C32.1431 27.2254 32.1554 27.0945 32.1546 26.1088C32.1527 24.1282 31.92 23.652 30.5562 22.8364C30.211 22.6297 29.6416 22.3317 29.2913 22.1741C28.9413 22.0165 28.663 21.8792 28.673 21.8689C28.7117 21.83 30.0418 22.2226 30.5771 22.4308C31.3733 22.7405 31.5046 22.7806 31.6014 22.7432C31.6661 22.7182 31.6976 22.5273 31.729 21.9662ZM14.4103 20.4457C14.282 21.9748 14.8749 24.0203 15.8333 25.3544C16.5762 26.3886 17.7279 27.1922 18.5781 27.2699C19.1348 27.3207 19.3021 27.1444 19.0503 26.7726C18.7006 26.2562 18.2706 25.4612 18.1567 25.1208C18.0861 24.9094 17.9324 24.2848 17.8153 23.7328C17.4156 21.8485 17.0226 21.1146 16.115 20.5573C15.7842 20.3541 15.0778 20.0883 14.6682 20.0127L14.45 19.9725L14.4103 20.4457ZM30.5667 35.2835C26.0878 33.4602 24.5103 31.8775 24.5103 29.207C24.5103 28.814 24.5238 28.4925 24.54 28.4925C24.5565 28.4925 24.7296 28.6222 24.925 28.7807C25.8333 29.5173 26.8503 29.8319 29.6659 30.2471C31.3225 30.4917 32.2549 30.689 33.115 30.9775C35.8487 31.8942 37.54 33.7544 37.9433 36.2883C38.0605 37.0246 37.9918 38.4052 37.8018 39.1329C37.6518 39.7077 37.1939 40.7435 37.0726 40.7833C37.0389 40.7944 37.0058 40.664 36.9972 40.4865C36.9513 39.535 36.4757 38.6088 35.6772 37.9148C34.7692 37.1258 33.5492 36.4979 30.5667 35.2835ZM27.206 35.0829C27.2688 35.2723 27.3662 35.7033 27.4222 36.041C27.781 38.1998 26.6603 39.944 24.4803 40.6198C24.2495 40.6913 23.3404 40.8713 22.4601 41.0194C20.6781 41.3194 19.8827 41.5319 19.0837 41.921C18.5171 42.1971 17.831 42.6104 17.8718 42.6515C17.8849 42.6648 18.0143 42.6335 18.1592 42.5821C19.1668 42.2244 20.2881 42.0392 21.9918 41.9496C22.668 41.9142 23.437 41.8575 23.7009 41.824C25.2187 41.6306 26.2707 41.1644 27.0888 40.3225C27.544 39.854 27.8154 39.4175 28.0341 38.8021C28.1727 38.4117 28.1914 38.2667 28.1925 37.575C28.1937 36.8702 28.1769 36.7413 28.0266 36.3077C27.8299 35.7394 27.5979 35.3129 27.304 34.9794L27.0917 34.7385L27.206 35.0829ZM29.4755 39.7279C28.8803 38.4344 28.7438 37.1856 29.0697 36.021C29.1046 35.8965 29.1606 35.7946 29.1945 35.7946C29.2283 35.7946 29.3685 35.8715 29.5065 35.9652C29.7806 36.1519 30.3306 36.4663 31.7958 37.274C33.6243 38.2819 34.6668 39.0623 35.3756 39.9542C35.9964 40.735 36.3806 41.6244 36.5654 42.709C36.6703 43.3233 36.6089 44.8017 36.453 45.4202C35.9615 47.3708 34.8189 48.9029 33.1893 49.7971C32.9506 49.9279 32.7363 50.0354 32.713 50.036C32.6899 50.0365 32.7768 49.8129 32.9063 49.539C33.4545 48.3802 33.5169 47.2531 33.1026 45.9988C32.8487 45.2306 32.3313 44.2933 31.2865 42.7092C30.072 40.8675 29.7741 40.3773 29.4755 39.7279ZM18.2664 43.9704C16.3827 44.2798 14.3147 45.2877 12.6526 46.7067L12.1578 47.1292L12.5927 47.1979C14.862 47.556 15.4731 47.8738 17.0472 49.5133C17.953 50.4567 18.2589 50.6667 19.0103 50.8606C20.1138 51.1454 21.2016 50.6221 21.5748 49.6267C21.7415 49.1819 21.7192 48.4454 21.5279 48.0756C21.073 47.195 19.7476 46.9104 19.1066 47.5554C18.5728 48.0927 18.7283 48.9021 19.3923 49.0413C19.5443 49.0733 19.54 49.0665 19.3536 48.9813C19.063 48.8483 18.9367 48.6642 18.9351 48.371C18.9314 47.6838 19.7093 47.2979 20.4329 47.6279C20.9627 47.8698 21.1731 48.1856 21.1731 48.7394C21.1731 49.5921 20.4554 50.2346 19.6201 50.1296C19.1736 50.0733 18.6276 49.7846 18.3348 49.45C17.5981 48.6077 17.8851 47.2785 18.9137 46.7685C19.6967 46.3804 20.7376 46.476 21.5448 47.0104C22.4722 47.6246 22.8665 48.1858 23.6653 50.0279C23.9254 50.6277 24.2601 51.3029 24.4089 51.5283C25.1656 52.6735 26.0722 53.2352 27.1642 53.2352C27.7664 53.2352 28.2195 53.124 28.7895 52.8363C29.2131 52.6223 29.8135 52.2158 29.7702 52.1723C29.7579 52.16 29.5823 52.2152 29.3798 52.295C28.1875 52.7652 26.9754 52.7329 26.2715 52.2119C25.8283 51.884 25.4707 51.2306 25.2869 50.4135C25.2551 50.2721 25.1502 49.6475 25.0536 49.0254C24.8089 47.4488 24.5739 46.74 24.026 45.9267C23.4653 45.0946 22.3875 44.3963 21.1825 44.0844C20.4307 43.8898 19.0783 43.8369 18.2664 43.9704ZM15.6282 31.7802C15.7909 31.1727 16.3164 30.5933 16.857 30.4254C17.2008 30.3188 17.9113 30.3869 18.2454 30.5585C18.8929 30.8915 19.363 31.6496 19.261 32.1969C19.1366 32.8642 18.0663 33.3981 16.8351 33.4069C16.2063 33.4113 15.974 33.3258 15.7339 33.0017C15.5853 32.8008 15.5289 32.1508 15.6282 31.7802ZM18.0801 30.7965C18.403 30.9958 18.4861 31.2906 18.2962 31.5633C18.1654 31.7513 17.7606 31.9298 17.4647 31.9298C17.0202 31.9298 16.5353 31.6106 16.5353 31.3183C16.5353 30.731 17.4652 30.4167 18.0801 30.7965ZM114.584 32.4781C113.579 29.1339 115.236 26.3599 118.77 25.4685C119.784 25.2127 124.373 25.3281 125.159 25.6293C125.448 25.7396 125.574 26.1631 125.577 27.0336C125.579 27.7191 125.653 28.5517 125.742 28.8837C125.878 29.387 125.799 29.486 125.268 29.4779C124.788 29.4704 124.498 29.1889 124.093 28.3373C123.446 26.977 122.662 26.5443 120.836 26.5392C118.505 26.5325 116.8 28.1035 117.078 30.0017C117.258 31.2369 118.491 32.4523 121.258 34.1231C123.89 35.7125 125.427 37.0196 126.039 38.1906C127.676 41.3215 126.278 44.6719 122.631 46.36C120.759 47.2265 117.621 47.316 115.415 46.566L114.002 46.0856V43.826C114.002 41.7796 114.051 41.566 114.517 41.566C114.907 41.566 115.075 41.824 115.212 42.6319C115.552 44.6408 117.077 45.8604 119.249 45.8604C121.377 45.8604 122.865 44.6967 123.435 42.5865C123.677 41.6875 123.635 41.356 123.154 40.3644C122.577 39.1754 121.584 38.3865 118.21 36.4381C116.338 35.3569 115.014 33.9113 114.584 32.4781ZM48.4484 26.8035C47.9881 26.8035 47.8085 26.653 47.8085 26.2667C47.8085 25.7554 47.9881 25.7299 51.5954 25.7299C54.9436 25.7299 55.3721 25.7804 55.2953 26.165C55.2472 26.4044 54.7846 26.7365 54.2666 26.9031L53.3246 27.2061L53.2443 34.0506C53.1904 38.6177 53.2661 41.2523 53.4715 41.9685C54.0824 44.0988 55.9456 45.3238 58.5746 45.3238C60.4047 45.3238 61.4738 44.8954 62.817 43.6233C64.2618 42.2558 64.4922 40.9565 64.4876 34.2031C64.4832 27.5417 64.3673 26.992 62.9381 26.8537C62.2878 26.7907 62.0699 26.639 62.0699 26.2498C62.0699 25.7645 62.2844 25.7299 65.2988 25.7299C68.3483 25.7299 68.5277 25.7597 68.5277 26.2667C68.5277 26.5974 68.3469 26.8051 68.0568 26.8076C66.8106 26.8186 66.7877 26.9373 66.6199 34.2417C66.446 41.8271 66.2834 42.7252 64.7477 44.5833C64.3048 45.1194 63.2487 45.8977 62.4008 46.3131C61.0191 46.99 60.5796 47.0677 58.1681 47.0633C55.9452 47.0588 55.2435 46.9513 54.1319 46.4448C52.5094 45.7054 51.4543 44.7485 50.6763 43.3106C50.1334 42.3069 50.0869 41.7638 49.9612 34.9631C49.8172 27.1788 49.7475 26.8035 48.4484 26.8035ZM73.6276 26.8035C73.0124 26.8035 72.833 26.6822 72.833 26.2667C72.833 25.7635 73.0049 25.7313 75.591 25.7519L78.3492 25.7739L79.6688 27.2953C80.3941 28.1319 82.7592 30.7492 84.9238 33.111C87.0886 35.4731 89.5739 38.2208 90.4466 39.2173C91.3194 40.214 92.1409 41.0292 92.2722 41.0292C92.407 41.0292 92.4743 38.2142 92.4262 34.5638L92.3413 28.0984L91.5862 27.451C91.171 27.0948 90.5356 26.8035 90.1737 26.8035C89.6924 26.8035 89.5161 26.6575 89.5161 26.2592C89.5161 25.735 89.6534 25.7176 93.2158 25.7895C96.2449 25.8507 96.9157 25.9353 96.9157 26.2557C96.9157 26.4841 96.5411 26.7239 96.0162 26.8309C95.5217 26.9319 94.9766 27.1541 94.8054 27.3248C94.5843 27.5452 94.4718 30.3944 94.417 37.1504L94.3398 46.6656H93.56C92.8886 46.6656 92.0894 45.9094 87.8168 41.2304C85.0869 38.2408 81.9005 34.6879 80.7359 33.335C79.571 31.9819 78.5273 30.8646 78.4164 30.8523C78.104 30.8173 78.1796 42.906 78.499 44.0535C78.7481 44.9477 78.9194 45.1017 79.9777 45.3842C80.8299 45.6115 81.1746 45.8421 81.1746 46.1846C81.1746 46.6244 80.8497 46.6656 77.4074 46.6656C73.9034 46.6656 73.6403 46.6306 73.6403 46.1625C73.6403 45.8198 73.8938 45.6088 74.4353 45.5006C76.0784 45.1729 76.1875 44.6527 76.2797 36.7006C76.3313 32.2469 76.2555 29.1307 76.0792 28.4782C75.7696 27.3307 74.9979 26.8035 73.6276 26.8035ZM101.842 26.8035C101.266 26.8035 101.087 26.6761 101.087 26.2667C101.087 25.7538 101.266 25.7299 105.123 25.7299C108.979 25.7299 109.159 25.7538 109.159 26.2667C109.159 26.6605 108.979 26.8035 108.486 26.8035C108.116 26.8035 107.566 27.05 107.264 27.3511C106.731 27.8828 106.718 28.1472 106.794 36.3648C106.868 44.3867 106.899 44.8508 107.394 45.2115C107.681 45.4208 108.196 45.5921 108.538 45.5921C108.979 45.5921 109.159 45.7469 109.159 46.129C109.159 46.6419 108.979 46.6656 105.123 46.6656C101.358 46.6656 101.087 46.6319 101.087 46.1633C101.087 45.7854 101.351 45.6185 102.153 45.4906C103.745 45.2367 103.826 44.7167 103.727 35.4377C103.648 28.0069 103.613 27.5435 103.12 27.1841C102.833 26.9748 102.258 26.8035 101.842 26.8035ZM129.997 26.8035C129.629 26.8035 129.349 26.5993 129.262 26.2667C129.126 25.7476 129.254 25.7299 133.132 25.7299C136.964 25.7299 137.143 25.7538 137.143 26.2667C137.143 26.6793 136.964 26.8035 136.369 26.8035C134.675 26.8035 134.713 27.1106 137.277 34.13C138.581 37.7031 139.849 41.0973 140.092 41.6725L140.535 42.7185L142.59 37.2438C145.009 30.7994 145.324 29.6076 144.913 28.4323C144.626 27.6131 143.513 26.8035 142.673 26.8035C142.435 26.8035 142.256 26.5727 142.256 26.2667C142.256 25.753 142.435 25.7299 146.427 25.7299C150.418 25.7299 150.597 25.753 150.597 26.2667C150.597 26.6487 150.418 26.8035 149.976 26.8035C148.845 26.8035 148.346 27.4053 148.508 28.5745C148.676 29.7781 153.304 42.7133 153.498 42.5198C153.813 42.205 158.939 28.2801 158.939 27.7373C158.939 27.087 158.483 26.8035 157.437 26.8035C156.966 26.8035 156.786 26.6557 156.786 26.2667C156.786 25.7597 156.966 25.7299 160.015 25.7299C162.754 25.7299 163.244 25.7933 163.244 26.1465C163.244 26.3757 162.909 26.6798 162.498 26.8223C161.576 27.1431 161.344 27.5092 160.187 30.4748C159.679 31.7771 158.089 35.8529 156.653 39.5317C155.218 43.2108 153.981 46.3815 153.906 46.5775C153.83 46.7738 153.385 46.9342 152.917 46.9342H152.065L150.132 41.9015C149.069 39.1338 147.813 35.8546 147.341 34.6146C146.533 32.4898 146.465 32.3975 146.161 33.004C145.983 33.3583 144.706 36.6433 143.322 40.3042L140.807 46.9604L139.868 46.8802L138.929 46.8L135.349 37.4267C133.348 32.1898 131.509 27.7773 131.18 27.4284C130.856 27.0846 130.324 26.8035 129.997 26.8035ZM183.8 26.9174C183.755 26.8154 183.755 26.449 183.755 26.449C183.755 26.449 183.745 26.3168 183.801 26.2463C183.856 26.1761 183.875 26.1742 184.073 26.1554L184.075 26.1552C184.802 26.086 186.259 25.9696 187.476 25.9165C187.587 25.9116 187.711 25.906 187.846 25.8999L187.848 25.8997L187.85 25.8996L187.851 25.8996C189.19 25.8388 191.585 25.7575 193.232 25.8398C196.391 25.9979 198.638 27.5265 199.404 30.0527C200.17 32.5788 199.765 34.95 198.721 36.4594C197.677 37.9687 195.922 39.2683 193.005 39.1838C190.596 39.114 189.952 38.6625 189.437 38.3019C189.328 38.2256 189.225 38.1533 189.113 38.0898V41.3113C189.138 43.5083 189.156 44.5635 189.326 44.9542C189.555 45.48 190.073 45.804 191.081 46.0523C191.081 46.0523 191.538 46.1594 191.655 46.2735C191.773 46.3877 191.773 46.6413 191.773 46.6413C191.773 46.6413 191.797 46.8783 191.703 46.9992C191.608 47.12 191.425 47.0958 191.425 47.0958L186.959 47.0598L184.266 47.0527C184.266 47.0527 183.984 47.1069 183.878 46.9931C183.772 46.8792 183.782 46.6419 183.782 46.6419C183.782 46.6419 183.805 46.3863 183.929 46.2719C184.052 46.1573 184.512 46.0294 184.512 46.0294C185.55 45.7375 186.001 45.4288 186.236 44.8471C186.426 44.3781 186.427 43.5085 186.425 36.4121C186.423 29.6823 186.413 28.4269 186.259 28.0659C186.031 27.5314 185.46 27.3898 184.647 27.1882L184.646 27.1881C184.485 27.1482 184.314 27.1058 184.135 27.0576C184.135 27.0576 183.845 27.0193 183.8 26.9174ZM196.805 32.4088C196.805 33.5123 196.785 35.24 195.612 36.3444C194.438 37.4488 192.127 37.751 190.559 37.4435C190.064 37.3467 189.782 37.1973 189.564 37.0821L189.542 37.0706L189.14 36.859L189.117 32.9817C189.103 30.5523 189.128 28.9695 189.185 28.7432C189.237 27.4623 191.125 27.3029 192.047 27.3503C195.993 27.3503 196.689 30.6783 196.805 32.4088ZM171.41 25.8803C171.41 25.8803 171.217 25.9543 170.925 26.0652L169.872 26.6099L169.113 28.5059C168.696 29.5487 167.932 31.4629 167.417 32.7598C166.478 35.1219 165.858 36.6737 165.205 38.2935C165.013 38.77 164.433 40.2208 163.917 41.5177C163.401 42.8144 162.884 44.0485 162.77 44.2602C162.751 44.2954 162.731 44.3333 162.709 44.3733C162.421 44.9167 161.919 45.8604 161.033 46.0031C161.033 46.0031 160.546 46.051 160.366 46.2294C160.185 46.4079 160.203 46.5538 160.203 46.5538V46.7785C160.203 46.7785 160.219 46.8875 160.321 46.9417C160.423 46.996 160.562 46.9992 160.562 46.9992L163.802 46.9623H167.152C167.152 46.9623 167.389 46.99 167.48 46.9142C167.571 46.8383 167.597 46.7258 167.597 46.7258V46.4892C167.597 46.4892 167.55 46.2325 167.417 46.1323C167.285 46.0323 166.788 45.9638 166.788 45.9638C165.447 45.7873 165.216 44.7721 165.381 43.8592C165.463 43.4106 166.002 41.7515 166.608 40.081L166.818 39.5038L170.328 39.4769C172.258 39.4621 173.925 39.4721 174.031 39.4992C174.184 39.5377 174.397 39.9713 175.023 41.5154C175.972 43.855 176.048 44.14 175.838 44.5777C175.825 44.6044 175.811 44.6338 175.797 44.6654C175.6 45.0888 175.217 45.9113 174.252 45.995C174.252 45.995 173.741 46.0127 173.613 46.1658C173.486 46.3192 173.514 46.4954 173.514 46.4954V46.7296C173.514 46.7296 173.548 46.8669 173.613 46.9213C173.679 46.9756 173.79 46.9619 173.79 46.9619L176.976 46.939L181.454 46.9388C181.454 46.9388 181.63 46.9575 181.678 46.89C181.725 46.8223 181.735 46.7427 181.735 46.7427V46.4317C181.735 46.4317 181.716 46.2663 181.63 46.175C181.544 46.084 180.963 45.9877 180.963 45.9877C180.221 45.8679 179.852 45.255 179.576 44.7985C179.506 44.6821 179.442 44.5758 179.38 44.4906C179.252 44.3167 178.797 43.3633 178.44 42.4465C178.084 41.5296 177.279 39.4583 176.652 37.844C176.026 36.2296 175.151 33.9775 174.709 32.8396C174.266 31.7015 173.426 29.536 172.841 28.0275C172.745 27.7799 172.659 27.5575 172.582 27.3584L172.582 27.3575C172.189 26.3444 172.031 25.9356 171.988 25.8803C171.847 25.7006 171.41 25.8803 171.41 25.8803ZM171.201 32.045C171.06 31.701 170.811 31.084 170.649 30.6738C170.353 29.9281 170.241 29.7564 170.149 29.9104C170.123 29.9554 169.937 30.465 169.736 31.0429C168.437 34.7846 167.849 36.4694 167.731 36.7869C167.657 36.9865 167.597 37.1921 167.597 37.244C167.597 37.3035 168.653 37.3383 170.463 37.3383C172.039 37.3383 173.329 37.3188 173.329 37.2948C173.329 37.2708 173.188 36.9138 173.016 36.5008C172.845 36.0879 172.424 35.0573 172.081 34.2104C171.739 33.3635 171.343 32.3892 171.201 32.045Z" fill="#4AFEBF"/>
</svg>