<svg xmlns="http://www.w3.org/2000/svg" width="205" height="69" viewBox="0 0 205 69" fill="none">
                        <path fill-rule="evenodd" clip-rule="evenodd" d="M0.783199 9.98066C5.77379 16.1052 11.2533 23.7995 12.1396 25.044C12.1869 25.1103 12.2211 25.1583 12.2414 25.1868C12.7139 25.8471 13.1039 26.3379 13.4001 26.7107L13.4002 26.7107C14.0577 27.5382 14.2528 27.7837 13.8604 28.0093C13.544 28.1911 13.2175 28.2511 12.8917 28.2511C12.5233 28.2511 12.1081 28.0717 11.8059 27.7818C11.5922 27.5769 10.1303 25.43 8.13955 22.3068C6.61639 19.917 5.34167 17.9346 5.3069 17.9014C5.2265 17.8246 5.22788 17.8272 7.98426 22.814C9.71501 25.9453 10.8989 28.2593 10.8989 28.4074C10.8989 28.7085 10.8177 28.8668 10.4503 29.2811C9.83782 29.9721 9.56403 30.7483 9.3664 32.3548C9.14484 34.1556 8.52182 35.4279 6.79524 37.605C5.78457 38.8796 5.6192 39.1131 5.36417 39.6269C5.04296 40.2738 4.95462 40.636 4.91882 41.4529C4.88099 42.3167 4.95468 42.8746 5.21564 43.7002C5.44411 44.4231 5.68257 44.9006 6.2922 45.8554C6.81832 46.6792 7.12126 47.2915 7.12126 47.531C7.12126 47.7217 7.15724 47.7219 7.9725 47.5358C9.92351 47.0902 11.5077 46.3069 12.3987 45.3467C12.9501 44.7523 13.0796 44.4242 13.0838 43.6098C13.0865 43.0771 13.068 42.9656 12.9256 42.6592C12.6938 42.1602 12.2718 41.7456 11.3416 41.1027C10.1229 40.2602 9.60234 39.5821 9.45855 38.6494C9.34061 37.8842 9.47745 37.3442 10.1517 35.9154C10.8495 34.4365 11.0224 33.8063 11.1394 32.3154C11.215 31.3523 11.3196 30.9725 11.5933 30.6677C11.8787 30.3498 12.1357 30.2421 12.842 30.1444C13.9936 29.9854 14.7269 29.6841 15.3296 29.1225C15.8525 28.6354 16.0713 28.1659 16.1049 27.4592L16.1304 26.9236L15.8382 26.5791C14.78 25.3316 0.0745555 9 0.00943597 9C-0.00447542 9 0.343732 9.44133 0.783199 9.98066ZM7.71526 42.4302C7.95452 42.0017 7.8274 41.451 7.42719 41.1819C7.04906 40.9277 6.46167 41.0475 6.46167 41.3788C6.46167 41.4798 6.51695 41.5533 6.64157 41.6183C6.85137 41.7275 6.86661 41.8502 6.70153 42.101C6.53435 42.3552 6.54783 42.5785 6.73959 42.7302C7.04865 42.975 7.48613 42.8404 7.71526 42.4302ZM14.9164 19.0676C14.4443 18.9936 14.4244 18.9849 14.6466 18.9504C15.0723 18.8841 16.0776 18.9744 16.7704 19.1409C18.3876 19.5296 19.8592 20.5254 21.43 22.2938L21.8473 22.7636L22.4444 22.6666C24.9595 22.2579 27.5181 22.5827 29.6581 23.5823C30.2469 23.8573 31.1751 24.4047 31.291 24.5454C31.3279 24.5902 31.3959 24.8789 31.4417 25.1868C31.6007 26.2522 31.5212 27.0688 31.1988 27.6788C31.0236 28.0107 31.0138 28.1159 31.1316 28.3999C31.2257 28.6266 31.4881 28.7944 31.748 28.794C32.2798 28.7933 32.8521 27.924 33.1175 26.7145L33.2228 26.2341L33.4315 26.4731C34.5761 27.7846 35.4754 29.573 35.6298 30.846L35.67 31.1779L35.4777 30.8763C35.1464 30.3571 34.8138 30.0035 34.3876 29.7185C33.6196 29.2046 32.8074 29.0297 30.6567 28.9151C28.7141 28.8116 27.6148 28.6439 26.5247 28.2844C24.6698 27.673 23.7349 26.8586 21.5316 23.9358C20.5531 22.6376 19.9482 21.9194 19.3465 21.3409C17.9794 20.0266 16.636 19.3373 14.9164 19.0676ZM31.7291 21.9662C31.778 21.0963 31.8948 20.5225 32.1293 19.9985C32.2221 19.7911 32.3091 19.6213 32.3224 19.6213C32.336 19.6213 32.2956 19.7744 32.2327 19.9615C32.0623 20.47 32.0342 21.1656 32.1518 21.9749C32.3008 23.0017 32.3857 23.1499 33.459 24.2591C33.9624 24.7793 34.548 25.4355 34.7603 25.7172L35.1464 26.2294L34.7603 25.8634C34.2883 25.4157 33.2028 24.5426 32.963 24.4178C32.8022 24.3341 32.7782 24.3356 32.6792 24.4354C32.5878 24.5274 32.5684 24.6656 32.5557 25.3189C32.536 26.3372 32.3988 26.9907 32.0675 27.6443C31.8883 27.9977 31.86 27.9223 32.0221 27.5233C32.1433 27.2254 32.1555 27.0945 32.1547 26.1088C32.1528 24.1282 31.9202 23.652 30.5564 22.8364C30.2111 22.6297 29.6417 22.3317 29.2914 22.1741C28.9414 22.0165 28.6631 21.8792 28.6731 21.8689C28.7118 21.83 30.0419 22.2226 30.5772 22.4308C31.3734 22.7405 31.5048 22.7806 31.6015 22.7432C31.6663 22.7182 31.6977 22.5273 31.7291 21.9662ZM14.4105 20.4457C14.2821 21.9748 14.8751 24.0203 15.8334 25.3544C16.5764 26.3886 17.728 27.1922 18.5782 27.2699C19.1349 27.3207 19.3022 27.1444 19.0504 26.7726C18.7007 26.2562 18.2707 25.4612 18.1569 25.1208C18.0862 24.9094 17.9326 24.2848 17.8155 23.7328C17.4157 21.8485 17.0227 21.1146 16.1151 20.5573C15.7843 20.3541 15.078 20.0883 14.6683 20.0127L14.4502 19.9725L14.4105 20.4457ZM30.5668 35.2835C26.0879 33.4602 24.5104 31.8775 24.5104 29.207C24.5104 28.814 24.5239 28.4925 24.5401 28.4925C24.5566 28.4925 24.7297 28.6222 24.9252 28.7807C25.8334 29.5173 26.8504 29.8319 29.666 30.2471C31.3227 30.4917 32.255 30.689 33.1152 30.9775C35.8488 31.8942 37.5401 33.7544 37.9435 36.2883C38.0606 37.0246 37.992 38.4052 37.8019 39.1329C37.6519 39.7077 37.194 40.7435 37.0727 40.7833C37.039 40.7944 37.0059 40.664 36.9974 40.4865C36.9514 39.535 36.4758 38.6088 35.6773 37.9148C34.7693 37.1258 33.5493 36.4979 30.5668 35.2835ZM27.2061 35.0829C27.269 35.2723 27.3664 35.7033 27.4223 36.041C27.7811 38.1998 26.6604 39.944 24.4804 40.6198C24.2496 40.6913 23.3406 40.8713 22.4602 41.0194C20.6782 41.3194 19.8828 41.5319 19.0838 41.921C18.5172 42.1971 17.8312 42.6104 17.8719 42.6515C17.8851 42.6648 18.0144 42.6335 18.1593 42.5821C19.1669 42.2244 20.2883 42.0392 21.992 41.9496C22.6681 41.9142 23.4371 41.8575 23.701 41.824C25.2188 41.6306 26.2708 41.1644 27.0889 40.3225C27.5441 39.854 27.8155 39.4175 28.0342 38.8021C28.1728 38.4117 28.1915 38.2667 28.1926 37.575C28.1938 36.8702 28.177 36.7413 28.0267 36.3077C27.83 35.7394 27.598 35.3129 27.3041 34.9794L27.0919 34.7385L27.2061 35.0829ZM29.4756 39.7279C28.8804 38.4344 28.7439 37.1856 29.0698 36.021C29.1048 35.8965 29.1607 35.7946 29.1947 35.7946C29.2284 35.7946 29.3686 35.8715 29.5066 35.9652C29.7807 36.1519 30.3308 36.4663 31.7959 37.274C33.6244 38.2819 34.6669 39.0623 35.3757 39.9542C35.9965 40.735 36.3807 41.6244 36.5655 42.709C36.6704 43.3233 36.609 44.8017 36.4531 45.4202C35.9616 47.3708 34.819 48.9029 33.1895 49.7971C32.9507 49.9279 32.7364 50.0354 32.7131 50.036C32.69 50.0365 32.777 49.8129 32.9064 49.539C33.4546 48.3802 33.517 47.2531 33.1027 45.9988C32.8488 45.2306 32.3314 44.2933 31.2867 42.7092C30.0721 40.8675 29.7743 40.3773 29.4756 39.7279ZM18.2665 43.9704C16.3828 44.2798 14.3148 45.2877 12.6528 46.7067L12.1579 47.1292L12.5928 47.1979C14.8621 47.556 15.4732 47.8738 17.0473 49.5133C17.9531 50.4567 18.2591 50.6667 19.0104 50.8606C20.114 51.1454 21.2017 50.6221 21.5749 49.6267C21.7416 49.1819 21.7193 48.4454 21.5281 48.0756C21.0731 47.195 19.7477 46.9104 19.1068 47.5554C18.5729 48.0927 18.7284 48.9021 19.3924 49.0413C19.5444 49.0733 19.5401 49.0665 19.3537 48.9813C19.0631 48.8483 18.9369 48.6642 18.9352 48.371C18.9315 47.6838 19.7094 47.2979 20.433 47.6279C20.9628 47.8698 21.1732 48.1856 21.1732 48.7394C21.1732 49.5921 20.4555 50.2346 19.6202 50.1296C19.1737 50.0733 18.6277 49.7846 18.3349 49.45C17.5982 48.6077 17.8852 47.2785 18.9138 46.7685C19.6968 46.3804 20.7377 46.476 21.5449 47.0104C22.4723 47.6246 22.8667 48.1858 23.6654 50.0279C23.9256 50.6277 24.2602 51.3029 24.409 51.5283C25.1657 52.6735 26.0723 53.2352 27.1643 53.2352C27.7666 53.2352 28.2196 53.124 28.7897 52.8363C29.2132 52.6223 29.8136 52.2158 29.7703 52.1723C29.758 52.16 29.5824 52.2152 29.3799 52.295C28.1876 52.7652 26.9755 52.7329 26.2717 52.2119C25.8284 51.884 25.4708 51.2306 25.2871 50.4135C25.2552 50.2721 25.1503 49.6475 25.0538 49.0254C24.809 47.4488 24.5741 46.74 24.0261 45.9267C23.4654 45.0946 22.3876 44.3963 21.1826 44.0844C20.4308 43.8898 19.0784 43.8369 18.2665 43.9704ZM15.6283 31.7802C15.791 31.1727 16.3165 30.5933 16.8571 30.4254C17.2009 30.3188 17.9115 30.3869 18.2456 30.5585C18.893 30.8915 19.3631 31.6496 19.2611 32.1969C19.1367 32.8642 18.0664 33.3981 16.8352 33.4069C16.2064 33.4113 15.9742 33.3258 15.734 33.0017C15.5854 32.8008 15.5291 32.1508 15.6283 31.7802ZM18.0802 30.7965C18.4031 30.9958 18.4862 31.2906 18.2963 31.5633C18.1656 31.7513 17.7607 31.9298 17.4648 31.9298C17.0203 31.9298 16.5354 31.6106 16.5354 31.3183C16.5354 30.731 17.4653 30.4167 18.0802 30.7965ZM114.584 32.4781C113.579 29.1339 115.236 26.3599 118.77 25.4685C119.784 25.2127 124.373 25.3281 125.16 25.6293C125.448 25.7396 125.574 26.1631 125.577 27.0336C125.579 27.7191 125.653 28.5517 125.742 28.8837C125.878 29.387 125.799 29.486 125.268 29.4779C124.788 29.4704 124.498 29.1889 124.093 28.3373C123.446 26.977 122.662 26.5443 120.836 26.5392C118.506 26.5325 116.8 28.1035 117.078 30.0017C117.259 31.2369 118.491 32.4523 121.258 34.1231C123.891 35.7125 125.427 37.0196 126.039 38.1906C127.676 41.3215 126.278 44.6719 122.631 46.36C120.759 47.2265 117.621 47.316 115.415 46.566L114.002 46.0856V43.826C114.002 41.7796 114.051 41.566 114.517 41.566C114.907 41.566 115.075 41.824 115.212 42.6319C115.552 44.6408 117.077 45.8604 119.25 45.8604C121.377 45.8604 122.865 44.6967 123.435 42.5865C123.677 41.6875 123.635 41.356 123.154 40.3644C122.577 39.1754 121.584 38.3865 118.21 36.4381C116.338 35.3569 115.014 33.9113 114.584 32.4781ZM48.4486 26.8035C47.9882 26.8035 47.8086 26.653 47.8086 26.2667C47.8086 25.7554 47.9882 25.7299 51.5955 25.7299C54.9437 25.7299 55.3722 25.7804 55.2954 26.165C55.2473 26.4044 54.7847 26.7365 54.2667 26.9031L53.3247 27.2061L53.2444 34.0506C53.1905 38.6177 53.2663 41.2523 53.4717 41.9685C54.0825 44.0988 55.9458 45.3238 58.5747 45.3238C60.4049 45.3238 61.474 44.8954 62.8171 43.6233C64.2619 42.2558 64.4923 40.9565 64.4877 34.2031C64.4833 27.5417 64.3674 26.992 62.9383 26.8537C62.2879 26.7907 62.07 26.639 62.07 26.2498C62.07 25.7645 62.2846 25.7299 65.2989 25.7299C68.3485 25.7299 68.5279 25.7597 68.5279 26.2667C68.5279 26.5974 68.347 26.8051 68.0569 26.8076C66.8107 26.8186 66.7878 26.9373 66.6201 34.2417C66.4461 41.8271 66.2835 42.7252 64.7478 44.5833C64.305 45.1194 63.2488 45.8977 62.4009 46.3131C61.0192 46.99 60.5797 47.0677 58.1682 47.0633C55.9453 47.0588 55.2436 46.9513 54.132 46.4448C52.5095 45.7054 51.4544 44.7485 50.6765 43.3106C50.1335 42.3069 50.0871 41.7638 49.9614 34.9631C49.8173 27.1788 49.7476 26.8035 48.4486 26.8035ZM73.6278 26.8035C73.0126 26.8035 72.8332 26.6822 72.8332 26.2667C72.8332 25.7635 73.0051 25.7313 75.5911 25.7519L78.3493 25.7739L79.669 27.2953C80.3942 28.1319 82.7593 30.7492 84.9239 33.111C87.0887 35.4731 89.5741 38.2208 90.4467 39.2173C91.3195 40.214 92.141 41.0292 92.2723 41.0292C92.4072 41.0292 92.4744 38.2142 92.4263 34.5638L92.3414 28.0984L91.5863 27.451C91.1711 27.0948 90.5358 26.8035 90.1739 26.8035C89.6925 26.8035 89.5162 26.6575 89.5162 26.2592C89.5162 25.735 89.6536 25.7176 93.2159 25.7895C96.245 25.8507 96.9158 25.9353 96.9158 26.2557C96.9158 26.4841 96.5412 26.7239 96.0163 26.8309C95.5218 26.9319 94.9768 27.1541 94.8055 27.3248C94.5845 27.5452 94.4719 30.3944 94.4171 37.1504L94.3399 46.6656H93.5601C92.8887 46.6656 92.0896 45.9094 87.8169 41.2304C85.0871 38.2408 81.9006 34.6879 80.736 33.335C79.5712 31.9819 78.5274 30.8646 78.4165 30.8523C78.1041 30.8173 78.1797 42.906 78.4991 44.0535C78.7483 44.9477 78.9195 45.1017 79.9778 45.3842C80.83 45.6115 81.1747 45.8421 81.1747 46.1846C81.1747 46.6244 80.8498 46.6656 77.4076 46.6656C73.9035 46.6656 73.6405 46.6306 73.6405 46.1625C73.6405 45.8198 73.8939 45.6088 74.4355 45.5006C76.0785 45.1729 76.1876 44.6527 76.2798 36.7006C76.3314 32.2469 76.2556 29.1307 76.0794 28.4782C75.7697 27.3307 74.998 26.8035 73.6278 26.8035ZM101.843 26.8035C101.266 26.8035 101.087 26.6761 101.087 26.2667C101.087 25.7538 101.266 25.7299 105.123 25.7299C108.979 25.7299 109.159 25.7538 109.159 26.2667C109.159 26.6605 108.979 26.8035 108.486 26.8035C108.116 26.8035 107.567 27.05 107.265 27.3511C106.732 27.8828 106.718 28.1472 106.794 36.3648C106.868 44.3867 106.899 44.8508 107.394 45.2115C107.681 45.4208 108.196 45.5921 108.538 45.5921C108.979 45.5921 109.159 45.7469 109.159 46.129C109.159 46.6419 108.979 46.6656 105.123 46.6656C101.358 46.6656 101.087 46.6319 101.087 46.1633C101.087 45.7854 101.351 45.6185 102.153 45.4906C103.745 45.2367 103.826 44.7167 103.727 35.4377C103.648 28.0069 103.614 27.5435 103.121 27.1841C102.833 26.9748 102.258 26.8035 101.843 26.8035ZM129.997 26.8035C129.629 26.8035 129.349 26.5993 129.262 26.2667C129.126 25.7476 129.254 25.7299 133.132 25.7299C136.964 25.7299 137.143 25.7538 137.143 26.2667C137.143 26.6793 136.964 26.8035 136.369 26.8035C134.675 26.8035 134.713 27.1106 137.277 34.13C138.582 37.7031 139.849 41.0973 140.092 41.6725L140.535 42.7185L142.59 37.2438C145.009 30.7994 145.324 29.6076 144.913 28.4323C144.627 27.6131 143.513 26.8035 142.673 26.8035C142.435 26.8035 142.256 26.5727 142.256 26.2667C142.256 25.753 142.435 25.7299 146.427 25.7299C150.418 25.7299 150.597 25.753 150.597 26.2667C150.597 26.6487 150.418 26.8035 149.976 26.8035C148.845 26.8035 148.346 27.4053 148.509 28.5745C148.676 29.7781 153.304 42.7133 153.498 42.5198C153.814 42.205 158.939 28.2801 158.939 27.7373C158.939 27.087 158.483 26.8035 157.437 26.8035C156.966 26.8035 156.786 26.6557 156.786 26.2667C156.786 25.7597 156.966 25.7299 160.015 25.7299C162.754 25.7299 163.244 25.7933 163.244 26.1465C163.244 26.3757 162.909 26.6798 162.499 26.8223C161.576 27.1431 161.345 27.5092 160.187 30.4748C159.679 31.7771 158.089 35.8529 156.653 39.5317C155.218 43.2108 153.981 46.3815 153.906 46.5775C153.83 46.7738 153.386 46.9342 152.917 46.9342H152.065L150.132 41.9015C149.069 39.1338 147.813 35.8546 147.342 34.6146C146.533 32.4898 146.465 32.3975 146.161 33.004C145.983 33.3583 144.706 36.6433 143.322 40.3042L140.807 46.9604L139.868 46.8802L138.93 46.8L135.349 37.4267C133.348 32.1898 131.509 27.7773 131.18 27.4284C130.856 27.0846 130.324 26.8035 129.997 26.8035ZM183.8 26.9174C183.755 26.8154 183.756 26.449 183.756 26.449C183.756 26.449 183.745 26.3168 183.801 26.2463C183.856 26.1761 183.875 26.1742 184.073 26.1554L184.075 26.1552C184.802 26.086 186.259 25.9696 187.476 25.9165C187.587 25.9116 187.711 25.906 187.846 25.8999L187.848 25.8997L187.85 25.8996L187.851 25.8996C189.19 25.8388 191.586 25.7575 193.232 25.8398C196.391 25.9979 198.638 27.5265 199.404 30.0527C200.17 32.5788 199.765 34.95 198.721 36.4594C197.677 37.9687 195.922 39.2683 193.005 39.1838C190.597 39.114 189.952 38.6625 189.437 38.3019C189.328 38.2256 189.225 38.1533 189.113 38.0898V41.3113C189.138 43.5083 189.156 44.5635 189.326 44.9542C189.555 45.48 190.073 45.804 191.081 46.0523C191.081 46.0523 191.538 46.1594 191.655 46.2735C191.773 46.3877 191.773 46.6413 191.773 46.6413C191.773 46.6413 191.797 46.8783 191.703 46.9992C191.608 47.12 191.425 47.0958 191.425 47.0958L186.959 47.0598L184.266 47.0527C184.266 47.0527 183.984 47.1069 183.878 46.9931C183.772 46.8792 183.782 46.6419 183.782 46.6419C183.782 46.6419 183.805 46.3863 183.929 46.2719C184.052 46.1573 184.512 46.0294 184.512 46.0294C185.551 45.7375 186.001 45.4288 186.236 44.8471C186.426 44.3781 186.427 43.5085 186.425 36.4121C186.423 29.6823 186.414 28.4269 186.259 28.0659C186.031 27.5314 185.46 27.3898 184.647 27.1882L184.646 27.1881C184.485 27.1482 184.314 27.1058 184.135 27.0576C184.135 27.0576 183.845 27.0193 183.8 26.9174ZM196.805 32.4088C196.805 33.5123 196.785 35.24 195.612 36.3444C194.438 37.4488 192.127 37.751 190.559 37.4435C190.064 37.3467 189.782 37.1973 189.564 37.0821L189.542 37.0706L189.141 36.859L189.117 32.9817C189.103 30.5523 189.128 28.9695 189.185 28.7432C189.238 27.4623 191.125 27.3029 192.047 27.3503C195.993 27.3503 196.69 30.6783 196.805 32.4088ZM171.41 25.8803C171.41 25.8803 171.217 25.9543 170.925 26.0652L169.872 26.6099L169.113 28.5059C168.696 29.5487 167.932 31.4629 167.417 32.7598C166.478 35.1219 165.858 36.6737 165.205 38.2935C165.013 38.77 164.434 40.2208 163.917 41.5177C163.401 42.8144 162.885 44.0485 162.77 44.2602C162.751 44.2954 162.731 44.3333 162.71 44.3733C162.421 44.9167 161.919 45.8604 161.033 46.0031C161.033 46.0031 160.546 46.051 160.366 46.2294C160.185 46.4079 160.203 46.5538 160.203 46.5538V46.7785C160.203 46.7785 160.219 46.8875 160.321 46.9417C160.424 46.996 160.562 46.9992 160.562 46.9992L163.803 46.9623H167.152C167.152 46.9623 167.389 46.99 167.48 46.9142C167.572 46.8383 167.597 46.7258 167.597 46.7258V46.4892C167.597 46.4892 167.55 46.2325 167.418 46.1323C167.285 46.0323 166.788 45.9638 166.788 45.9638C165.447 45.7873 165.216 44.7721 165.382 43.8592C165.463 43.4106 166.002 41.7515 166.609 40.081L166.819 39.5038L170.328 39.4769C172.258 39.4621 173.925 39.4721 174.032 39.4992C174.184 39.5377 174.397 39.9713 175.023 41.5154C175.972 43.855 176.048 44.14 175.838 44.5777C175.825 44.6044 175.812 44.6338 175.797 44.6654C175.6 45.0888 175.217 45.9113 174.253 45.995C174.253 45.995 173.741 46.0127 173.614 46.1658C173.486 46.3192 173.514 46.4954 173.514 46.4954V46.7296C173.514 46.7296 173.548 46.8669 173.614 46.9213C173.679 46.9756 173.791 46.9619 173.791 46.9619L176.976 46.939L181.454 46.9388C181.454 46.9388 181.63 46.9575 181.678 46.89C181.725 46.8223 181.735 46.7427 181.735 46.7427V46.4317C181.735 46.4317 181.716 46.2663 181.63 46.175C181.544 46.084 180.963 45.9877 180.963 45.9877C180.221 45.8679 179.852 45.255 179.577 44.7985C179.506 44.6821 179.442 44.5758 179.38 44.4906C179.252 44.3167 178.797 43.3633 178.44 42.4465C178.084 41.5296 177.279 39.4583 176.653 37.844C176.026 36.2296 175.151 33.9775 174.709 32.8396C174.266 31.7015 173.426 29.536 172.841 28.0275C172.745 27.7799 172.659 27.5575 172.582 27.3584L172.582 27.3575C172.189 26.3444 172.031 25.9356 171.988 25.8803C171.847 25.7006 171.41 25.8803 171.41 25.8803ZM171.202 32.045C171.06 31.701 170.811 31.084 170.649 30.6738C170.353 29.9281 170.241 29.7564 170.15 29.9104C170.123 29.9554 169.937 30.465 169.736 31.0429C168.438 34.7846 167.849 36.4694 167.731 36.7869C167.657 36.9865 167.597 37.1921 167.597 37.244C167.597 37.3035 168.653 37.3383 170.463 37.3383C172.039 37.3383 173.329 37.3188 173.329 37.2948C173.329 37.2708 173.188 36.9138 173.017 36.5008C172.845 36.0879 172.424 35.0573 172.081 34.2104C171.739 33.3635 171.343 32.3892 171.202 32.045Z" fill="white"/>
                      </svg>