<svg xmlns="http://www.w3.org/2000/svg" width="174" height="69" viewBox="0 0 174 69" fill="none">
                        <path d="M20.1678 32.3338L19.7252 31.8811C19.3854 31.5415 18.8089 31.7782 18.8089 32.2618V38.6724C18.8089 38.9708 19.056 39.2075 19.3442 39.2075H25.758C26.2316 39.2075 26.4787 38.6313 26.1389 38.2917C25.933 38.0859 25.933 37.7463 26.1389 37.5303L32.9542 30.6977C33.1601 30.4919 33.1601 30.1524 32.9542 29.9363L32.3365 29.3189C31.9968 28.9793 32.2438 28.4031 32.7174 28.4031H39.1209C39.4194 28.4031 39.6562 28.6397 39.6562 28.9382V35.3488C39.6562 35.8221 39.0797 36.0691 38.74 35.7295L38.3076 35.2973C38.0914 35.0813 37.7619 35.0813 37.5458 35.2973L26.0463 46.7809C25.8404 46.9867 25.5006 46.9867 25.2844 46.7809L11.2215 32.7146C11.0156 32.5088 11.0053 32.1692 11.2215 31.9531L30.6893 12.4948C30.8952 12.289 30.8952 11.9392 30.6893 11.7334L26.108 7.15435C25.9021 6.94855 25.5624 6.94855 25.3462 7.15435L0.154425 32.3544C-0.0514748 32.5602 -0.0514748 32.9101 0.154425 33.1159L25.3565 58.3056C25.5624 58.5114 25.9124 58.5114 26.1183 58.3056L51.3204 33.1159C51.5263 32.9101 51.5263 32.5705 51.3204 32.3544L36.4957 17.5369C36.2898 17.3311 35.95 17.3311 35.7338 17.5369L20.9297 32.3338C20.7238 32.5396 20.384 32.5396 20.1678 32.3338ZM136.501 38.7033C135.852 38.7033 135.286 38.94 134.823 39.403C134.36 39.8764 134.123 40.4217 134.123 41.0597C134.123 42.0373 134.617 42.7987 135.605 43.3338C136.686 43.6322 137.551 43.4367 138.2 42.7678C138.673 42.2945 138.9 41.7286 138.9 41.07C138.9 40.4011 138.663 39.8455 138.2 39.3927C137.726 38.94 137.17 38.7033 136.501 38.7033ZM98.2037 20.593H96.4227C95.6506 20.593 95.0329 21.2104 95.0329 21.9822V22.97C93.1386 21.0046 91.0075 20.0271 88.6088 20.0271C85.8498 20.0271 83.5437 21.0561 81.7112 23.1038C79.8684 25.1515 78.9521 27.7137 78.9521 30.7801C78.9521 33.9082 79.8684 36.5116 81.7009 38.6107C83.554 40.6584 85.9012 41.6874 88.7323 41.6874C90.9766 41.6874 93.0768 40.7716 95.0226 38.9503V40.9054C95.0226 41.852 95.7947 42.6341 96.7418 42.6341H99.7788V22.188C99.7891 21.3133 99.0788 20.593 98.2037 20.593ZM93.7151 35.6369C92.6341 36.8408 91.2134 37.4479 89.4633 37.4479C87.8161 37.4479 86.4572 36.8203 85.3762 35.5752C84.3261 34.3404 83.7908 32.7351 83.7908 30.7801C83.7908 28.9484 84.3364 27.3947 85.4174 26.1496C86.5086 24.9148 87.8779 24.2974 89.5045 24.2974C91.234 24.2974 92.6341 24.9045 93.7151 26.129C94.7961 27.3741 95.3417 28.9587 95.3417 30.883C95.3314 32.8072 94.7858 34.3918 93.7151 35.6369ZM78.9521 24.0504V22.0233C78.9521 21.231 78.3138 20.593 77.5211 20.593H75.6474C74.8547 20.593 74.2164 21.231 74.2164 22.0233V22.9083C72.5075 20.984 70.3558 20.0168 67.7718 20.0168C64.8274 20.0168 62.4493 21.1281 60.658 23.3404C58.9902 25.4293 58.1563 27.9709 58.1563 30.955C58.1563 34.0317 59.0519 36.5939 60.8536 38.6313C62.6346 40.6584 64.9201 41.6565 67.7203 41.6565C70.1705 41.6565 72.3428 40.6996 74.2267 38.7753V41.6359C74.2267 45.8857 72.4972 48.0157 69.0278 48.0157C67.1438 48.0157 65.7128 47.3777 64.7348 46.1018C64.4877 45.7828 64.2715 45.3712 64.1068 44.8876C63.87 44.2084 63.2317 43.766 62.5213 43.766H60.73C59.8241 43.766 59.1549 44.6303 59.3814 45.505C59.8755 47.3674 60.8227 48.8801 62.2331 50.0531C64.0038 51.5246 66.2584 52.2655 68.9866 52.2655C72.2295 52.2655 74.7724 51.1953 76.6255 49.0653C77.6035 47.954 78.2624 46.6266 78.6021 45.0831C78.7153 44.5274 78.808 43.8689 78.8698 43.1383C78.9315 42.4077 78.9624 41.5536 78.9624 40.5864V37.6126C77.6344 35.6986 76.9652 33.4246 76.9652 30.7595C76.9549 28.1664 77.6241 25.9335 78.9521 24.0504ZM72.9502 35.4723C71.9001 36.7894 70.4691 37.4479 68.6572 37.4479C66.8452 37.4479 65.4245 36.7997 64.4053 35.4928C63.4685 34.2992 62.9949 32.7763 62.9949 30.9035C62.9949 29.0102 63.4685 27.4667 64.4053 26.2731C65.4451 24.9457 66.8658 24.2768 68.6572 24.2768C70.3455 24.2768 71.7251 24.8839 72.806 26.1084C73.8767 27.3021 74.412 28.897 74.412 30.883C74.4017 32.7454 73.9179 34.2786 72.9502 35.4723ZM118.33 20.6136V20.593H108.509V14.5837C108.509 13.8119 107.881 13.1843 107.109 13.1843H105.194C104.412 13.1843 103.773 13.8222 103.773 14.6043V20.593H101.755V25.0074H103.773V42.6135H106.471C107.593 42.6135 108.499 41.708 108.509 40.5864V40.5761V25.0177H113.368C113.749 24.2871 114.223 23.608 114.768 22.9906C115.767 21.8895 116.961 21.0972 118.33 20.6136ZM142.503 13.1843C141.659 13.1843 140.938 13.4827 140.341 14.0898C139.744 14.6969 139.435 15.4069 139.435 16.2404C139.435 17.115 139.734 17.8456 140.341 18.4527C140.948 19.0598 141.679 19.3582 142.534 19.3582C143.388 19.3582 144.109 19.0598 144.696 18.4527C145.303 17.8456 145.602 17.1253 145.602 16.2609C145.602 15.4069 145.303 14.6866 144.696 14.1001C144.088 13.4827 143.357 13.1843 142.503 13.1843ZM143.46 22.9185H141.741C140.856 22.9185 140.145 23.6285 140.145 24.5135V39.5471C140.506 39.969 140.681 40.4732 140.681 41.0494C140.681 41.6257 140.506 42.1402 140.145 42.562V43.4058H143.193C144.13 43.4058 144.881 42.6444 144.881 41.7183V24.3283C144.881 23.5462 144.243 22.9185 143.46 22.9185ZM165.728 25.8203C163.597 23.7314 160.993 22.6819 157.935 22.6819C154.888 22.6819 152.304 23.7212 150.183 25.7997C148.062 27.8783 147.002 30.389 147.002 33.3525C147.002 36.491 148.042 39.1046 150.121 41.1832C152.201 43.2823 154.775 44.3422 157.842 44.3422C160.941 44.3422 163.566 43.3132 165.698 41.2449C167.808 39.1664 168.879 36.5939 168.879 33.5172C168.879 30.4714 167.829 27.9092 165.728 25.8203ZM162.372 38.3226C161.271 39.5162 159.788 40.1027 157.935 40.1027C156.092 40.1027 154.61 39.5059 153.488 38.2917C152.396 37.0981 151.84 35.4723 151.84 33.4349C151.84 31.5312 152.407 29.9671 153.529 28.7632C154.651 27.5593 156.113 26.9522 157.925 26.9522C159.757 26.9522 161.24 27.5593 162.362 28.7632C163.474 29.9569 164.03 31.5518 164.03 33.5378C164.04 35.534 163.484 37.1187 162.372 38.3226Z" fill="white"/>
                        <path d="M120.091 37.4891C119.113 36.5013 118.567 35.1533 118.444 33.476H132.023C132.64 33.476 133.155 32.9821 133.165 32.3647C133.165 28.9793 132.29 26.3348 130.561 24.4312C128.8 22.507 126.412 21.55 123.395 21.55C120.41 21.55 118.011 22.5378 116.199 24.5135C114.398 26.52 113.502 29.144 113.502 32.3853C113.502 35.6575 114.429 38.2814 116.282 40.2571C117.579 41.636 119.164 42.5209 121.038 42.9325C121.831 43.1177 122.644 43.2103 123.467 43.2C126.844 43.2721 129.778 43.3441 133.145 43.4058V42.9119C132.733 42.4591 132.527 41.9241 132.527 41.2964C132.527 40.679 132.743 40.1542 133.165 39.7014V39.1046C130.499 39.0429 124.054 38.9709 123.797 38.9709C122.304 38.9709 121.058 38.4769 120.091 37.4891ZM119.432 28.0224C119.73 27.5593 120.08 27.1683 120.492 26.839C120.904 26.5097 121.367 26.2525 121.872 26.0776C122.376 25.9026 122.922 25.81 123.498 25.81C126.021 25.81 127.616 27.0757 128.275 29.5967H118.752C118.917 29.0102 119.144 28.4854 119.432 28.0224Z" fill="white"/>
                      </svg>