<svg xmlns="http://www.w3.org/2000/svg" width="258" height="69" viewBox="0 0 258 69" fill="none">
<g clip-path="url(#clip0_444_1014)">
<path d="M49.7497 44.773C49.1497 44.773 48.7256 44.649 48.4772 44.4014C48.2497 44.1535 48.1359 43.7612 48.1359 43.2243V25.2905C48.1359 24.7536 48.2599 24.3613 48.5083 24.1135C48.7566 23.845 49.1703 23.7108 49.7497 23.7108H57.3534C60.25 23.7108 62.381 24.32 63.7468 25.5383C65.1123 26.7566 65.7951 28.5737 65.7951 30.9897C65.7951 33.385 65.1123 35.1917 63.7468 36.41C62.4018 37.6078 60.2707 38.2066 57.3534 38.2066H54.405V43.2243C54.405 43.7612 54.2809 44.1535 54.0326 44.4014C53.7843 44.649 53.3601 44.773 52.7601 44.773H49.7497ZM56.8569 33.7154C57.7052 33.7154 58.357 33.4882 58.8121 33.0339C59.2879 32.5797 59.5259 31.8982 59.5259 30.9897C59.5259 30.0604 59.2879 29.3687 58.8121 28.9144C58.357 28.4601 57.7052 28.233 56.8569 28.233H54.405V33.7154H56.8569Z" fill="#4AFEBF"/>
<path d="M73.1244 45.2376C71.1796 45.2376 69.6175 44.6181 68.4381 43.3793C67.2794 42.1196 66.7002 40.3542 66.7002 38.0826C66.7002 36.3481 67.0933 34.8303 67.8794 33.5295C68.6864 32.2286 69.8141 31.2272 71.2624 30.5251C72.7315 29.8023 74.4176 29.441 76.3211 29.441C77.8937 29.441 79.2799 29.6165 80.4799 29.9675C81.7006 30.2979 82.8178 30.7832 83.8317 31.4233V43.8129C83.8317 44.2052 83.7594 44.4633 83.6144 44.5871C83.4696 44.7112 83.1799 44.7731 82.7455 44.7731H79.5798C79.3522 44.7731 79.1764 44.7421 79.0523 44.68C78.9281 44.5976 78.8248 44.4736 78.742 44.3083L78.3384 43.3793C77.7384 44.0193 77.0143 44.484 76.166 44.7731C75.3384 45.0828 74.3246 45.2376 73.1244 45.2376ZM75.4522 41.0251C76.2591 41.0251 76.8901 40.8289 77.3452 40.4368C77.8004 40.0444 78.028 39.4868 78.028 38.764V33.9322C77.6351 33.7463 77.1384 33.6534 76.5384 33.6534C75.4418 33.6534 74.5624 34.0354 73.9004 34.7994C73.2589 35.5634 72.9383 36.6372 72.9383 38.0207C72.9383 40.0237 73.7761 41.0251 75.4522 41.0251Z" fill="#4AFEBF"/>
<path d="M88.1509 44.7731C87.5507 44.7731 87.1265 44.649 86.8784 44.4014C86.63 44.1536 86.506 43.7612 86.506 43.2243V30.8658C86.506 30.4941 86.568 30.2463 86.6921 30.1224C86.8369 29.9779 87.1265 29.9056 87.5611 29.9056H90.7578C91.006 29.9056 91.1923 29.9469 91.3163 30.0295C91.4612 30.0914 91.5439 30.2153 91.5647 30.4012L91.7198 31.3304C92.2992 30.7522 93.0545 30.2979 93.9854 29.9675C94.9372 29.6165 95.9924 29.441 97.1511 29.441C98.8269 29.441 100.182 29.9159 101.217 30.8658C102.251 31.795 102.768 33.1785 102.768 35.0163V43.2243C102.768 43.7612 102.644 44.1536 102.396 44.4014C102.168 44.649 101.755 44.7731 101.155 44.7731H98.1442C97.5442 44.7731 97.1098 44.649 96.8407 44.4014C96.5924 44.1536 96.4683 43.7612 96.4683 43.2243V35.4189C96.4683 34.7994 96.3337 34.3556 96.0649 34.0871C95.7958 33.8186 95.3716 33.6844 94.7924 33.6844C94.1717 33.6844 93.675 33.8496 93.3026 34.1799C92.9509 34.5103 92.7751 34.9646 92.7751 35.5429V43.2243C92.7751 43.7612 92.6509 44.1536 92.4027 44.4014C92.1751 44.649 91.7612 44.7731 91.1613 44.7731H88.1509Z" fill="#4AFEBF"/>
<path d="M113.739 45.2376C110.842 45.2376 108.607 44.5664 107.035 43.2243C105.462 41.8822 104.676 39.9309 104.676 37.3702C104.676 35.801 105.038 34.4175 105.762 33.2198C106.487 32.0221 107.531 31.0929 108.897 30.4322C110.283 29.7714 111.918 29.441 113.801 29.441C115.228 29.441 116.428 29.5752 117.401 29.8437C118.394 30.1121 119.273 30.5251 120.039 31.0826C120.266 31.2272 120.38 31.413 120.38 31.6401C120.38 31.8053 120.297 32.0221 120.132 32.2906L118.859 34.4896C118.714 34.7789 118.539 34.9234 118.332 34.9234C118.208 34.9234 118.011 34.8408 117.742 34.6756C117.183 34.3246 116.656 34.0664 116.159 33.9012C115.683 33.736 115.083 33.6534 114.359 33.6534C113.325 33.6534 112.487 33.9838 111.845 34.6446C111.225 35.3053 110.914 36.2139 110.914 37.3702C110.914 38.5473 111.235 39.4559 111.876 40.0959C112.518 40.7154 113.397 41.0251 114.514 41.0251C115.176 41.0251 115.777 40.9323 116.315 40.7463C116.852 40.5606 117.401 40.3025 117.959 39.9721C118.249 39.8068 118.456 39.7242 118.58 39.7242C118.766 39.7242 118.932 39.8687 119.077 40.158L120.473 42.5429C120.577 42.7494 120.628 42.9146 120.628 43.0384C120.628 43.2243 120.504 43.3998 120.256 43.565C119.387 44.1226 118.435 44.5355 117.401 44.804C116.387 45.0931 115.166 45.2376 113.739 45.2376Z" fill="#4AFEBF"/>
<path d="M128.497 45.2376C126.552 45.2376 124.99 44.6181 123.811 43.3793C122.652 42.1196 122.073 40.3542 122.073 38.0826C122.073 36.3481 122.466 34.8303 123.252 33.5295C124.059 32.2286 125.187 31.2272 126.635 30.5251C128.104 29.8023 129.791 29.441 131.694 29.441C133.266 29.441 134.653 29.6165 135.853 29.9675C137.073 30.2979 138.191 30.7832 139.205 31.4233V43.8129C139.205 44.2052 139.132 44.4633 138.987 44.5871C138.842 44.7112 138.553 44.7731 138.118 44.7731H134.953C134.725 44.7731 134.549 44.7421 134.425 44.68C134.301 44.5976 134.197 44.4736 134.115 44.3083L133.711 43.3793C133.111 44.0193 132.387 44.484 131.539 44.7731C130.711 45.0828 129.697 45.2376 128.497 45.2376ZM130.825 41.0251C131.632 41.0251 132.263 40.8289 132.718 40.4368C133.173 40.0444 133.401 39.4868 133.401 38.764V33.9322C133.008 33.7463 132.511 33.6534 131.911 33.6534C130.815 33.6534 129.935 34.0354 129.273 34.7994C128.632 35.5634 128.311 36.6372 128.311 38.0207C128.311 40.0237 129.149 41.0251 130.825 41.0251Z" fill="#4AFEBF"/>
<path d="M158.7 43.596C158.845 43.7612 158.917 43.9471 158.917 44.1536C158.917 44.3393 158.855 44.4943 158.731 44.6181C158.607 44.7214 158.441 44.773 158.234 44.773H153.424C153.134 44.773 152.917 44.7523 152.772 44.7111C152.648 44.649 152.513 44.5355 152.369 44.3704L148.148 38.6402V43.2243C148.148 43.7612 148.024 44.1535 147.775 44.4014C147.527 44.649 147.103 44.773 146.503 44.773H143.493C142.893 44.773 142.468 44.649 142.22 44.4014C141.992 44.1535 141.879 43.7612 141.879 43.2243V25.2905C141.879 24.7536 142.003 24.3613 142.251 24.1135C142.499 23.845 142.913 23.7108 143.493 23.7108H146.503C147.103 23.7108 147.527 23.845 147.775 24.1135C148.024 24.3613 148.148 24.7536 148.148 25.2905V35.6667L152.245 30.3392C152.369 30.174 152.503 30.0604 152.648 29.9985C152.793 29.9366 153.01 29.9056 153.3 29.9056H158.11C158.317 29.9056 158.472 29.9675 158.576 30.0914C158.7 30.1947 158.762 30.3392 158.762 30.5251C158.762 30.7316 158.69 30.9174 158.545 31.0826L153.238 37.1536L158.7 43.596Z" fill="#4AFEBF"/>
<path d="M168.777 45.2376C167.039 45.2376 165.487 44.9485 164.122 44.3705C162.777 43.7922 161.711 42.9248 160.925 41.7686C160.139 40.6123 159.746 39.1978 159.746 37.5252C159.746 34.9027 160.491 32.8997 161.981 31.5162C163.47 30.1327 165.612 29.441 168.405 29.441C171.136 29.441 173.205 30.1224 174.612 31.4853C176.04 32.8275 176.753 34.6963 176.753 37.0915C176.753 38.124 176.298 38.6402 175.388 38.6402H165.643C165.643 39.528 165.974 40.2096 166.636 40.6844C167.319 41.1594 168.343 41.3968 169.708 41.3968C170.557 41.3968 171.26 41.3246 171.819 41.1801C172.398 41.0149 172.977 40.7775 173.557 40.4677C173.805 40.3644 173.971 40.3128 174.053 40.3128C174.239 40.3128 174.395 40.4368 174.519 40.6844L175.574 42.6667C175.678 42.8734 175.729 43.0281 175.729 43.1315C175.729 43.3172 175.605 43.4929 175.357 43.6579C174.509 44.2155 173.546 44.6181 172.471 44.8659C171.395 45.1138 170.163 45.2376 168.777 45.2376ZM171.167 35.5739C171.167 34.7891 170.939 34.1799 170.484 33.7463C170.029 33.3127 169.346 33.0959 168.436 33.0959C167.525 33.0959 166.832 33.323 166.356 33.7773C165.881 34.2111 165.643 34.8098 165.643 35.5739H171.167Z" fill="#4AFEBF"/>
<path d="M187.391 45.2376C185.653 45.2376 184.008 45.0621 182.456 44.7111C180.904 44.3393 179.653 43.8231 178.701 43.1624C178.349 42.9353 178.173 42.6977 178.173 42.45C178.173 42.2848 178.235 42.1093 178.359 41.9234L179.88 39.5075C180.046 39.2597 180.211 39.1359 180.377 39.1359C180.48 39.1359 180.656 39.208 180.904 39.3525C181.67 39.7863 182.539 40.1373 183.511 40.4056C184.484 40.6742 185.446 40.8084 186.398 40.8084C187.37 40.8084 188.084 40.6639 188.539 40.3747C189.015 40.0856 189.253 39.6211 189.253 38.9809C189.253 38.3614 188.994 37.8762 188.477 37.5252C187.98 37.1741 187.039 36.7302 185.653 36.1934C183.563 35.4086 181.929 34.531 180.749 33.5605C179.59 32.5693 179.011 31.2271 179.011 29.5339C179.011 27.4896 179.746 25.9306 181.215 24.8568C182.684 23.7831 184.639 23.2462 187.08 23.2462C188.777 23.2462 190.225 23.4011 191.425 23.7108C192.646 23.9999 193.681 24.4542 194.529 25.0737C194.881 25.3421 195.057 25.5899 195.057 25.8171C195.057 25.9616 194.994 26.1268 194.87 26.3126L193.35 28.7286C193.163 28.9764 192.998 29.1003 192.853 29.1003C192.75 29.1003 192.574 29.028 192.325 28.8834C191.125 28.0988 189.698 27.7064 188.043 27.7064C187.153 27.7064 186.47 27.851 185.994 28.1401C185.518 28.4292 185.28 28.9041 185.28 29.5649C185.28 30.0192 185.405 30.3908 185.653 30.6799C185.901 30.969 186.232 31.2271 186.646 31.4543C187.08 31.6608 187.743 31.9292 188.632 32.2596L189.222 32.4764C190.753 33.0752 191.953 33.6534 192.822 34.211C193.712 34.7477 194.384 35.4189 194.839 36.2243C195.294 37.0088 195.522 38 195.522 39.1978C195.522 41.0356 194.829 42.5017 193.443 43.596C192.077 44.6904 190.06 45.2376 187.391 45.2376Z" fill="#4AFEBF"/>
<path d="M202.116 44.7731C201.806 44.7731 201.568 44.7214 201.402 44.6181C201.237 44.515 201.113 44.3084 201.03 43.9986L197.026 30.618C196.985 30.4941 196.964 30.4012 196.964 30.3393C196.964 30.0502 197.171 29.9056 197.585 29.9056H201.681C201.951 29.9056 202.146 29.9573 202.271 30.0605C202.396 30.1431 202.479 30.2876 202.519 30.4941L204.195 37.5253L206.305 31.857C206.41 31.6092 206.513 31.444 206.616 31.3614C206.74 31.2581 206.948 31.2065 207.238 31.2065H209.192C209.482 31.2065 209.679 31.2581 209.782 31.3614C209.906 31.444 210.019 31.6092 210.124 31.857L212.203 37.5253L213.91 30.4941C213.971 30.2876 214.053 30.1431 214.158 30.0605C214.261 29.9573 214.448 29.9056 214.716 29.9056H218.845C219.258 29.9056 219.465 30.0502 219.465 30.3393C219.465 30.4012 219.445 30.4941 219.403 30.618L215.369 43.9986C215.286 44.3084 215.161 44.515 214.996 44.6181C214.851 44.7214 214.623 44.7731 214.313 44.7731H211.272C210.982 44.7731 210.764 44.7214 210.619 44.6181C210.474 44.4943 210.352 44.2879 210.247 43.9986L208.199 38.3924L206.15 43.9986C206.068 44.2879 205.943 44.4943 205.778 44.6181C205.633 44.7214 205.417 44.7731 205.127 44.7731H202.116Z" fill="#4AFEBF"/>
<path d="M227.332 45.2376C225.386 45.2376 223.826 44.6181 222.645 43.3793C221.487 42.1196 220.907 40.3542 220.907 38.0826C220.907 36.3481 221.3 34.8303 222.087 33.5295C222.893 32.2286 224.021 31.2272 225.469 30.5251C226.939 29.8023 228.625 29.441 230.528 29.441C232.101 29.441 233.487 29.6165 234.687 29.9675C235.908 30.2979 237.026 30.7832 238.039 31.4233V43.8129C238.039 44.2052 237.966 44.4633 237.821 44.5871C237.676 44.7112 237.388 44.7731 236.953 44.7731H233.787C233.559 44.7731 233.384 44.7421 233.259 44.68C233.135 44.5976 233.032 44.4736 232.949 44.3083L232.546 43.3793C231.946 44.0193 231.221 44.484 230.373 44.7731C229.545 45.0828 228.532 45.2376 227.332 45.2376ZM229.66 41.0251C230.466 41.0251 231.098 40.8289 231.553 40.4368C232.009 40.0444 232.236 39.4868 232.236 38.764V33.9322C231.841 33.7463 231.346 33.6534 230.746 33.6534C229.648 33.6534 228.77 34.0354 228.107 34.7994C227.467 35.5634 227.145 36.6372 227.145 38.0207C227.145 40.0237 227.985 41.0251 229.66 41.0251Z" fill="#4AFEBF"/>
<path d="M242.327 51.0297C241.727 51.0297 241.304 50.9059 241.054 50.6581C240.826 50.4102 240.714 50.0179 240.714 49.481V31.733C241.644 31.0723 242.814 30.5251 244.22 30.0914C245.628 29.6578 247.096 29.441 248.627 29.441C254.876 29.441 258 32.0841 258 37.3702C258 39.7656 257.337 41.6756 256.014 43.1005C254.689 44.5252 252.818 45.2376 250.397 45.2376C249.714 45.2376 249.052 45.155 248.409 44.9897C247.789 44.8247 247.271 44.5976 246.858 44.3083V49.481C246.858 50.0179 246.733 50.4102 246.486 50.6581C246.238 50.9059 245.813 51.0297 245.213 51.0297H242.327ZM249.062 41.0561C249.952 41.0561 250.615 40.7258 251.048 40.0649C251.503 39.3835 251.73 38.475 251.73 37.3393C251.73 35.9972 251.462 35.0575 250.925 34.5206C250.407 33.9632 249.599 33.6844 248.504 33.6844C247.799 33.6844 247.241 33.7773 246.828 33.9632V38.888C246.828 39.5901 247.024 40.127 247.416 40.4987C247.811 40.8703 248.359 41.0561 249.062 41.0561Z" fill="#4AFEBF"/>
<path fill-rule="evenodd" clip-rule="evenodd" d="M19.6484 53.921C13.7688 53.9166 9.03272 52.5085 5.72356 49.9795C2.37469 47.4201 0.598145 43.7879 0.598145 39.678C0.598145 35.718 2.37081 32.8625 4.37656 30.9324C5.94844 29.4197 7.68305 28.451 8.89087 27.8937C8.61773 27.0572 8.27697 25.962 7.97208 24.8308C7.56414 23.3171 7.16392 21.5412 7.16392 20.2398C7.16392 18.6994 7.50043 17.1524 8.40776 15.9504C9.36639 14.6804 10.8096 14 12.5457 14C13.9026 14 15.0546 14.5023 15.9564 15.3689C16.8185 16.1972 17.3923 17.2972 17.7884 18.4439C18.4846 20.4588 18.7556 22.9902 18.8316 25.5165H20.4946C20.5707 22.9902 20.8416 20.4588 21.5379 18.4439C21.934 17.2972 22.5076 16.1972 23.3699 15.3689C24.2718 14.5023 25.4236 14 26.7805 14C28.5168 14 29.9598 14.6804 30.9185 15.9504C31.8259 17.1524 32.1624 18.6994 32.1624 20.2398C32.1624 21.5412 31.762 23.3171 31.3542 24.8308C31.0492 25.962 30.7085 27.0572 30.4354 27.8937C31.6432 28.451 33.3779 29.4197 34.9497 30.9324C36.9554 32.8625 38.728 35.718 38.728 39.678C38.728 43.7879 36.9516 47.4201 33.6027 49.9795C30.2936 52.5085 25.5573 53.9166 19.6778 53.921H19.6484ZM15.0751 37.6977C15.0751 39.6511 14.1595 40.6684 13.0301 40.6684C11.9006 40.6684 10.985 39.6511 10.985 37.6977C10.985 35.7443 11.9006 34.727 13.0301 34.727C14.1595 34.727 15.0751 35.7443 15.0751 37.6977ZM26.3231 40.6684C27.4526 40.6684 28.3681 39.6511 28.3681 37.6977C28.3681 35.7443 27.4526 34.727 26.3231 34.727C25.1936 34.727 24.278 35.7443 24.278 37.6977C24.278 39.6511 25.1936 40.6684 26.3231 40.6684Z" fill="#4AFEBF"/>
</g>
<defs>
<clipPath id="clip0_444_1014">
<rect width="258" height="40" fill="white" transform="translate(0 14)"/>
</clipPath>
</defs>
</svg>