<svg xmlns="http://www.w3.org/2000/svg" width="156" height="44" viewBox="0 0 156 44" fill="none">
<path d="M12.9095 17.0355C12.4479 16.6708 12.3694 16.0009 12.7341 15.5394L14.5398 13.2539C14.9045 12.7924 15.5743 12.7138 16.0359 13.0785V13.0785C16.4974 13.4432 16.576 14.113 16.2113 14.5746L14.4056 16.86C14.0409 17.3216 13.3711 17.4001 12.9095 17.0355V17.0355Z" fill="#4AFEBF"/>
<path d="M25.0278 21.0229C25.0278 22.96 23.4575 24.5303 21.5205 24.5303C19.5835 24.5303 18.0132 22.96 18.0132 21.0229C18.0132 19.0859 19.5835 17.5156 21.5205 17.5156C23.4575 17.5156 25.0278 19.0859 25.0278 21.0229Z" fill="#51EEDA"/>
<path fill-rule="evenodd" clip-rule="evenodd" d="M23.8458 35.3682C22.6274 36.8021 20.4141 36.8021 19.1957 35.3682L9.10788 23.4963C8.13985 22.3571 8.13984 20.6842 9.10788 19.545L10.1171 18.3573C10.6626 17.7153 11.6254 17.637 12.2674 18.1826C12.9095 18.7282 12.9877 19.6909 12.4421 20.333L11.4329 21.5206L21.5208 33.3925L24.4441 29.9521C24.9897 29.3101 25.9524 29.2319 26.5945 29.7774C27.2365 30.323 27.3147 31.2857 26.7692 31.9278L23.8458 35.3682ZM30.1524 25.5903C29.5104 25.0447 29.4322 24.082 29.9777 23.4399L31.6086 21.5206L21.5208 9.64874L19.3961 12.1491C18.8506 12.7911 17.8878 12.8694 17.2458 12.3238C16.6038 11.7782 16.5255 10.8155 17.0711 10.1734L19.1957 7.67309C20.4141 6.2392 22.6274 6.2392 23.8458 7.67309L33.9336 19.545C34.9017 20.6842 34.9017 22.3571 33.9336 23.4963L32.3028 25.4156C31.7572 26.0576 30.7945 26.1358 30.1524 25.5903Z" fill="url(#paint0_linear)"/>
<path fill-rule="evenodd" clip-rule="evenodd" d="M21.5207 3.05107C11.3202 3.05107 3.05107 11.3202 3.05107 21.5207C3.05107 31.7211 11.3202 39.9902 21.5207 39.9902C22.3632 39.9902 23.0462 40.6732 23.0462 41.5158C23.0462 42.3583 22.3632 43.0413 21.5207 43.0413C9.63512 43.0413 0 33.4062 0 21.5207C0 9.63512 9.63512 0 21.5207 0C22.3632 0 23.0462 0.683004 23.0462 1.52553C23.0462 2.36806 22.3632 3.05107 21.5207 3.05107Z" fill="url(#paint1_linear)"/>
<path fill-rule="evenodd" clip-rule="evenodd" d="M34.5106 36.7981C33.9176 36.1996 33.922 35.2337 34.5205 34.6407C37.9 31.292 39.9904 26.6519 39.9904 21.5207C39.9904 16.3895 37.9 11.7493 34.5205 8.40065C33.922 7.80763 33.9176 6.84173 34.5106 6.24325C35.1036 5.64477 36.0695 5.64035 36.668 6.23337C40.602 10.1315 43.0415 15.5426 43.0415 21.5207C43.0415 27.4987 40.602 32.9098 36.668 36.808C36.0695 37.401 35.1036 37.3966 34.5106 36.7981Z" fill="url(#paint2_linear)"/>
<path d="M30.5978 39.9968C30.5978 40.9025 29.8635 41.6367 28.9578 41.6367C28.0521 41.6367 27.3179 40.9025 27.3179 39.9968C27.3179 39.091 28.0521 38.3568 28.9578 38.3568C29.8635 38.3568 30.5978 39.091 30.5978 39.9968Z" fill="#4AFEBF"/>
<path d="M68.7696 29.9244V27.5172H60.983V23.7495H68.2882V21.3424H60.983V17.6793H68.665V15.2721H58.3037V29.9244H68.7696Z" fill="white"/>
<path d="M74.4333 29.9244V19.8143H74.4543L81.8851 29.9244H84.4806V15.2721H81.8013V25.3613H81.7804L74.3287 15.2721H71.7541V29.9244H74.4333Z" fill="white"/>
<path d="M95.0798 29.9244L101.129 15.2721H98.3033L93.7611 26.3869H93.7193L89.177 15.2721H86.3512L92.4005 29.9244H95.0798Z" fill="white"/>
<path d="M113.454 29.9244V27.5172H105.668V23.7495H112.973V21.3424H105.668V17.6793H113.35V15.2721H102.988V29.9244H113.454Z" fill="white"/>
<path d="M125.963 29.9244V27.5591H119.118V15.2721H116.439V29.9244H125.963Z" fill="white"/>
<path d="M135.073 30.1965C139.301 30.1965 142.588 26.8684 142.588 22.5983C142.588 18.3282 139.301 15 135.073 15C130.845 15 127.559 18.3282 127.559 22.5983C127.559 26.8684 130.845 30.1965 135.073 30.1965ZM135.073 27.7475C132.143 27.7475 130.28 25.3403 130.28 22.5983C130.28 19.8562 132.143 17.449 135.073 17.449C138.024 17.449 139.887 19.8562 139.887 22.5983C139.887 25.3403 138.024 27.7475 135.073 27.7475Z" fill="white"/>
<path d="M147.899 29.9244V24.817H150.809C153.258 24.817 156 23.4146 156 20.0236C156 16.6327 153.258 15.2721 150.809 15.2721H145.22V29.9244H147.899ZM147.899 17.6793H150.558C152.609 17.6793 153.3 18.7468 153.3 20.0236C153.3 21.3214 152.609 22.4099 150.558 22.4099H147.899V17.6793Z" fill="white"/>
<defs>
<linearGradient id="paint0_linear" x1="21.5208" y1="36.4436" x2="21.5208" y2="6.59767" gradientUnits="userSpaceOnUse">
<stop stop-color="#4AFEBF"/>
<stop offset="1" stop-color="#51EEDA"/>
</linearGradient>
<linearGradient id="paint1_linear" x1="11.5231" y1="0" x2="11.5231" y2="43.0413" gradientUnits="userSpaceOnUse">
<stop stop-color="#4AFEBF"/>
<stop offset="1" stop-color="#51EEDA"/>
</linearGradient>
<linearGradient id="paint2_linear" x1="38.5551" y1="37.2499" x2="38.5551" y2="5.79148" gradientUnits="userSpaceOnUse">
<stop stop-color="#4AFEBF"/>
<stop offset="1" stop-color="#51EEDA"/>
</linearGradient>
</defs>
</svg>