<svg width="273" height="606" fill="none" xmlns="http://www.w3.org/2000/svg"><g opacity=".3" clip-path="url(#clip0)"><path d="M375.62-113.57c2.93-.84 6-1.6 9-2.22 44.12-9.17 94.39 2.8 138 33 35.94 24.75 67.2 60.7 95.75 109.74 7.64 13.2 15.03 27.19 22.3 40.74 25.38 47.84 51.62 97.43 96.65 126.87 12.27 8 25.85 14.47 38.88 20.62 20.1 9.54 40.87 19.35 57.08 35.04 18.76 18.03 30.21 43.77 32.35 72.28 2 27.62-4.75 55.02-18.95 77.27-26.6 41.4-77.45 68.59-135.96 72.59-6.79.52-13.8.64-20.45.78-22.37.62-45.56 1.25-64.9 11.69-17.28 9.4-29.69 25.61-41.53 41.32-5.62 7.47-11.5 15.26-17.86 22.23-20.31 22.24-47.94 38.22-79.85 46.14a189.33 189.33 0 01-94.5-1.13c-58.65-15.8-112.2-58.66-147-117.68-10.27-17.5-18.92-36.3-27.35-54.32-8.25-17.85-16.8-36.31-26.91-53.63-17.06-28.96-46.22-65.74-88.58-76.33-5.06-1.26-10.35-2.1-15.53-2.97-11.35-1.93-23.17-3.84-33.3-10.12-15.77-9.6-26.04-29.56-25.97-50.72.03-16.8 5.64-34.61 17.2-54.58 14.82-25.48 35.56-48.3 59.86-66.04 24.41-17.76 52.6-30.5 81.48-36.73 6.42-1.36 12.9-2.5 19.17-3.6 11.42-1.95 23.17-4.01 34.34-7.67 19.76-6.45 34.35-17.9 41.02-32 4.69-9.92 5.65-21.35 6.6-32.42.41-5.17.9-10.47 1.77-15.66 6.85-42.7 42.11-79.64 87.19-92.5zm377.56 576.29c39.31-11.2 71.98-33.8 91.51-64.14 29.86-46.44 24.16-110.93-13.02-146.6-16.02-15.4-36.67-25.25-56.5-34.63-13.16-6.23-26.75-12.69-39.15-20.78-45.49-29.78-71.89-79.55-97.37-127.72-7.12-13.47-14.52-27.45-22.16-40.66-28.34-48.75-59.4-84.4-95.07-109-43.13-29.74-92.8-41.65-136.23-32.56-3 .62-5.96 1.35-8.9 2.19-44.3 12.63-78.86 48.78-85.46 90.71-.8 5.04-1.27 10.35-1.68 15.51-1 11.33-1.94 22.87-6.86 33.2-6.94 14.78-21.9 26.56-42.32 33.2-11.28 3.69-23.14 5.77-34.56 7.74a516.46 516.46 0 00-19.17 3.59c-57.93 12.64-110.26 50.69-140 101.68C34.91 194 29.34 211.56 29.3 227.9c.07 20.41 9.77 39.6 24.95 48.78 9.79 5.9 21.39 7.88 32.5 9.76 5.17.88 10.5 1.82 15.66 3.05 43.1 10.73 72.74 47.96 89.93 77.35 10.21 17.29 18.69 35.9 26.98 53.85 8.32 18.06 16.93 36.74 27.18 54.14 34.5 58.4 87.5 100.94 145.6 116.55 63.25 17.08 132.38-.75 172.09-44.36 6.27-6.84 12.04-14.6 17.7-21.96 12.02-15.88 24.48-32.34 42.27-42 19.85-10.7 43.26-11.4 65.88-11.97 6.76-.16 13.63-.36 20.41-.89a218.7 218.7 0 0042.73-7.48z" fill="url(#paint0_linear)"/><path d="M384.51-100.5c3.15-.89 6.44-1.71 9.65-2.4 43.21-8.67 92.24 3.07 134.5 32.24 35.07 24.18 65.52 59.3 93.04 107.23a1480.45 1480.45 0 0121.17 38.83c24.68 46.63 50.16 94.8 93.36 124.4 11.52 7.87 24.07 14.4 36.2 20.68 18.73 9.7 38.27 19.74 53.54 35 36.06 35.87 41.16 99.47 11.82 144.83-26.04 40.07-75.54 66.63-132.49 70.77-6.56.47-13.4.77-20.03 1.02-21.73.8-44.28 1.58-62.9 12.06-16.83 9.38-29.1 25.2-40.94 40.56-5.91 7.67-12.12 15.55-18.8 22.62-20.28 21.52-47.6 36.94-78.84 44.32a185.55 185.55 0 01-92.58-1.79c-57.39-15.93-109.86-58.28-143.88-116.22-9.9-17.02-18.25-35.2-26.42-52.71-8.55-18.47-17.43-37.66-28.01-55.43-16.75-27.87-45.5-63.6-87.56-75.2-4.31-1.13-8.6-2.14-12.87-3.15-12.46-2.9-24.25-5.54-34.34-12.52-14.64-10.16-23.08-29.47-22.2-50.28.75-16.3 6.53-33.1 18.41-52.8 28.4-47.44 75.04-82.82 128.9-98.18 3.05-.86 6.23-1.65 9.3-2.41 8.02-1.94 16.3-3.36 24.34-4.83 10.38-1.9 21.12-3.79 31.1-6.63 14.67-4.18 33.83-12.35 42.3-28.38 4.9-9.15 5.98-19.8 7.04-30.08.45-4.59.95-9.43 1.84-14.15 3.86-21.88 15.36-42.07 33-58.5a134.8 134.8 0 0152.35-28.9zM746 461.84c38.55-11 70.66-33.06 89.94-62.63 28.88-44.52 23.9-106.87-11.47-142-15.07-14.96-33.53-24.5-52.96-34.58-12.24-6.25-24.81-12.88-36.47-20.83-43.62-29.84-69.3-78.3-94.05-125.15-6.83-12.85-13.79-26.13-21.17-38.83-27.32-47.64-57.56-82.46-92.4-106.6-41.8-28.82-90.19-40.39-132.85-31.87-47.1 9.44-85.38 45.72-92.9 88.14-.8 4.58-1.34 9.3-1.79 13.9-1.1 10.53-2.23 21.42-7.26 30.96-8.85 16.73-28.64 25.19-43.63 29.46-10.2 2.91-20.94 4.8-31.32 6.7-8.04 1.47-16.32 2.9-24.23 4.8-57.3 13.63-107.08 49.9-136.83 99.6-11.73 19.44-17.46 35.98-18.12 51.8-.85 20.08 7.27 38.67 21.2 48.43 9.68 6.76 21.25 9.45 33.54 12.17 4.28 1.01 8.67 1.99 12.98 3.1 42.81 11.76 71.92 47.97 88.88 76.13 10.72 17.85 19.6 37.04 28.07 55.65 8.06 17.55 16.38 35.6 26.25 52.52 33.79 57.54 85.67 99.47 142.56 115.31 62.48 17.3 128.83.85 169.22-42.02l.8.72-.8-.72c6.57-7.04 12.67-14.88 18.61-22.45 12.02-15.52 24.38-31.5 41.6-41.1 19.14-10.74 41.9-11.6 63.9-12.34 6.5-.22 13.35-.52 19.91-.99 14.13-1.09 27.86-3.6 40.79-7.28z" fill="url(#paint1_linear)"/><path d="M392.76-87.22c3.58-1.03 7.3-1.97 10.98-2.67 42.4-8.2 90.08 3.33 131.02 31.58C569-34.6 598.49-.38 625.12 46.52a1329.7 1329.7 0 0120.04 36.91c23.99 45.42 48.88 92.35 90.22 122.02 10.77 7.73 22.28 14.31 33.45 20.52 18.37 10.5 35.74 20.34 50.17 35.14 16.97 17.47 27.13 41.59 28.79 68 1.61 25.85-4.95 51.44-18.55 72.11-25.3 38.57-73.58 64.43-128.98 69.07-6.31.5-12.69.8-18.96 1.06-21.34.92-43.37 1.91-61.46 12.6-16.22 9.43-28.4 24.77-40.25 39.65-6.32 7.9-12.8 16.1-19.8 23.26-40.88 41.95-106.99 57.63-168.45 40.16-56.38-16.1-107.66-57.97-140.8-114.87-9.66-16.62-17.78-34.4-25.72-51.5-8.7-19.01-17.84-38.72-28.88-56.83-23.25-37.88-53.9-64.25-86.53-74.1-2.83-.83-5.76-1.64-8.58-2.48-13.67-3.85-26.59-7.57-36.94-15.89-13.23-10.55-20.21-29.7-18.33-49.85 1.52-15.7 7.58-31.52 19.7-51.18 15.1-24.5 35.04-46.4 57.62-63.17 24.03-17.89 50.1-29.78 77.52-35.37 6.1-1.27 12.45-2.49 18.68-3.68 12.91-2.5 26.17-5 38.82-8.01 22.22-5.28 36.88-13.57 43.59-24.64 5.01-8.36 6.21-17.75 7.48-27.74.46-4.12 1.01-8.39 1.91-12.64 7.4-38.28 39.85-70.31 81.88-82.3zm345.95 548.2c38-10.84 69.7-32.33 88.51-61.06 27.94-42.49 23.52-102.88-9.92-137.39-14.13-14.52-31.39-24.4-49.6-34.71-11.19-6.32-22.7-12.9-33.61-20.71-41.76-29.9-66.74-77.16-90.8-122.8a1329.7 1329.7 0 00-20.03-36.9C596.86.9 567.54-33.14 533.5-56.55c-40.38-27.94-87.53-39.28-129.39-31.22-46.5 9.03-83.23 42.52-91.54 83.4-.82 4.12-1.37 8.38-1.87 12.4-1.21 9.74-2.44 19.84-7.72 28.5-7.02 11.64-22.17 20.3-44.96 25.62-12.64 3.02-26.01 5.54-38.81 8.02-6.13 1.16-12.48 2.38-18.58 3.65C147.22 84.6 98.5 120.09 66.97 171.36 55 190.74 49.07 206.17 47.6 221.62c-1.86 19.44 4.9 37.83 17.54 47.96 9.91 7.98 22.7 11.62 36.1 15.43 2.83.84 5.76 1.65 8.59 2.49 33.02 9.96 64.23 36.64 87.7 74.93 11.18 18.18 20.22 37.92 29.06 57 7.94 17.12 16.02 34.78 25.66 51.29 32.8 56.53 83.62 98.06 139.48 113.96 60.64 17.47 125.96 1.9 166.31-39.43 6.9-7.14 13.4-15.22 19.61-23.1 11.92-15.02 24.3-30.52 40.8-40.16 18.64-10.84 41-11.92 62.45-12.87 6.27-.26 12.64-.56 18.82-1.14a197.66 197.66 0 0038.99-7z" fill="url(#paint2_linear)"/><path d="M401.44-74.08c3.9-1.11 7.88-2.01 11.88-2.8 41.49-7.72 88 3.45 127.51 30.82 33.1 22.98 61.76 56.37 87.55 102.34 6.23 11.14 12.36 22.78 18.38 33.98 23.49 44.5 47.8 90.65 87.56 120.54 9.9 7.51 20.3 13.94 30.31 20.24 17.3 10.81 33.47 21 46.99 35.46 15.93 17.18 25.52 40.52 26.98 65.82 1.48 24.95-5.11 49.6-18.36 69.47-24.65 37.1-71.62 62.23-125.61 67.29-5.96.52-12.2.89-18.1 1.17-20.71 1.09-42.21 2.28-59.84 12.95-15.5 9.47-27.7 24.34-39.35 38.7-6.61 8.1-13.49 16.52-20.93 23.81l-.68-.75.68.75c-40.92 40.56-105.96 55.46-165.68 37.96-55.23-16.2-105.42-57.55-137.6-113.55-9.32-16.25-17.28-33.48-24.99-50.19-8.97-19.52-18.26-39.77-29.89-58.3-22.7-36.39-53.12-62.36-85.5-72.97l-.92-.33c-17.1-5.57-31.75-10.44-42.78-20.68-11.95-11.04-17.35-29.58-14.44-49.43 2.8-19 12.65-36.38 20.9-49.42 29.7-46.63 72.23-79.9 118.28-93.02a190.8 190.8 0 0113.63-3.3c9.33-1.84 19.1-3.8 28.45-5.64 10.2-2.1 20.88-4.2 30.9-6.11 23.59-4.61 38.33-11.4 44.97-21.04 5.26-7.5 6.54-16.2 7.94-25.29.6-3.69 1.05-7.46 2-11.13 8.19-35.93 39.57-65.9 79.76-77.35zm330 534.3c37.37-10.65 68.6-31.65 87.1-59.47 27.37-41.15 23.77-98.26-8.38-132.78-13.24-14.3-29.5-24.35-46.53-35.11-10.02-6.3-20.43-12.73-30.46-20.33-40.1-30.25-64.55-76.48-88.1-121.2a1500.64 1500.64 0 00-18.28-34.01c-25.69-45.64-54.07-78.89-87-101.68-39.06-27.03-84.97-38.13-125.91-30.57-45.05 8.39-81.23 40.07-90.05 78.76-.84 3.64-1.43 7.33-1.91 11-1.33 8.94-2.67 18.25-8.27 26.2-7.02 9.98-22.13 17.1-46.26 21.87-10.02 1.92-20.66 4.13-30.9 6.1-9.45 1.88-19.12 3.81-28.46 5.65-50.73 9.89-98.34 44.72-130.64 95.38-8.21 12.8-17.87 30-20.55 48.6-2.77 19.12 2.42 36.9 13.81 47.62 10.72 9.98 25.23 14.77 42.05 20.2l.91.32c32.77 10.74 63.61 36.94 86.58 73.84 11.63 18.53 20.95 38.89 29.96 58.52 7.7 16.7 15.66 33.93 24.82 50 32.02 55.45 81.65 96.5 136.39 112.6 59.04 17.22 123.24 2.68 163.53-37.23 7.33-7.26 14.1-15.65 20.74-23.65 11.83-14.53 24.11-29.53 39.94-39.1 18.11-11.03 39.86-12.18 60.79-13.33a448.7 448.7 0 0018.1-1.17 213.3 213.3 0 0036.99-7.02z" fill="url(#paint3_linear)"/><path d="M409.87-60.98c4.23-1.21 8.64-2.23 13-3 40.68-7.26 85.84 3.7 124.04 30.16 32.19 22.3 59.96 55.01 84.83 99.83 5.76 10.33 11.4 21.05 16.84 31.48 23 43.59 46.64 88.64 84.71 118.77 8.95 7.08 17.9 13.33 26.67 19.4 16.24 11.23 31.6 21.88 44.38 36.2 30.9 34.65 33.89 90.87 7.08 130.69-24.02 35.62-69.75 60.16-122.14 65.47-5.71.57-11.59.96-17.36 1.3-20.18 1.3-41.16 2.7-58.18 13.43-14.93 9.42-26.93 23.76-38.48 37.62-6.98 8.45-14.26 17.1-22.1 24.62-40.8 39-104.6 52.84-162.67 35.34-54.09-16.29-103.08-57.16-134.51-112.2-9.1-15.84-16.83-32.66-24.3-48.97-9.26-20.14-18.82-40.9-30.76-59.7-22.3-34.97-52.24-60.5-84.49-71.85-18.02-6.37-32.07-12.82-42.07-23.59-10.54-11.44-14.45-29.7-10.64-48.87 3.6-17.82 13.19-34.06 22.11-47.64 30.13-45.93 71.7-78.46 115.44-91.04 4.45-1.27 8.86-2.3 13.3-3.2 7.57-1.46 15.32-3.09 22.86-4.65 12.74-2.7 25.94-5.4 38.43-7.31 17.1-2.65 37.81-7.03 46.27-17.3 5.51-6.63 6.9-14.54 8.4-22.84.61-3.22 1.19-6.56 2.04-9.74 4.82-18.52 16.05-35.57 32.4-49.05a123.99 123.99 0 0144.9-23.36zM724.05 459.4c36.7-10.47 67.5-30.99 85.66-57.9 26.32-39.08 23.42-94.16-6.97-128.24-12.6-14.14-27.83-24.71-43.96-35.97-8.77-6.07-17.86-12.4-26.8-19.48-38.38-30.4-62.2-75.63-85.26-119.44A1378.53 1378.53 0 00629.91 67c-24.81-44.6-52.38-77.02-84.29-99.16-37.74-26.11-82.41-36.98-122.52-29.78-44.14 7.89-78.95 36.96-88.59 74-.85 3.17-1.35 6.37-1.96 9.6-1.43 8.16-2.99 16.7-8.73 23.74-8.9 10.76-29.02 15.2-47.59 18.03-12.49 1.92-25.66 4.73-38.43 7.32-7.54 1.56-15.4 3.21-22.86 4.64-48.13 9.14-94.56 43.16-127.48 93.3-8.85 13.44-18.35 29.54-21.84 46.97-3.74 18.57.02 36.29 10.15 47.14 9.7 10.5 23.47 16.8 41.24 23.12 32.63 11.48 62.88 37.26 85.42 72.64 12.07 18.88 21.66 39.75 30.93 59.89 7.43 16.2 15.16 33.02 24.12 48.78 31.17 54.53 79.71 95.06 133.41 111.23 57.54 17.3 120.56 3.55 160.83-34.82 7.76-7.38 14.93-16 21.91-24.45 11.74-14.03 23.82-28.51 38.96-38 17.5-11.1 38.73-12.45 59.16-13.7 5.66-.31 11.54-.7 17.25-1.27a214.2 214.2 0 0035.05-6.82z" fill="url(#paint4_linear)"/><path d="M418.33-47.78c4.56-1.3 9.3-2.41 14.12-3.2 39.76-6.76 83.69 3.97 120.53 29.4 31.33 21.72 58.13 53.54 82.15 97.42a1762.3 1762.3 0 0115.19 28.55c22.39 42.7 45.68 86.92 82.08 117.4 7.56 6.3 14.92 11.96 22.04 17.56 15.66 12.1 30.42 23.5 42.68 38.1 14.03 16.66 22.37 38.48 23.31 61.58 1.1 23.18-5.31 46.02-17.81 64.38-23.83 34.63-67 57.86-118.66 63.66-5.46.62-11.1 1.05-16.5 1.42-19.66 1.5-40.03 2.95-56.64 13.91-14.24 9.35-26.04 23.16-37.39 36.5-7.5 8.71-15.26 17.74-23.53 25.38-40.76 37.45-103.42 50.39-159.74 32.86-52.93-16.38-100.84-56.74-131.39-110.75-8.75-15.47-16.25-31.88-23.6-47.76-9.39-20.57-19.24-41.95-31.63-61.09-21.75-33.49-51.46-58.6-83.35-70.77-19.23-7.31-32.06-15.64-40.38-26.3-9.24-11.81-11.71-29.54-6.77-48.45 4.37-16.4 13.73-31.75 23.3-45.98 18.43-27.22 56.37-72.91 112.08-88.8 4.34-1.23 8.86-2.29 13.44-3.12a788.98 788.98 0 0022.62-4.69c13.5-2.9 27.43-5.94 40.61-7.47 19.55-2.28 39.38-5.23 47.65-13.7 5.65-5.72 7.14-12.84 8.76-20.35.62-2.76 1.21-5.63 2.08-8.34 9.58-31.5 38.15-56.91 74.75-67.35zm299.25 506.32c35.95-10.25 65.45-29.93 83.52-56.34 25.3-36.92 22.95-90.04-5.42-123.64-12.2-14.37-26.85-25.81-42.38-37.83-7.22-5.57-14.59-11.22-22.14-17.52-36.68-30.65-60.04-75.07-82.49-118-4.91-9.4-10.02-19.1-15.19-28.55-23.92-43.55-50.56-75.18-81.6-96.75-36.42-25.2-79.75-35.86-119.04-29.12-42.54 7.31-76.73 34.44-87.13 69.23-.76 2.68-1.38 5.44-2 8.2-1.62 7.51-3.21 15.13-9.34 21.22-8.76 8.84-28.9 11.88-48.78 14.26-13.19 1.53-27.01 4.53-40.51 7.44-7.5 1.67-15.27 3.3-22.73 4.72-62.32 11.66-104.65 62.13-124.34 91.11-9.52 13.99-18.8 29.2-23.12 45.35-4.85 18.4-2.49 35.35 6.4 46.79 8.13 10.36 20.68 18.53 39.52 25.72 32.38 12.26 62.3 37.67 84.37 71.43 12.52 19.2 22.37 40.59 31.8 61.27 7.23 15.9 14.8 32.19 23.42 47.58 30.31 53.6 77.88 93.58 130.32 109.87 55.74 17.58 117.62 4.75 157.92-32.22l.69.74-.69-.74c8.2-7.5 15.96-16.53 23.35-25.21 11.53-13.5 23.44-27.35 37.87-36.87 17.01-11.2 37.6-12.72 57.5-14.16 5.41-.37 11.05-.8 16.4-1.39a211.5 211.5 0 0033.82-6.59z" fill="url(#paint5_linear)"/><path d="M426.44-34.59c5-1.42 10.19-2.55 15.45-3.46 38.96-6.3 81.5 4.12 116.95 28.78 30.31 21.07 56.33 52.17 79.43 94.9 4.5 8.35 9.05 16.92 13.3 25.22 21.99 42.11 44.81 85.52 79.59 116.47 5.02 4.44 9.88 8.69 14.56 12.76 16.8 14.46 31.3 27 43.9 42.79 27.27 34.27 28.89 85.24 3.92 121.25-23.05 33.23-65.12 55.8-115.26 61.99-5.21.66-10.49 1.1-15.65 1.52-19.13 1.7-38.97 3.36-55 14.27-13.46 9.24-25.08 22.42-36.23 35.23-7.98 9.08-16.22 18.48-25 26.39l-.66-.64.65.64c-40.58 36-102.13 47.9-156.77 30.48-51.79-16.47-98.53-56.46-128.3-109.39-8.53-15.06-15.8-31.08-22.9-46.55-9.66-21.09-19.64-42.9-32.58-62.35-21.22-32-50.47-56.77-82.3-69.54-18.05-7.3-30.72-16.73-38.66-28.9-10.81-16.53-6.48-37.15-2.89-48.04 5.16-15.68 14.93-30.44 24.62-44.24 34.76-49.84 78.27-81.74 122.46-89.87a769.42 769.42 0 0022.73-4.72c14-3.17 28.6-6.4 42.48-7.53l2.5-.25c19.74-1.63 38.44-3.2 46.55-9.75 5.93-4.74 7.53-11.07 9.26-17.78.64-2.3 1.24-4.7 1.99-7.03C365-1.69 391.79-24.71 426.44-34.59zm283.63 492.34c35.4-10.1 64.46-29.3 82.2-54.8 24.58-35.3 22.89-85.32-3.84-118.92-12.46-15.7-26.93-28.14-43.63-42.63-4.68-4.07-9.64-8.3-14.66-12.73-35.06-31.11-57.95-74.73-80.08-116.92-4.35-8.27-8.8-16.87-13.26-25.1-22.94-42.56-48.75-73.37-78.9-94.25-35-24.31-77.18-34.71-115.56-28.47-41.4 6.76-74.17 31.48-85.75 64.61-.77 2.22-1.38 4.62-2.02 6.92-1.72 6.72-3.52 13.57-9.94 18.69-8.48 6.88-27.5 8.54-47.6 10.16l-2.5.25c-13.75 1.22-28.23 4.4-42.27 7.47-7.5 1.67-15.34 3.43-22.83 4.75-43.76 8-86.76 39.64-121.18 89.03-9.5 13.63-19.3 28.29-24.3 43.69-3.47 10.5-7.64 30.48 2.64 46.34 7.73 11.88 20.1 21.04 37.76 28.22 32.13 13.03 61.67 37.96 83.23 70.33 12.97 19.56 22.98 41.48 32.67 62.68 7.1 15.47 14.37 31.48 22.76 46.47 29.57 52.64 75.94 92.14 127.23 108.52 54 17.25 114.87 5.42 155-30.1 8.72-7.76 16.96-17.16 24.83-26.21 11.25-12.84 22.85-26.13 36.63-35.46 16.43-11.14 36.46-12.98 55.94-14.66 5.17-.42 10.45-.86 15.55-1.5 11.14-1.3 21.78-3.5 31.88-6.38z" fill="url(#paint6_linear)"/><path d="M435.23-21.47a137.9 137.9 0 0116.24-3.58c38.04-5.8 79.34 4.4 113.47 28.13 29.45 20.5 54.5 50.7 76.75 92.5 3.77 7.03 7.46 14.2 11.08 21.15 21.73 41.6 44.1 84.66 77.5 116.12 20.7 19.47 37.7 35.88 52.25 55.57 12.01 16.19 18.98 36.51 19.64 57.35.65 21.65-5.36 42.16-17.3 59.18-22.42 31.76-63.14 53.7-111.79 60.18-4.86.68-9.88 1.17-14.7 1.6-19.52 1.93-37.9 3.76-53.44 14.77-12.8 9.05-24.01 21.64-34.88 33.78-8.46 9.46-17.26 19.37-26.7 27.46-40.41 34.54-100.8 45.53-153.84 28-50.56-16.7-96.19-56.07-125.21-108.03-8.19-14.7-15.36-30.39-22.24-45.45-9.8-21.63-20.05-43.96-33.4-63.64-20.69-30.51-49.57-54.8-81.29-68.43-17.26-7.4-29.7-18.07-36.96-31.62-8.52-15.89-4.23-34.6.9-47.47 5.56-13.9 14.53-26.92 25.83-42.47 23.07-31.94 59.66-71.26 107.12-84.8 4.02-1.14 7.99-2.04 12.1-2.86 7.6-1.34 15.4-3.21 22.91-4.89 14.67-3.35 29.76-6.83 44.24-7.56 3.83-.15 7.52-.38 11.13-.47 17.2-.67 32.05-1.27 39.22-5.78 6.07-3.84 7.81-9.27 9.75-15.23.66-1.83 1.28-3.77 2-5.74 11.3-27.52 37.14-48.51 69.62-57.77zM702.6 457.06c34.86-9.94 63.6-28.58 80.99-53.27 23.75-33.67 22.78-80.72-2.33-114.43-14.5-19.58-30.72-35.27-52.04-55.27-33.57-31.64-56.09-74.78-77.87-116.6-3.63-6.95-7.32-14.12-11.08-21.15-22.05-41.51-47.04-71.5-76.21-91.83-33.68-23.4-74.63-33.57-112.2-27.79-39.38 6.06-71.7 29.02-84.29 59.85a62.84 62.84 0 00-1.92 5.6c-1.95 5.95-3.86 12.02-10.55 16.16-7.57 4.74-22.65 5.4-40.2 6.05-3.6.1-7.3.33-11.13.48-14.23.77-29.35 4.14-43.98 7.6-7.62 1.7-15.43 3.58-23.03 4.93-52.8 9.65-93.4 52.58-118.11 86.99-11.54 15.97-20.1 28.39-25.56 42.16-4.99 12.58-9.22 30.7-.99 45.96 7.03 13.15 19.16 23.55 36.14 30.8 32 13.78 61.2 38.34 82.07 69.14 13.53 19.87 23.67 42.23 33.61 63.93 6.88 15.07 14.02 30.65 22.2 45.34 28.8 51.57 74.01 90.7 124.16 107.17 52.47 17.22 112.21 6.41 152.14-27.75 9.36-7.96 18.09-17.73 26.55-27.18 10.94-12.28 22.15-24.87 35.14-34.1 15.93-11.23 35.44-13.27 54.28-15.12 4.81-.43 9.8-1.04 14.7-1.6a210.54 210.54 0 0029.5-6.07z" fill="url(#paint7_linear)"/><path d="M440.34-7.66a150.96 150.96 0 0120.7-4.38c37.21-5.44 77.3 4.62 109.98 27.36 28.55 19.81 52.8 49.3 74.04 89.99 2.8 5.3 5.64 10.72 8.33 16.06 21.62 41.63 43.86 84.61 75.93 116.8 17.97 18.13 31.35 34.17 46 55.47 23.31 33.99 23.6 79.94.76 111.82-21.79 30.28-61.26 51.64-108.32 58.36-4.63.62-9.27 1.24-13.83 1.71-19 2.13-36.97 4.2-51.9 15.27-11.94 8.8-22.75 20.7-33.2 32.25-9.13 10-18.52 20.3-28.6 28.59-19.89 16.35-44.58 27.38-71.34 31.96a163.32 163.32 0 01-79.65-6.3c-49.42-16.8-93.96-55.65-122.13-106.69-7.99-14.4-14.93-29.68-21.6-44.45-10.04-22.04-20.44-44.9-34.25-64.93-20.14-29.02-48.57-52.97-80.26-67.3-16.75-7.68-28.92-19.48-35.24-34.23-6.94-16.1-1.23-34.4 4.8-47.05 5.9-12.6 14.6-24.13 24.6-37.66l2.4-3.15c36.74-49.47 75.75-78.2 116.07-85.47 7.6-1.35 15.52-3.25 23.1-5.06 15.18-3.63 31.03-7.32 45.99-7.6 21.93-.5 41.85-1.48 52.06-2.74 5.46-.62 6.97-4.8 8.62-9.74.93-2.5 1.83-5.1 3.32-7.29 6.7-23.05 30.7-42.22 63.62-51.6zM694.98 456.3c34.43-9.82 62.72-27.99 79.86-51.9 22.43-31.29 22.13-76.41-.78-109.81-14.62-21.2-27.88-37.26-45.82-55.28-32.25-32.38-54.66-75.55-76.3-117.3-2.81-5.3-5.54-10.75-8.34-16.05-21.17-40.47-45.23-69.66-73.5-89.32-32.36-22.48-72.07-32.42-108.73-27.13-42.63 6.16-75.1 27.76-82.74 54.95l-.08.13-.08.14c-1.44 1.94-2.34 4.55-3.2 6.9-1.75 4.97-3.58 10.07-10.06 10.86-10.34 1.19-29.87 2.3-52.2 2.67-14.81.35-30.56 4.01-45.62 7.6a556.58 556.58 0 01-23.21 5.1c-39.86 7.25-78.47 35.75-114.99 84.8l-2.39 3.15c-9.92 13.4-18.61 24.92-24.45 37.38-5.8 12.23-11.37 30.14-4.73 45.63 6.12 14.46 18.1 25.96 34.42 33.4 31.97 14.49 60.71 38.7 81.02 67.91 13.95 20.1 24.34 42.97 34.42 65.11 6.67 14.77 13.58 29.95 21.53 44.24 27.79 50.91 71.92 89.54 120.94 106.2 50.83 17.23 109.43 7.33 149.33-25.3 9.98-8.25 19.4-18.45 28.42-28.42 10.41-11.66 21.34-23.58 33.46-32.56 15.33-11.3 34.34-13.43 52.74-15.62 4.56-.48 9.2-1.1 13.84-1.71a193.7 193.7 0 0027.24-5.77z" fill="url(#paint8_linear)"/><path d="M447.76 5.6A168.81 168.81 0 01470.71.82c36.28-4.94 75.1 4.78 106.5 26.71 27.56 19.27 51 47.94 71.31 87.47 1.56 2.97 3.13 6.04 4.69 9 21.69 42.32 44.11 85.96 75.3 119.57 16.42 17.63 25.9 33.14 35.2 48.1l4.58 7.38c17.73 28.42 24.44 72.54-.82 107.1-21.04 28.78-59.3 49.44-104.84 56.55-4.28.63-8.7 1.19-12.88 1.8-18.47 2.32-35.91 4.6-50.34 15.75-11.18 8.6-21.5 19.76-31.45 30.58-9.69 10.51-19.85 21.4-30.67 30l-.54-.67.54.67c-40.66 32.02-97.43 40.93-148.05 23.18-48.27-16.89-91.62-55.26-119.05-105.33-7.64-14.03-14.48-28.99-20.93-43.36-10.2-22.57-20.72-45.88-35.05-66.1-19.49-27.56-47.55-51.04-79.24-66.2-21.07-10.07-29.86-25.65-33.54-36.93-4.3-12.99-1.38-28.73 8.59-46.49 5.66-10.19 13.05-19.7 21.65-30.72 2.16-2.73 4.29-5.56 6.52-8.43 34.51-44.95 67.15-70.94 101.69-80.78 3.7-1.05 7.45-1.89 11.23-2.62a333.18 333.18 0 0023.29-5.23c15.82-3.8 32.2-7.77 47.84-7.65 9.9.12 19.15.42 27.35.78 11.17.45 20.1.85 25.8.27 4.86-2.32 6.74-5.2 8.8-8.26 1.07-1.6 2.22-3.33 3.87-4.98 6.26-20.45 28.86-37.58 59.7-46.38zm239.52 450.07c34-9.7 61.95-27.4 78.87-50.43 24.76-33.84 18.24-77.3.77-105.21-1.53-2.5-3.04-4.89-4.57-7.39-9.2-14.99-18.75-30.35-35-47.8-31.33-33.7-53.82-77.54-75.62-119.83l-4.68-9c-20.25-39.32-43.41-67.83-70.81-86.9C545.16 7.42 506.84-2.2 470.9 2.75c-41.83 5.7-73.69 25.36-81.4 50.22l-.04.25-.19.17a35.22 35.22 0 00-3.79 4.83c-2.17 3.09-4.28 6.4-9.68 8.87l-.11.03-.1.03c-5.83.6-14.86.24-26.27-.26-8.2-.36-17.48-.77-27.35-.77-15.4-.08-31.66 3.86-47.38 7.63-7.7 1.84-15.6 3.75-23.29 5.23-38.38 7.07-73.89 33.28-111.81 82.73-2.24 2.87-4.37 5.7-6.52 8.44-8.53 10.88-15.92 20.38-21.5 30.43-9.71 17.45-12.56 32.59-8.5 45.17 3.6 10.96 12.14 26.13 32.66 35.9 31.86 15.35 60.23 39.08 79.86 66.72 14.36 20.33 25.02 43.71 35.25 66.4 6.44 14.37 13.26 29.22 20.9 43.25 27.2 49.67 70.24 87.77 118.12 104.54 50.1 17.54 106.18 8.72 146.47-22.97 10.74-8.46 20.8-19.32 30.48-29.83 10.06-10.85 20.38-22.01 31.63-30.74 14.84-11.4 33.32-13.73 51.22-16.01 4.2-.5 8.6-1.16 12.88-1.8 8.39-1.45 16.8-3.26 24.83-5.55z" fill="url(#paint9_linear)"/><path d="M454.07 19.07c8.03-2.29 16.8-4.08 26.1-5.21 35.38-4.45 72.96 5.04 103 25.95 26.7 18.7 49.18 46.46 68.64 85.06 5.16 10.28 10.12 21.07 14.95 31.44 15.88 34.7 32.32 70.52 60.59 92.65l.14.07.03.11c5.34 9.28 10.86 17.1 15.78 24.04 7.6 10.63 14.13 19.93 17.74 31.34 22.32 25.58 21.28 70.5-2.4 102.39-20.4 27.3-57.32 47.34-101.44 54.87-3.92.65-7.99 1.22-11.91 1.87-17.95 2.54-34.97 5.04-48.94 16.18-10.23 8.2-20.05 18.64-29.43 28.6-10.46 11.08-21.26 22.61-33.06 31.5l-.54-.67.54.67c-40.49 30.56-96.1 38.55-145.08 20.8-47.01-17-89.28-54.86-115.93-103.87-7.44-13.73-14.06-28.29-20.44-42.44-10.32-23-21.07-46.72-35.86-67.28-18.8-26-46.53-49.1-78.1-65.1-21.12-10.66-28.96-27.45-31.82-39.55-3.1-13.33.96-28.34 12.35-46.03 5.22-8.07 11.79-15.93 18.7-24.24 3.5-4.17 7.09-8.48 10.7-13.15a263.06 263.06 0 01109.56-81.14c23.56-9.19 49.58-13.9 73.2-13 16.03.59 30.83 2.24 41.72 3.36 5.09.55 9.6 1.14 12.95 1.36 4.94-1.64 6.95-3.62 9.13-5.89a61.73 61.73 0 013.9-3.58c6.46-18.16 26.77-33 55.23-41.1zM726.29 250.2c-28.58-22.39-45.04-58.33-60.96-93.13a722 722 0 00-14.92-31.33c-19.37-38.28-41.7-65.97-68.1-84.4-29.75-20.75-66.84-30.14-101.85-25.68-41.52 5.14-72.1 22.67-79.9 45.56l-.05.25-.19.17a26.68 26.68 0 00-3.94 3.47c-2.4 2.33-4.56 4.6-9.93 6.36l-.11.03-.11.03c-3.35-.22-7.97-.78-13.17-1.3-10.81-1.26-25.6-2.91-41.6-3.4-23.02-.84-49.5 3.9-72.53 12.93a259.81 259.81 0 00-108.9 80.6c-3.71 4.7-7.3 9-10.7 13.15-6.9 8.31-13.47 16.17-18.6 24.1-11.17 17.27-15.21 31.93-12.14 44.79 2.77 11.78 10.35 28.05 30.95 38.5 31.85 16.17 59.85 39.43 78.72 65.64 14.9 20.53 25.6 44.49 36.03 67.47 6.35 14.04 12.86 28.62 20.3 42.36 26.45 48.7 68.4 86.3 115.02 103.2 48.25 17.24 103.3 9.3 143.3-20.9 11.62-8.71 22.42-20.25 32.77-31.3 9.46-10.1 19.28-20.53 29.62-28.76 14.23-11.46 32.29-14.02 49.66-16.51 3.96-.54 7.88-1.19 11.92-1.87 43.69-7.4 80.3-27.24 100.44-54.24 23.26-31.29 24.3-75.4 2.35-100.49l-.13-.08-.07-.21c-3.43-11.24-9.93-20.42-17.54-31.05-4.77-6.86-10.4-14.65-15.64-23.96z" fill="url(#paint10_linear)"/><path d="M284.03 72.25c19-5.42 38.74-7.88 56.43-6.81 25.92 1.53 48.42 6.74 56.07 8.44 5.15-.88 7.28-2.08 9.67-3.58 1.2-.7 2.3-1.36 3.98-2.08 8.14-20.87 38.62-36.72 79.65-41.5 34.57-3.98 70.8 5.3 99.52 25.3 25.83 18.12 47.38 45.1 65.93 82.55a851.09 851.09 0 0114.24 30.58c14.9 33.33 30.36 67.8 57.02 89.2l.14.08.06.22c4.26 8.77 8.58 16.1 12.44 22.64 6.65 11.37 12.37 21.13 14.83 32.64 20.73 24.51 19.09 67.37-3.98 97.67-26.9 35.39-72.98 48.4-97.96 53.06-3.68.7-7.39 1.28-10.88 1.81-17.5 2.88-34.02 5.47-47.5 16.71-9.27 7.81-18.42 17.35-27.08 26.51-11.28 11.91-22.94 24.16-35.6 33.29l-.4-.6.4.6c-40.21 29.08-94.71 36.04-142.15 18.33-45.87-17.1-86.94-54.48-112.74-102.56-7.24-13.43-13.65-27.7-19.8-41.44-10.55-23.42-21.35-47.7-36.63-68.36-23.12-31.22-54.66-52.06-77.08-63.98-22.57-12-28.5-31.57-30.14-42.26-2-13.64 3.17-28.03 16.24-45.61 4.67-6.27 10.12-12.28 16.02-18.78a469.53 469.53 0 0014.69-16.87c28.85-35.12 65.7-62.42 106.43-78.96a174.5 174.5 0 0118.18-6.24zm116.47 2.37c-1.09.31-2.42.58-3.97.9l-.11.03-.14-.08c-7.43-1.75-29.94-6.96-55.96-8.47-23.32-1.45-50.49 3.36-74.47 13.13-40.52 16.48-77.06 43.58-105.74 78.53a469.45 469.45 0 01-14.68 16.87c-5.8 6.47-11.32 12.62-15.91 18.75-12.84 17.16-17.86 31.27-15.87 44.45 1.55 10.36 7.32 29.38 29.33 41.07 22.56 12 54.35 32.9 77.67 64.41 15.31 20.77 26.25 45.13 36.83 68.65 6.15 13.75 12.57 28 19.77 41.34 25.71 47.74 66.47 84.86 111.95 101.84 47.02 17.48 100.95 10.56 140.79-18.18 12.55-9.1 24.2-21.35 35.41-33.12 8.77-9.19 17.88-18.83 27.27-26.68 13.74-11.55 30.48-14.2 48.2-17.14 3.6-.56 7.3-1.15 10.87-1.81 24.87-4.63 70.4-17.49 97.08-52.46 22.65-29.7 24.36-71.88 3.93-95.77l-.17-.19-.06-.21c-2.32-11.44-7.78-20.69-14.63-32.36a306.33 306.33 0 01-12.44-22.63c-26.82-21.6-42.32-56.17-57.36-89.58a886.7 886.7 0 00-14.24-30.58c-18.49-37.24-39.86-64.03-65.42-82-28.33-19.86-64.28-28.99-98.38-25.02-40.7 4.67-70.78 20.3-78.44 40.8l-.16.28-.32.09c-1.68.71-2.89 1.41-4.1 2.1a21.34 21.34 0 01-6.53 3.04z" fill="url(#paint11_linear)"/><path d="M292.97 72.28c19.22-5.48 39.02-7.72 56.71-6.19 24.08 2.07 45.42 7.72 57.41 12.3 5.73-.11 7.93-.62 10.7-1.18.98-.28 2.1-.48 3.32-.71 8.2-18.66 37.4-32.39 78.12-36.6 33.65-3.49 68.6 5.45 96.04 24.64 24.93 17.44 45.58 43.73 63.24 80.15 4.8 9.79 9.2 19.92 13.56 29.84 14.69 33.39 28.5 64.92 53.42 85.64l.14.08.07.21c3.1 7.58 6.16 14.22 8.9 20.13 6.05 12.96 10.85 23.21 12.04 35.2 19.24 23.4 16.76 64.16-5.56 92.95-25.85 33.33-70.36 46.49-94.49 51.25-3.32.71-6.56 1.28-9.8 1.86-16.98 3.07-33.05 6.01-46.16 17.27-8.3 7.18-16.5 15.86-24.48 24.12-12.14 12.62-24.7 25.83-38.55 35.3l-.4-.59.4.6c-39.93 27.58-93.29 33.63-139.3 15.98-44.57-17.12-84.6-54.09-109.65-101.2-7.03-13.14-13.25-27.1-19.2-40.56-10.67-23.85-21.7-48.54-37.4-69.43-17.7-23.37-43.26-44.62-76.06-62.87-16.75-9.31-27.04-25.64-28.4-44.86-1.18-18.1 10.87-34.34 20.03-45.05 4.03-4.8 8.7-9.41 13.61-14.45 5.91-6.03 12.01-12.24 18.27-19.54C198.34 122.63 234.08 96 272.76 79.7c6.43-3 13.26-5.43 20.2-7.4zm129.3 5.41l-.43.13c-1.44.29-2.56.5-3.64.8-2.97.73-5.2 1.13-11.17 1.19l-.25-.05c-11.88-4.6-33.08-10.18-57.16-12.24-23.72-2.04-51.56 2.84-76.3 13.3-38.46 16.25-73.94 42.57-102.67 76.48-6.23 7.41-12.44 13.64-18.27 19.54a231.75 231.75 0 00-13.5 14.42c-8.98 10.54-20.87 26.5-19.64 44 .65 8.85 4.44 30.79 27.6 43.68 32.97 18.43 58.74 39.62 76.54 63.32 15.84 20.96 26.9 45.76 37.6 69.72 5.96 13.45 12.28 27.38 19.17 40.45 24.97 46.78 64.68 83.5 108.86 100.5 45.52 17.55 98.4 11.51 137.94-15.85 13.75-9.44 26.22-22.5 38.36-35.13 7.95-8.37 16.2-16.94 24.59-24.15 13.27-11.54 29.56-14.54 46.86-17.7 3.24-.58 6.6-1.18 9.8-1.86 23.99-4.84 68.07-17.88 93.68-50.78 22.01-28.24 24.32-68.35 5.48-91.17l-.17-.19-.06-.21c-1.13-11.78-5.93-22.03-11.94-34.88a438.21 438.21 0 01-8.88-20.02c-25.1-20.9-39.59-54-53.65-86.05-4.33-9.8-8.77-20.04-13.53-29.73-17.5-36.23-38.05-62.2-62.74-79.58-27-18.96-61.69-27.74-95.01-24.35-40.48 4.26-69.3 17.65-76.98 36.04l-.48.37z" fill="url(#paint12_linear)"/><path d="M301.8 72.35c19.44-5.54 39.4-7.6 57.08-5.7 20.36 2.18 37.63 8.4 50.2 12.93 3.27 1.18 6.15 2.23 8.62 3.06 5.68 1.79 8.03 1.82 11.18 1.74 1.04-.06 2.11-.01 3.54.05 8.34-16.47 36.16-28.04 76.57-31.7 32.85-3.02 66.46 5.72 92.43 23.92 24.07 16.86 43.86 42.22 60.53 77.63 4.48 9.52 8.72 19.47 12.85 28.98 13.68 31.92 26.53 62.19 49.68 82.01l.14.08.06.22c1.86 5.7 3.82 10.89 5.36 15.5 5.61 15.55 9.65 26.84 9.34 39.73 17.64 22.33 14.47 61.05-7.17 88.13-24.9 31.28-67.77 44.45-91.1 49.57l-8.65 1.76c-16.55 3.31-32.2 6.48-44.8 17.94-7.18 6.51-14.15 13.78-21.5 21.4-13.14 13.6-26.7 27.81-41.84 37.76-39.54 26.07-91.85 31.24-136.36 13.51-43.32-17.24-82.22-53.6-106.56-99.85-6.84-12.85-12.85-26.52-18.7-39.65-10.8-24.28-21.96-49.4-38.19-70.5-16.94-21.94-41.5-42.18-75.03-61.75-24.25-14.22-26.67-37.95-26.58-47.5.12-18.11 12.8-33.36 23.81-44.6 3.63-3.73 7.54-7.31 11.75-11.1 6.63-6 14.05-12.92 21.34-21.11 29.01-32.93 63.57-58.76 100.02-74.67 7.11-3.08 14.48-5.65 21.97-7.79zM433.2 85.97l-.46.01-3.9-.06c-3.18-.03-5.72.1-11.57-1.87-2.47-.82-5.35-1.88-8.73-3.03-12.46-4.55-29.6-10.7-49.84-12.92-24.23-2.6-52.68 2.22-78.27 13.39-36.23 15.85-70.71 41.53-99.54 74.3-7.26 8.3-14.82 15.14-21.42 21.25-4.2 3.78-8.08 7.47-11.75 11.1-10.81 11.07-23.23 26-23.37 43.66-.05 9.29 2.33 32.45 25.88 46.29 33.67 19.64 58.37 39.96 75.37 62.12 16.37 21.17 27.56 46.4 38.39 70.8 5.86 13.12 11.87 26.79 18.7 39.64 24.22 45.82 62.84 82.02 105.88 99.1 44.12 17.6 95.83 12.38 135-13.35l.4.59-.4-.6c15.02-9.91 28.51-23.97 41.66-37.59 7.34-7.6 14.3-14.88 21.6-21.42 12.88-11.66 28.65-14.86 45.53-18.27l8.65-1.76c23.1-5.06 65.65-18.13 90.32-49 21.26-26.73 24.3-64.7 6.92-86.53l-.17-.18.04-.25c.38-12.67-3.66-23.97-9.27-39.52-1.65-4.57-3.47-9.7-5.32-15.39-23.35-20.12-36.32-50.36-49.92-82.41-4.12-9.52-8.26-19.5-12.85-28.99-16.57-35.08-36.23-60.36-60.02-77.07-25.7-18.04-59.02-26.62-91.54-23.7-40.27 3.74-67.8 15.1-75.63 31.32l-.37.34z" fill="url(#paint13_linear)"/><path d="M310.48 72.34c19.66-5.6 39.8-7.47 57.6-5.15 24.63 3.2 45.23 12.82 57.56 18.59l2.59 1.25c7.57 3.48 9.75 4.15 15.2 5.54 8.3-14.12 34.93-23.7 75-26.9 31.93-2.53 64.38 5.83 88.96 23.25 23.08 16.32 42.06 40.85 57.82 75.11 4.27 9.24 8.2 18.92 12.16 28.25 12.6 30.58 24.55 59.34 46.09 78.45l.17.19.06.22c.63 2.63 1.31 5.02 1.89 7.44 5.26 20.11 8.82 33.42 6.58 47.8 16.04 21.26 12.25 57.8-8.75 83.4-22.63 27.72-60.12 41.22-87.61 47.77-2.53.6-4.95 1.18-7.51 1.67-16.1 3.65-31.45 7.09-43.57 18.53-6 5.7-11.81 11.7-17.96 18.15-14.31 14.89-29.1 30.14-45.62 40.6l-.4-.58.4.59c-39.26 24.58-90.39 28.94-133.4 11.14-42.06-17.37-79.76-53.24-103.44-98.4-6.66-12.66-12.44-25.93-18.13-38.87-10.92-24.71-22.2-50.27-38.93-71.45-20.81-26.48-50.43-46.34-73.9-60.67-25.58-15.6-25.44-42.3-24.85-50.1 1.42-18.5 15.52-33.32 27.58-44.15 3.16-2.9 6.72-5.68 10.32-8.7 7.42-6.1 15.9-13 23.95-21.86 29.15-32.03 62.75-57.11 96.88-72.48a164.69 164.69 0 0123.26-8.63zm133.63 21.8l-1.02-.3c-5.59-1.46-7.88-2.1-15.48-5.69L425 86.9c-12.99-6.04-32.64-15.23-57.16-18.46-24.74-3.16-53.88 1.74-80.2 13.6-34.04 15.33-67.31 40.32-96.38 72.21-8.15 8.9-16.61 15.9-24.14 22.03-3.6 3.02-7.15 5.8-10.32 8.7-11.87 10.66-25.7 25.18-27.14 43.2-.66 7.59-.62 33.65 24.27 48.86 23.6 14.41 53.35 34.35 74.31 60.9 16.76 21.3 28.07 46.96 39.02 71.79 5.66 12.83 11.58 26.17 18.1 38.76 23.5 44.97 60.9 80.57 102.8 97.75 42.69 17.54 93.28 13.34 132.14-11.01 16.43-10.32 31.22-25.58 45.43-40.43a514.42 514.42 0 0118.06-18.19c12.39-11.75 27.84-15.22 44.16-18.93 2.42-.57 4.98-1.07 7.51-1.67 27.28-6.49 64.55-19.93 86.92-47.33 20.63-25.26 24.35-61.2 8.47-81.92l-.18-.18.08-.14c2.27-14.27-1.25-27.48-6.52-47.58-.65-2.28-1.22-4.7-1.93-7.2-21.7-19.3-33.6-48.2-46.3-78.76-3.84-9.35-7.88-19-12.15-28.24-15.7-34.04-34.4-58.42-57.45-74.63-24.38-17.12-56.47-25.47-88.04-22.93-40.07 3.2-66.37 12.7-74.13 26.66l-.13.38z" fill="url(#paint14_linear)"/><path d="M318.98 72.5c19.88-5.67 40.18-7.35 58.2-4.73C403.8 71.8 425 83.14 438.72 91.32c2.57 1.62 4.56 2.81 6.4 3.93 3.3 2.11 5.71 3.54 9.42 5.42 10.44-14.84 45.57-20.16 73.35-21.97 31.01-2.03 62.22 6.1 85.45 22.5 21.91 15.47 40.53 40 55.14 72.7 4 9.08 7.84 18.44 11.5 27.6 11.7 29.08 22.58 56.52 42.47 74.8l.17.19.06.21c4.49 23.98 6.91 39.49 2.25 55.26 14.65 20.49 10.3 54.26-10.22 78.66-21.72 25.57-57.8 39.03-84.27 45.87-2.07.59-4.05 1.04-6.15 1.52-15.8 3.91-30.72 7.58-42.42 19.26-4.56 4.59-9.1 9.28-14 14.32-15.55 16.3-31.67 33.1-50.02 44.1l-.3-.63.3.62c-38.85 23.17-88.86 26.5-130.58 8.7-40.91-17.47-77.42-52.86-100.36-97.05-6.35-12.4-12.18-25.42-17.66-38.06-11.05-25.15-22.45-51.14-39.56-72.45-19.97-24.73-48.05-43.73-72.85-59.44-20.8-13.22-25.62-35.91-23.13-52.71 2.73-18.86 18.23-33.27 31.34-43.7 2.86-2.34 6-4.53 9.29-7 8.16-5.96 17.4-12.7 26.16-21.9 29.96-31.67 61.5-55.34 93.72-70.4 8.1-3.72 16.5-6.82 24.75-9.17zm136.03 29.8l-.53-.2a79.68 79.68 0 01-10.08-5.7c-1.73-1.15-3.72-2.35-6.3-3.96-13.58-8.1-34.64-19.37-61.02-23.35-25.28-3.83-55.21 1.18-82.15 13.79-32.12 15.03-63.47 38.53-93.35 70.06-8.84 9.34-18.19 16.11-26.35 22.08-3.32 2.35-6.32 4.62-9.31 6.88-12.93 10.26-28.17 24.36-30.88 42.86-2.37 16.41 2.3 38.57 22.54 51.47 24.97 15.9 53.16 34.87 73.19 59.81 17.28 21.5 28.72 47.6 39.76 72.75 5.49 12.64 11.2 25.7 17.63 37.95 22.77 44 59.1 79.21 99.74 96.52 41.3 17.58 90.85 14.26 129.29-8.68 18.28-10.85 34.28-27.62 49.73-43.89 4.9-5.04 9.43-9.74 14-14.32 12-11.88 27.1-15.72 43.04-19.56 2.1-.48 4.05-1.03 6.14-1.51 26.26-6.78 62.13-20.18 83.55-45.55 20.26-24.1 24.51-57.37 10.02-77.3l-.2-.3.15-.28c4.73-15.56 2.22-30.93-2.2-54.69-19.95-18.5-30.97-46-42.55-75.12-3.64-9.06-7.38-18.44-11.48-27.5-14.55-32.48-33-56.82-54.74-72.11-23.06-16.2-53.9-24.32-84.67-22.25-39.87 2.68-65.08 10.22-72.67 21.9l-.3.2z" fill="url(#paint15_linear)"/><path d="M327.56 72.52c20.1-5.73 40.68-7.25 58.81-4.2 27.64 4.68 49.38 17.5 62.86 27.29 3.7 2.7 6.22 4.92 8.56 6.95 2.51 2.22 4.71 4.18 7.88 6.21 8.1-9.47 31.65-15.01 71.78-17.17 30.64-1.7 59.75 6.1 81.97 21.84 21.05 14.9 38.7 38.52 52.43 70.2 3.82 8.88 7.39 18.08 10.86 26.96 10.65 27.5 20.66 53.53 38.8 71.02l.17.19.06.21c2.74 24 2.96 40.03-3.97 55.28 13.02 19.3 7.98 51.04-11.8 73.94-16.16 18.7-42.75 33.32-78.92 43.64l-1.74.5-4.67 1.32c-15.48 4.18-30.17 8.25-41.5 20.05-2.99 3.09-6.03 6.42-9.21 9.68-16.92 18.1-34.5 36.73-55.04 48.33a143.2 143.2 0 01-127.6 6.32c-39.63-17.47-75.06-52.35-97.28-95.69-6.15-12.1-11.8-24.93-17.2-37.25-11.17-25.59-22.7-52.01-40.3-73.42-19.38-23.48-46.5-41.58-70.54-57.51l-1.29-.8c-21.32-14.25-24.89-38.71-21.4-55.32 4.07-19.49 20.91-33.33 35.14-43.14 2.76-1.84 5.64-3.72 8.61-5.63 8.83-5.68 18.77-12.04 28.05-21.5 30.87-31.34 60.45-53.64 90.58-68.22 8.41-4.27 17.1-7.57 25.9-10.08zm138.35 37.95l-.45-.35a60.34 60.34 0 01-8.46-6.63c-2.31-1.92-4.86-4.25-8.53-6.84-13.37-9.81-34.94-22.45-62.33-27.1-25.94-4.46-56.55.63-83.98 13.97-29.95 14.4-59.42 36.67-90.18 67.99-9.4 9.49-19.4 15.98-28.34 21.7-2.98 1.9-5.85 3.78-8.61 5.63-14.02 9.74-30.7 23.3-34.65 42.4-3.36 16.23.08 40.26 20.82 54.08l1.28.8c24.07 16.04 51.3 34.11 70.85 57.78 17.78 21.59 29.34 48.12 40.5 73.71 5.4 12.32 10.91 25.07 17.17 37.15 22.02 43.04 57.28 77.73 96.65 95.16a141.81 141.81 0 00126.47-6.23c20.42-11.57 37.9-30.18 54.74-48.13a307.1 307.1 0 019.22-9.68c11.58-12.1 26.41-16.1 42.08-20.45l4.67-1.33c36.88-10.28 63.8-25 80.15-43.87 19.51-22.6 24.46-53.83 11.57-72.7l-.2-.3.15-.28c6.88-15 6.72-30.8 4.02-54.7-18.2-17.7-28.21-43.74-38.9-71.34-3.47-8.88-6.92-18.11-10.83-26.86-13.55-31.48-31.04-54.92-52.05-69.71-22.05-15.56-50.88-23.2-81.2-21.6-40.38 2.12-63.76 7.85-71.32 17.17l-.3.56z" fill="url(#paint16_linear)"/><path d="M336.06 72.68c20.42-5.82 41.07-7.13 59.54-3.7 31.41 5.95 53.72 22.02 64.2 31.13 4.02 3.44 6.64 6.45 9.34 9.32 2.39 2.6 4.63 5.13 7.7 7.66 9.8-8.9 39.54-11.27 70.33-12.41 29.72-1.2 57.6 6.36 78.47 21.08 20.31 14.4 37 37.12 49.74 67.78 3.66 8.71 6.9 17.65 10.1 26.37 9.65 26.02 18.65 50.58 35.03 67.28l.18.19.06.21c1.2 26.44-1.58 41.44-10.23 55.18 11.43 18.23 5.69 47.93-13.38 69.22-15.78 17.54-41.1 31.33-77.4 42.38l-2.93.84c-15.25 4.59-29.63 8.92-40.75 21.01l-3.49 3.82c-17.7 19.49-37.86 41.44-61.07 53.93a141.2 141.2 0 01-124.65 3.95c-38.9-17.8-72.3-51.37-94.19-94.34-5.98-11.92-11.4-24.35-16.62-36.48-11.26-25.91-22.8-52.8-41.05-74.38-17.26-20.56-40.16-36.23-62.33-51.4-2.92-1.98-5.7-3.9-8.47-5.8-21.93-15.12-24.3-40.75-19.68-57.92 5.39-20.21 23.7-33.42 39.02-42.72 2.6-1.56 5.32-3.16 8.18-4.68 9.42-5.26 20.01-11.34 29.76-20.81 20.1-19.7 51.16-47.94 87.34-66a151.56 151.56 0 0127.25-10.71zm140.75 45.95l-.45-.34a60.56 60.56 0 01-8.18-8.12c-2.56-2.8-5.29-5.77-9.21-9.23-10.44-9-32.47-24.92-63.63-30.83-26.56-5-57.88.06-85.92 14.16-36.08 18.03-67.03 46.23-87.05 65.8-9.82 9.61-20.56 15.61-29.95 20.99-2.82 1.63-5.57 3.11-8.18 4.68-15.13 9.13-33.11 22.24-38.42 41.95-4.46 16.9-2.16 41.84 19.2 56.65 2.78 1.91 5.6 3.93 8.47 5.8 22.18 15.18 45.11 30.95 62.5 51.6 18.28 21.67 29.97 48.64 41.15 74.7 5.22 12.13 10.64 24.56 16.6 36.36 21.7 42.78 54.91 76.06 93.56 93.82 39.18 17.95 85.39 16.52 123.6-3.89l.27.51-.26-.51c23.03-12.32 43.08-34.24 60.7-53.6l3.5-3.8c11.26-12.38 25.86-16.78 41.22-21.4l2.93-.83c36.12-10.88 61.18-24.72 76.78-42.09 18.8-20.97 24.42-50.29 13.12-68.09l-.2-.3.15-.27c8.57-13.6 11.4-28.39 10.27-54.6-16.42-16.81-25.55-41.45-35.24-67.58a813.13 813.13 0 00-10.1-26.36c-12.63-30.34-29.19-52.98-49.33-67.2-20.74-14.64-48.33-22.04-77.73-20.94-30.9 1.18-60.75 3.58-69.83 12.51l-.34.45z" fill="url(#paint17_linear)"/><path d="M344.42 72.76c20.64-5.88 41.56-7.03 60.27-3.2 34.6 7.27 57.3 26.75 65.5 34.87 4.2 4.08 7.05 7.86 9.71 11.44a80.52 80.52 0 007.85 9.39c9.6-6.26 37.01-6.91 68.72-7.73 28.8-.7 55.44 6.62 75 20.42 19.44 13.84 35.2 35.77 47.02 65.28 3.38 8.55 6.46 17.3 9.48 25.83 8.61 24.44 16.74 47.6 31.35 63.4l.17.19-.05.25c-.56 25.64-5.27 41.66-16.44 55.18 9.68 17.09 3.35 44.73-14.96 64.51-19.33 20.78-49.63 32.7-73.79 40.65l-.98.28c-15.12 5.02-29.41 9.68-40.3 22.17-19.35 22.32-40.34 45.1-64.9 57.38l-.26-.51.26.51c-37.99 19.17-83.52 19.7-121.71 1.47-37.64-17.93-69.94-50.88-91.1-93a644.33 644.33 0 01-16.2-35.77c-11.27-26.38-23.05-53.67-41.68-75.37-15.78-18.28-36.17-32.55-55.84-46.32a495.35 495.35 0 01-13.83-9.8c-21-15.15-24.13-41.39-17.85-60.56 6.87-21.21 27.68-34.31 42.8-42.26a637.6 637.6 0 018-4.04c9.9-4.82 21-10.34 31.11-19.8 25.2-23.62 52.76-47.68 84.18-63.92a186.28 186.28 0 0128.47-10.94zm143.26 53.93l-.34-.38c-3.28-3.28-5.72-6.47-8.32-9.84a96.31 96.31 0 00-9.58-11.36c-8.05-8.04-30.61-27.44-64.94-34.56-27.2-5.63-59.2-.5-87.88 14.25-31.35 16.1-58.9 40.16-84 63.76-10.18 9.6-21.5 15.17-31.4 19.99a400.84 400.84 0 00-7.9 4.01c-14.9 7.89-35.52 20.82-42.16 41.62-6.12 18.89-3.06 44.44 17.51 59.36 4.47 3.3 9.01 6.47 13.84 9.8 19.8 13.84 40.19 28.1 56 46.5 18.78 21.78 30.47 49.2 41.86 75.56 5.13 11.8 10.38 24.05 16.16 35.67 21 41.93 53.15 74.8 90.5 92.57 37.93 18.08 83.1 17.53 120.8-1.44 24.34-12.23 45.21-34.97 64.5-57.14 11.06-12.67 25.43-17.47 40.8-22.44l.98-.28c24.05-7.91 54.17-19.67 73.38-40.42 18.17-19.5 24.37-46.75 14.67-63.48l-.2-.3.26-.3c11.1-13.39 15.87-29.2 16.38-54.59-14.77-15.98-22.9-39.15-31.54-63.7-3.02-8.53-6.1-17.28-9.48-25.83-11.76-29.3-27.38-51.14-46.66-64.79-19.3-13.75-45.77-20.89-74.36-20.25-31.95.77-59.61 1.37-68.47 7.77l-.4.24z" fill="url(#paint18_linear)"/><path d="M352.78 72.84c20.86-5.94 42.06-6.94 61.14-2.63 36.39 8.18 58.85 29.73 66.8 38.62 4.29 4.76 7.2 9.22 10.08 13.56 2.51 3.87 4.96 7.51 8.13 11.2 7.35-3.05 23.9-3.07 46.85-2.91 6.47.03 13.15 0 20.3-.04 19.7-.1 48.23 3.16 71.52 19.77 18.58 13.26 33.52 34.37 44.31 62.76 3.21 8.37 6.05 17.07 8.9 25.42 7.57 22.85 14.8 44.51 27.76 59.49l.17.19-.05.24c-2.26 25.43-9.06 41.93-22.66 55.2 8.09 16.01 1.06 41.62-16.54 59.8-17.68 18.3-44.2 29.5-70.42 38.86-13.84 5-28.11 10.13-38.87 23.06-16.61 20-38.93 44.69-65.1 57.08-37.47 17.73-81.85 17.34-118.87-.87-36.35-17.94-67.59-50.49-87.98-91.53-5.72-11.4-10.77-23.36-15.73-34.98-11.4-26.8-23.16-54.46-42.4-76.22-14.4-16.33-32.8-29.4-50.62-42.05a534.9 534.9 0 01-17.91-12.98c-21.38-16.1-23.34-43.96-16.13-63.16 6.36-16.84 21.13-30.1 46.56-41.81 2.49-1.18 5.1-2.28 7.95-3.44 10.27-4.34 22-9.33 32.46-18.77 23.75-21.33 50.66-45.56 81.04-61.74a136.98 136.98 0 0129.31-12.12zm145.91 61.98l-.2-.3c-3.44-3.83-5.92-7.58-8.5-11.66-2.85-4.24-5.76-8.7-9.94-13.49-7.91-8.78-30.2-30.14-66.24-38.3-28-6.35-60.65-1.03-89.82 14.45-30.28 16.14-57.22 40.27-80.86 61.57-10.57 9.47-22.3 14.46-32.65 18.94a197.85 197.85 0 00-7.94 3.44c-25.11 11.62-39.8 24.73-46.04 41.19-7.08 18.8-5.14 46.2 15.79 61.96 5.81 4.33 11.7 8.53 17.9 12.98 17.83 12.65 36.34 25.7 50.91 42.21 19.27 21.87 31.06 49.63 42.6 76.52 4.96 11.62 10.01 23.57 15.73 34.97 20.36 40.94 51.43 73.3 87.5 91.08 36.66 18.2 80.8 18.54 117.93.9l.26.52-.26-.52c25.96-12.33 48.23-36.76 64.74-56.73 10.83-13.08 25.3-18.37 39.27-23.3 26-9.3 52.41-20.46 70.02-38.63 17.41-18 24.28-43.33 16.2-58.88l-.2-.3.02-.35c13.55-13.02 20.39-29.42 22.6-54.6-12.99-15.08-20.22-36.74-27.82-59.7a542.93 542.93 0 00-8.9-25.42c-10.73-28.17-25.53-49.2-43.93-62.27-23.13-16.43-51.3-19.67-70.86-19.5a1788 1788 0 01-20.3.04c-22.34-.1-39.85-.15-46.82 3.01l-.19.17z" fill="url(#paint19_linear)"/><path d="M361.14 72.93c21.07-6.01 42.56-6.85 61.98-2.17 37.85 9.17 60.26 32.61 68.1 42.36 4.33 5.33 7.35 10.58 10.31 15.6 2.7 4.52 5.12 8.88 8.55 13.07 5.15-.88 14.92-.38 28.26.28 10.38.57 23.25 1.24 37.4 1.44 19.08.2 46.38 3.68 68.01 19 17.71 12.7 31.72 33 41.63 60.36 2.96 8.32 5.66 16.94 8.26 25.24 6.53 21.28 12.73 41.35 24.01 55.4l.17.18-.04.25c-3.91 25.43-12.81 42.4-28.89 55.21 6.52 15.05-1 38.1-18.01 55.05-18.13 17.97-46.32 29.06-66.91 37.16-14.15 5.56-26.66 11.12-36.36 23.63-22.39 28.58-43.76 47.12-65.45 56.71-36.82 16.25-80.13 15.1-115.93-3.35-34.95-17.99-65.1-50.02-84.78-90.21-5.52-11.11-10.43-22.98-15.3-34.28-11.49-27.13-23.37-55.22-43-77.1-13.36-14.75-30.06-26.78-46.36-38.22-7.38-5.3-14.45-10.33-21.23-15.56-21.9-17.12-22.78-46.12-14.4-65.77 9.29-21.78 28.98-37.97 50.44-41.39 13.93-2.2 28.76-9.49 41.47-20.51 2.83-2.45 5.73-5.04 8.66-7.52 21.64-18.85 44.05-38.27 69.22-52.14a132.84 132.84 0 0130.2-12.72zm355.46 231c-11.32-14.16-17.54-34.34-24.08-55.62-2.6-8.3-5.15-16.84-8.22-25.13-9.74-27.17-23.7-47.27-41.26-59.87-21.39-15.28-48.44-18.72-67.38-18.84-14.12-.09-27.02-.87-37.4-1.43-13.59-.71-23.4-1.32-28.37-.25l-.33.09-.17-.19c-3.49-4.4-6.04-8.84-8.77-13.47-2.96-5.02-5.95-10.16-10.3-15.5-7.79-9.64-29.93-32.92-67.53-42.05-28.65-6.98-62.12-1.66-91.76 14.66-25.1 13.73-47.4 33.12-69.03 51.97-2.94 2.48-5.84 5.07-8.66 7.52-12.93 11.09-27.84 18.5-42 20.78-21.01 3.3-40.52 19.3-49.66 40.82-8.21 19.37-7.28 47.76 14.18 64.54a475.67 475.67 0 0021.22 15.55c16.22 11.59 33.14 23.56 46.54 38.4 19.76 21.97 31.68 50.16 43.2 77.41 4.76 11.33 9.78 23.17 15.3 34.28 19.61 39.97 49.6 71.82 84.41 89.72 35.51 18.3 78.5 19.55 115.1 3.36l.24.4-.24-.4c21.48-9.53 42.77-27.93 65.08-56.37 9.92-12.57 22.5-18.28 36.76-23.87 20.48-8.07 48.57-19.13 66.54-36.82 16.67-16.5 24.24-39.8 17.65-54.24l-.09-.32.3-.2c15.94-12.89 24.87-29.76 28.73-54.93z" fill="url(#paint20_linear)"/><path d="M368.96 73.16c21.5-6.13 43.7-6.94 63.25-1.82 27.64 7.15 53 24 69.4 46.1 4.41 6.02 7.62 11.91 10.55 17.65 2.77 5.2 5.34 10.1 8.85 14.98 2.99.2 7.4.83 13.01 1.57 11.98 1.64 29.98 4.26 51.16 4.8 26.88.78 48.6 6.93 64.54 18.35 16.98 12.19 30.03 31.6 38.92 57.84a510.75 510.75 0 017.61 25.07c5.58 19.55 10.84 38.01 20.34 51.16l.17.19-.04.24c-5.52 25.53-16.7 43.17-35.14 55.12 4.79 13.9-3.3 35-19.59 50.32-15.82 14.96-38.84 24.82-59.14 33.54l-4.3 1.81c-14.53 6.26-25.32 12.5-33.98 24.14-14.25 19.2-37.21 44.54-65.68 56.3-36.16 14.89-78.46 12.74-112.96-5.73-33.67-18-62.63-49.55-81.7-88.85-5.35-10.93-10.17-22.47-14.86-33.58-11.51-27.6-23.52-56.12-43.72-77.96-12.39-13.38-27.74-24.39-42.64-35.05-8.39-5.95-16.36-11.66-23.85-17.75-21.4-17.38-22.57-47.46-12.68-68.37 10.44-21.88 31.59-37.9 54.1-40.9 15.17-1.98 30.3-8.65 42.76-18.9a706.45 706.45 0 0016-13.48c18.54-15.73 37.7-32.12 58.75-43.99a149.78 149.78 0 0130.87-12.8zm346.72 236.2c-9.53-13.26-14.8-31.72-20.37-51.27a510.39 510.39 0 00-7.62-25.07c-8.83-26.02-21.74-45.36-38.55-57.36-15.77-11.24-37.26-17.44-64-18.16-21.21-.64-39.3-3.12-51.3-4.86a248.07 248.07 0 00-13.16-1.66l-.25-.04-.17-.19c-3.53-4.98-6.25-9.96-9.05-15.27-3.04-5.7-6.1-11.53-10.5-17.44-16.25-22.02-41.44-38.68-68.83-45.79-29.05-7.57-64.1-2.03-93.7 14.86-21.01 11.98-40.1 28.22-58.63 43.96-5.31 4.45-10.67 9.15-16 13.49-12.47 10.24-27.78 17.07-43.2 19-22.19 2.92-43.16 18.77-53.44 40.37-9.66 20.49-8.5 50.1 12.48 67.25 7.5 6.09 15.32 11.72 23.71 17.67 14.9 10.67 30.37 21.64 42.78 35.13 20.27 22.06 32.27 50.57 43.92 78.26 4.7 11.1 9.51 22.65 14.75 33.6 19.01 39.1 47.8 70.46 81.36 88.49 34.37 18.39 76.31 20.52 112.25 5.7l.12.43-.12-.44c28.36-11.72 51.13-36.89 65.3-55.96 8.75-11.77 19.61-18.15 34.37-24.48l4.3-1.8c20.18-8.7 43.1-18.52 58.84-33.34 16.1-15.16 24.22-36.15 19.2-49.63l-.1-.33.3-.2c18.6-12.23 29.73-29.61 35.3-54.92z" fill="url(#paint21_linear)"/><path d="M377.22 73.28c21.72-6.2 44.2-6.85 64.22-1.29 28.54 7.84 54.37 25.96 70.7 49.84 4.46 6.6 7.74 13.17 10.86 19.57 2.85 5.88 5.6 11.44 9.19 16.99 9 2.72 32.24 9.71 62.7 11.13 26.33 1.3 46.3 7.11 60.93 17.62 16.14 11.72 28.37 30.32 36.2 55.33 2.64 8.4 4.84 16.94 6.98 25.26 4.47 17.74 8.8 34.6 16.6 46.7l.06.21-.08.15c-7.21 25.77-20.73 43.84-41.46 55.15 3.15 12.72-5.73 31.81-21.07 45.58-13.76 12.26-33.17 21.2-50.32 29.03-3.32 1.53-6.64 3.06-9.74 4.54-11.07 5.26-22.47 11.8-31.48 24.7-10.91 15.68-34.03 43.76-66.02 55.94-35.6 13.55-76.64 10.46-110.14-8.18-32.27-18.04-60.28-49.16-78.61-87.5-5.18-10.74-9.8-21.99-14.32-32.91-11.6-27.93-23.62-56.92-44.32-78.85-11.58-12.2-25.75-22.37-39.55-32.06-8.81-6.17-17.85-12.76-25.88-19.5-21.82-18.45-22.02-49.63-10.93-70.88 11.45-22.05 34.17-37.92 57.9-40.34 11.64-1.2 28.72-5.14 43.94-17.23a667.3 667.3 0 0021.3-17.58c15.89-13.45 32.37-27.31 50.2-37.68a140.3 140.3 0 0132.14-13.74zm337.5 241.4c-7.82-12.22-12.15-29.07-16.63-46.82a500.67 500.67 0 00-6.93-25.15c-7.8-24.9-19.9-43.41-35.87-54.95-14.62-10.5-34.32-16.16-60.53-17.5-30.6-1.49-54.14-8.64-63-11.28l-.13-.08-.03-.1c-3.72-5.64-6.48-11.2-9.36-17.19-3.12-6.39-6.26-12.89-10.73-19.49-16.26-23.66-41.84-41.73-70.24-49.49-29.92-8.14-65.7-2.64-95.57 14.92-17.8 10.47-34.17 24.3-50.1 37.65-7.01 5.87-14.29 12.06-21.4 17.6-15.44 12.16-32.74 16.15-44.37 17.36-23.49 2.47-45.92 18.14-57.2 39.91-10.94 20.97-10.64 51.65 10.75 69.86 8.03 6.75 16.62 13 25.85 19.4 13.83 9.8 28 19.97 39.59 32.17 20.83 22.01 32.85 51 44.49 79.03a767.15 767.15 0 0014.31 32.91c18.3 38.24 46.15 69.17 78.28 87.14 33.22 18.47 74.01 21.52 109.39 8.03l.12.43-.12-.43c31.78-12.11 54.7-40.02 65.62-55.7 9.07-12.68 20.55-19.36 31.72-24.66 3.1-1.47 6.42-3 9.75-4.54 17.03-7.8 36.34-16.7 50-28.94 15.36-13.65 24.06-32.57 20.74-45.02l-.09-.32.3-.2c20.79-11.1 34.26-28.92 41.4-54.55z" fill="url(#paint22_linear)"/><path d="M385.44 73.28c21.94-6.25 44.73-6.64 65.17-.85 29.44 8.52 55.67 28.05 72 53.58 4.61 7.14 7.87 14.43 11.06 21.5 2.93 6.57 5.76 12.8 9.5 18.9 11.38 6.16 34.16 13.99 61.25 15.9 17.6 1.2 39.99 4.33 57.45 16.97 15.1 10.96 26.66 29.27 33.52 52.91 2.45 8.58 4.32 17.21 6.24 25.59 3.59 15.89 6.82 30.94 13.02 41.97l.06.21-.08.15c-8.76 26.1-24.84 44.66-47.68 55.16 1.45 11.68-7.84 28.54-22.64 40.87-11.85 9.95-27.33 17.42-42.2 24.59-5.04 2.5-9.79 4.79-14.4 7.16-13.28 6.96-22.05 14.5-29.07 25.31-17.51 26.72-41.67 47-66.22 55.64-34.79 12.27-74.9 8.32-107.17-10.55-30.99-18.05-57.77-48.58-75.53-86.15-5-10.55-9.56-21.58-13.91-32.32-11.73-28.36-23.74-57.7-45.04-79.7-10.8-11.13-24.05-20.5-36.7-29.46-9.4-6.6-19.13-13.57-27.57-20.91-10.19-8.96-16.18-21.34-17.37-35.8a67.97 67.97 0 018.13-37.79c12.46-22.22 36.64-37.92 61.68-39.9 18.47-1.5 33.24-6.53 45.25-15.48 8.43-6.28 17.05-13.55 25.29-20.48 13.73-11.55 27.95-23.47 43.16-32.73a134.8 134.8 0 0132.8-14.29zM713.8 320.1c-6.12-11.17-9.46-26.19-13.05-42.07-1.92-8.38-3.83-17.12-6.24-25.59-4.67-16.4-14.2-38.7-33.15-52.43-17.32-12.56-39.67-15.59-57.06-16.85-27.23-1.99-50.26-9.87-61.64-16.01l-.14-.08-.03-.11c-3.77-6.2-6.8-12.74-9.67-19.09-3.16-6.96-6.42-14.26-11.03-21.4-16.15-25.34-42.25-44.79-71.55-53.23-30.85-8.94-67.28-3.25-97.5 15.12-15.1 9.23-29.32 21.16-43.06 32.7-8.24 6.93-16.85 14.2-25.28 20.48-12.12 8.98-27.08 14.18-45.66 15.72-24.68 1.99-48.68 17.52-61.08 39.5-11.76 20.96-12.58 53.49 9.03 72.46 8.44 7.34 18.14 14.2 27.46 20.94 12.8 9.04 26.04 18.41 36.88 29.65 21.33 22.1 33.44 51.41 45.2 79.89 4.35 10.73 8.9 21.76 13.88 32.2 17.7 37.36 44.35 67.8 75.19 85.79 32.1 18.68 71.86 22.61 106.46 10.52l.12.43-.12-.43c24.44-8.62 48.52-28.75 65.85-55.3 7.13-10.84 15.97-18.53 29.36-25.52 4.5-2.34 9.36-4.66 14.4-7.16 14.87-7.17 30.22-14.72 42.09-24.56 14.8-12.32 23.9-29.01 22.27-40.52l-.1-.33.33-.1c23.01-10.31 39.01-28.73 47.84-54.62z" fill="url(#paint23_linear)"/><path d="M393.55 73.32c22.16-6.32 45.33-6.59 66.18-.2 30.34 9.2 56.94 30.04 73.3 57.32 4.66 7.7 7.99 15.68 11.23 23.33 2.91 6.92 5.92 14.17 9.84 20.92 10.12 7.92 31.77 17.95 59.79 20.65 18.83 1.8 38.53 4.99 53.97 16.32 18.22 13.24 26.82 34.75 30.81 50.4 2.3 8.86 3.9 17.8 5.53 26.38 2.53 13.84 4.96 26.88 9.45 36.88l.03.1-.07.14c-10.43 26.46-29.07 45.52-54.05 55.1-.29 10.54-10.16 25.33-24.08 36.23-10 7.78-22.61 14.2-34.82 20.38a353.02 353.02 0 00-18.38 9.7c-11.59 6.71-19.77 14.68-26.58 25.78-16.18 26.46-41.05 47.17-66.57 55.27-34.12 10.9-73.08 6.04-104.2-12.92-29.6-18.1-55.3-48.12-72.42-84.7-4.8-10.25-9.19-21.1-13.48-31.62-11.74-28.83-23.84-58.5-45.6-80.47-10.2-10.25-22.41-18.86-34.3-27.22-9.96-6.9-20.25-14.19-28.98-22.15-22.27-20.43-20.45-54.41-7.49-76.08 15.08-24.96 43.85-35.28 65.34-39.4 3-.63 6.05-1.03 9.29-1.6 12.57-2.06 25.6-4.13 37.25-12.27 9.48-6.7 18.95-14.68 28.12-22.46 11.81-10.06 24.14-20.38 37.19-28.57a127.07 127.07 0 0133.7-15.24zm319.31 252.1c-4.5-9.99-6.92-23.04-9.46-36.87-1.62-8.58-3.23-17.52-5.52-26.38-3.96-15.55-12.53-36.94-30.47-50.03-15.38-11.11-34.86-14.37-53.7-16.16-28.12-2.67-50.05-12.86-60.2-20.89l-.14-.07c-3.96-6.86-6.96-14.1-10.01-21.1-3.24-7.66-6.57-15.63-11.24-23.34a129.84 129.84 0 00-72.84-56.98c-31.75-9.62-69-3.93-99.45 15.32-12.94 8.15-25.26 18.48-37.07 28.54-9.18 7.78-18.64 15.76-28.13 22.46-11.73 8.28-25.44 10.43-37.54 12.47-3.24.57-6.3.97-9.19 1.56-21.34 4.2-49.93 14.35-64.92 39.18-12.81 21.38-14.65 54.9 7.34 75.18 8.73 7.96 19 15.13 28.84 22.07 11.9 8.35 24.2 16.94 34.44 27.3 21.9 22.05 34.06 51.93 45.8 80.76 4.3 10.52 8.65 21.26 13.48 31.62 17.1 36.47 42.66 66.4 72.1 84.43 30.99 18.88 69.81 23.67 103.6 12.86l.1.33-.1-.33c25.28-8.14 50.1-28.6 66.2-54.92 6.9-11.25 15.15-19.36 26.85-26.1 5.65-3.25 11.8-6.41 18.38-9.7 12.1-6.15 24.75-12.45 34.63-20.2 16.25-12.62 23.77-27.45 23.82-35.92l.04-.25.22-.06c25.1-9.62 43.65-28.53 54.14-54.77z" fill="url(#paint24_linear)"/><path d="M401.37 73.55c22.48-6.4 46.51-6.56 67.56.12 31.1 9.8 58.24 32.13 74.6 61.05 4 7.08 6.61 14.56 9.12 21.71 3.4 9.48 6.55 18.45 12.49 26.5 7.42 9.98 28.28 21.77 58.33 25.42 17.74 2.1 36.23 5.17 50.46 15.55 17.22 12.6 24.82 33.09 28.13 48 2.06 9.28 3.33 18.66 4.61 27.7 1.56 11.64 3.04 22.61 6.1 31.25l.03.11-.08.14c-12.35 27.13-33.1 46.2-60.27 55.12-1.77 7.78-10.34 20.56-25.66 31.5-8.2 5.86-18.22 11.07-27.84 16.04-7.87 4.13-15.33 8.01-21.88 12.23-10.12 6.52-17.37 14.46-24.18 26.39-15.19 26.64-40.22 47.17-66.8 54.86a31 31 0 00-.32.1c-33.24 9.47-70.95 3.66-100.95-15.5-28.7-18.24-52.66-47.11-69.33-83.34a671.04 671.04 0 01-13.04-30.93c-11.73-29.18-23.98-59.4-46.32-81.32-9.63-9.47-21.04-17.38-32.15-25.01-10.37-7.14-21.09-14.66-30.08-23.13-22.6-21.63-19.92-56.68-5.76-78.69 13.02-20.27 37.58-34.2 69.1-38.96 3.14-.54 6.33-.86 9.75-1.25 12.83-1.54 26.23-3.13 38.09-10.98 10.27-6.8 20.27-15.4 30-23.7 10.29-8.8 20.87-17.81 32.06-25.11a119.08 119.08 0 0134.23-15.87zM711.83 330.9c-2.94-8.68-4.42-19.65-5.98-31.3-1.28-9.03-2.52-18.3-4.58-27.58-3.28-14.8-10.71-35.11-27.78-47.63-14.1-10.3-32.56-13.26-50.2-15.4-30.15-3.61-51.29-15.55-58.74-25.64-5.94-8.06-9.22-17.1-12.52-26.61-2.54-7.27-5.22-14.6-9.1-21.6-16.2-28.85-43.18-50.99-74.14-60.72-32.26-10.17-71.1-4.27-101.42 15.41-11.19 7.3-21.77 16.31-32.06 25.12-9.73 8.29-19.73 16.9-30.11 23.73-11.93 7.98-25.34 9.57-38.3 11.04-3.42.38-6.58.82-9.64 1.22-18.22 2.84-51.3 11.57-68.7 38.72-13.97 21.84-16.68 56.43 5.62 77.79 8.88 8.5 19.57 15.91 29.94 23.05 11.14 7.75 22.55 15.65 32.29 25.09 22.48 22 34.62 52.25 46.38 81.55a669.3 669.3 0 0013.04 30.92c16.64 36.12 40.58 64.88 69.13 83.05 29.86 19.08 67.43 24.8 100.45 15.4l.32-.1.1.33-.1-.33c26.47-7.66 51.32-28.01 66.43-54.52 6.9-12.06 14.14-20 24.37-26.56 6.55-4.21 14.01-8.1 21.88-12.22 9.62-4.98 19.54-10.15 27.73-16.01 15.32-10.95 23.81-23.58 25.37-31.3l.07-.15.22-.06c27.09-8.78 47.87-27.74 60.03-54.7z" fill="url(#paint25_linear)"/><path d="M409.48 73.59c22.7-6.47 47.01-6.47 68.65.63 31.88 10.52 59.51 34.11 75.78 64.82 4.1 7.76 7.02 15.97 9.75 23.88 3.45 10.06 6.72 19.46 12.52 28.26 7.73 11.88 28.28 25.87 56.87 30.17l.74.14c15.45 2.29 32.88 4.95 46.25 14.76 12.78 9.4 21.72 25.52 25.3 45.52 1.82 10.05 2.55 20.06 3.31 29.7.74 9.19 1.32 17.83 2.87 24.9l.03.12-.08.13c-13.85 27.2-37.2 46.66-65.86 54.83l-.76.22c-3.03 6.27-11.94 17.03-27.1 26.87-6.34 4.15-13.8 8.04-21.04 11.87-8.79 4.62-17.9 9.33-25.18 14.7-10.7 7.74-16.74 17.45-21.77 26.99-14.04 26.55-39.67 47.48-67.14 54.49-32.5 8.32-69.25 1.77-98.42-17.74-27.26-18.18-50.14-46.54-66.24-82-4.46-9.88-8.61-20.32-12.64-30.33-11.85-29.62-23.98-60.22-46.93-82.21-9.05-8.7-19.84-16.07-30.19-23.1-10.8-7.38-21.86-14.9-30.9-23.96-10.17-10.13-15.98-24.33-16.22-40a72.6 72.6 0 0112.18-41.28c19.27-28.4 53.98-36.41 72.87-38.51 3.3-.36 6.64-.6 10.2-.91 13.09-1.03 26.76-2.11 38.81-9.66 10.88-6.74 21.22-15.8 31.18-24.5 8.85-7.7 18.07-15.73 27.72-22.24 11.02-7.48 22.95-13 35.44-16.56zm301.44 262.72c-1.55-7.07-2.25-15.68-2.88-24.9-.75-9.65-1.49-19.65-3.3-29.7-3.63-19.75-12.54-35.77-25.07-45.11-13.23-9.74-30.63-12.3-45.97-14.61l-.75-.14c-28.7-4.27-49.41-18.44-57.29-30.4-5.68-8.84-9.21-18.75-12.54-28.37-2.73-7.92-5.63-16.02-9.72-23.77-16.2-30.5-43.7-54.01-75.44-64.46C444.62 63.81 405 69.82 374.6 90.46c-9.65 6.51-18.76 14.51-27.72 22.23-9.96 8.72-20.33 17.66-31.29 24.54-12.16 7.58-25.83 8.66-39.03 9.72-3.55.31-6.89.56-10.2.91-18.86 2.2-53.38 10.05-72.46 38.28-15.06 22.14-18.74 57.83 4.03 80.46 9.01 8.94 20.08 16.47 30.88 23.85 10.37 7.14 21.16 14.51 30.33 23.18 23.05 21.96 35.21 52.67 47.1 82.4 4.02 10 8.17 20.45 12.63 30.33 16.07 35.35 38.92 63.6 66.04 81.7 29.03 19.43 65.56 26.05 97.92 17.64 27.23-7.06 52.8-27.74 66.74-54.25 5.03-9.54 11.15-19.39 21.96-27.17 7.42-5.28 16.5-10.1 25.28-14.72 7.14-3.8 14.6-7.69 20.97-11.73 15.16-9.84 24.07-20.6 27.02-26.73l.08-.14.1-.03.88-.25c28.13-8.02 51.28-27.3 65.06-54.37z" fill="url(#paint26_linear)"/><path d="M417.56 73.52c22.92-6.54 47.54-6.27 69.76 1.25 32.65 11.12 60.69 36.13 77.06 68.45 4.31 8.52 7.32 17.41 10.26 26.08 3.45 10.06 7 20.44 12.4 29.94 7.42 12.8 26.44 29.69 55.41 34.93 1.35.2 2.6.44 3.97.75 13.87 2.5 28.1 5.02 39.56 13.5 16.23 12.05 21.14 32.14 22.59 43 1.57 11.3 1.54 22.7 1.48 32.8.05 6.34 0 12.34.41 17.5l.03.12-.07.14c-15.9 28.25-41.82 47.73-72.85 55.06-5.89 6.96-16.66 15.31-28.68 22.15-4.44 2.55-9.16 4.95-14.17 7.56-10.13 5.24-20.7 10.6-28.68 17.22-9.15 7.42-14.21 16.85-19.26 27.57-12.99 26.95-38.89 47.72-67.34 54.2-31.67 7.14-67.4-.4-95.49-20.23-25.83-18.12-47.66-46.07-63.15-80.64-4.3-9.7-8.35-19.81-12.2-29.63-11.84-29.98-24.13-61.12-47.5-83-8.63-7.99-18.66-14.76-28.42-21.37-11.04-7.42-22.5-15.08-31.55-24.6-10.19-10.6-15.8-25.32-15.8-41.4a74.3 74.3 0 0113.52-42.38c15.36-21.52 43.35-35.37 76.64-38.05 3.44-.28 7.03-.48 10.75-.6 13.36-.52 27.15-1.16 39.55-8.34 11.26-6.62 21.68-15.81 31.8-24.8 7.66-6.89 15.66-13.86 23.96-19.75 10.86-8.03 23.2-13.78 36.01-17.43zm292.4 268.11c-.4-5.16-.33-11.06-.37-17.39-.06-10.08-.02-21.48-1.57-32.67-1.45-10.86-6.4-30.7-22.39-42.7-11.32-8.4-25.54-10.92-39.27-13.35-1.35-.2-2.73-.51-3.97-.75-29.11-5.32-48.28-22.28-55.72-35.2-5.51-9.46-9.06-19.84-12.4-29.92-2.95-8.68-5.95-17.57-10.23-25.98-16.34-32.21-44.35-57.11-76.75-68.19-34.48-11.78-74.78-5.69-105.3 15.81-8.3 5.89-16.25 12.97-23.95 19.75-10.12 9-20.5 18.3-31.91 24.83-12.4 7.18-26.3 7.85-39.77 8.4-3.72.13-7.2.3-10.75.6-33.18 2.65-60.96 16.44-76.23 37.83-16.27 22.84-19.84 60.14 2.3 83.07 9.03 9.4 20.5 17.06 31.53 24.48 9.76 6.61 19.9 13.35 28.55 21.45 23.52 21.95 35.8 53.1 47.67 83.18a762.01 762.01 0 0012.2 29.63c15.47 34.47 37.26 62.31 62.96 80.35 28.05 19.72 63.54 27.21 95.1 20.1 28.34-6.44 54.06-27.04 66.96-53.86 5.16-10.74 10.22-20.17 19.46-27.74 8-6.5 18.54-11.98 28.78-17.25 5.01-2.6 9.73-5 14.06-7.53 12-6.94 22.69-15.16 28.57-22.12l.11-.03.1-.03c30.71-7.23 56.41-26.65 72.24-54.77z" fill="url(#paint27_linear)"/><path d="M425.35 73.65c5-1.43 10.09-2.53 15.38-3.33 19.03-2.84 38.33-1.07 55.72 5.13 33.33 11.87 61.95 38.12 78.36 72.2 4.52 9.28 7.74 18.93 10.8 28.4 3.46 10.51 7.13 21.33 12.37 31.46 8.12 15.3 26.54 33.77 53.94 39.7 2.02.48 4.25.9 6.27 1.38 11.84 2.38 23.95 4.92 33.75 12.1 11.21 8.43 18.46 23.16 19.91 40.6 1.06 13.2-.39 26.65-1.57 37.32-.31 3.02-.66 5.94-.84 8.58l-.08.14c-17.6 28.5-46.4 48.57-79.1 54.96-7.42 5.28-18.2 11.53-30.12 17.51-2.16 1.09-4.35 2.06-6.61 3.18-11.25 5.44-24.07 11.56-32.8 19.68-7.67 7.24-11.65 16.36-15.97 25.93l-.91 2.14c-11.81 26.97-38.44 48.07-67.69 53.82-15.36 2.97-32.06 2.45-48.12-1.55a126.63 126.63 0 01-44.4-21.04c-24.4-18.06-45.11-45.39-60.03-79.18-4.23-9.48-8.01-19.44-11.8-29.05-11.86-30.44-24.13-61.94-48.22-83.84-8.22-7.4-17.63-13.65-26.87-19.7-11.29-7.47-23-15.17-32.15-25.01-10.2-11.07-15.68-26.18-15.38-42.82.3-15.47 5.64-31.32 14.72-43.54 16.67-22.25 45.99-36.01 80.4-37.6 3.7-.23 7.6-.17 11.32-.3 13.59-.1 27.64-.24 40.16-6.98 11.61-6.25 21.96-15.66 31.91-24.83 6.6-6.11 13.52-12.31 20.69-17.65a120.37 120.37 0 0136.96-17.81zm283.7 273.41c.19-2.63.56-5.44.87-8.47 1.25-11.27 2.64-24.12 1.57-37.32-1.5-17.19-8.6-31.84-19.78-40.16-9.7-7.22-21.78-9.64-33.5-12.05l-6.38-1.36c-27.58-6.11-46.13-24.66-54.25-39.96-5.32-10-8.91-20.95-12.49-31.43-3.16-9.44-6.38-19.09-10.8-28.4-16.37-33.97-44.89-60.24-78.19-72-35.65-12.62-76.78-6.53-107.23 16-7.17 5.34-13.98 11.5-20.69 17.65-10.06 9.2-20.4 18.62-32.01 24.86-12.63 6.77-26.8 6.94-40.39 7.05-3.75.02-7.61.06-11.2.26-34.28 1.67-63.52 15.29-80.08 37.5-17.36 23.16-21.8 61.54.62 85.8 9 9.76 20.71 17.46 32 24.93 9.24 6.05 18.69 12.4 26.9 19.8 24.2 21.88 36.5 53.48 48.39 84.04a583.78 583.78 0 0011.8 29.04c14.9 33.69 35.6 61.02 59.87 79 27.07 20 61.55 28.48 92.24 22.43 29.03-5.69 55.47-26.62 67.3-53.48l.92-2.14c4.3-9.68 8.27-18.8 16.03-26.17 8.72-8.13 21.62-14.39 32.87-19.83 2.26-1.11 4.45-2.09 6.6-3.17 12.03-6.02 22.74-12.12 30.13-17.52a120.7 120.7 0 0078.88-54.9z" fill="url(#paint28_linear)"/><path d="M433.1 73.67c23.47-6.7 49.22-6.17 72.44 2.36 34.09 12.48 63.11 40.14 79.66 75.94 4.63 10.07 8.1 20.59 11.37 30.81 3.59 10.96 7.27 22.23 12.42 32.86 10.78 22.18 30.43 38.77 52.51 44.57 2.55.69 5.3 1.3 7.93 1.85 10.05 2.3 20.35 4.65 28.58 10.88 10.46 7.82 16.87 22.08 17.2 38.07.4 16.22-2.1 31.37-6.8 41.64-14.74 31.91-50.23 44.61-85.32 54.97-5.76 1.64-12.32 4.57-19.86 7.78a357.6 357.6 0 01-11.84 5.02c-12.74 5.16-27.1 11.6-35.9 21.15-6.08 6.67-9.1 14.58-12.3 23.13a132.8 132.8 0 01-2.18 5.55c-5.32 13.49-14.72 25.8-26.94 35.27-12.1 9.44-26.29 15.72-40.9 18-15.27 2.48-31.06 1.46-47.05-3.14a125.44 125.44 0 01-42.64-21.9c-23.26-18.14-42.35-44.3-56.96-77.83-4.05-9.29-7.74-18.92-11.37-28.34-11.86-30.91-24.14-62.87-48.78-84.62-7.7-6.85-16.75-12.6-25.4-18.24-11.5-7.4-23.46-15.16-32.48-25.38-10.22-11.54-15.53-27.28-14.97-44.24.6-16.02 6.4-32.36 16.05-44.62 9.29-11.93 21.89-21.27 37.44-27.7 14.06-5.89 30.28-9.1 46.63-9.42 3.87-.05 7.87-.01 11.9.13 13.82.29 28.14.67 40.9-5.67 11.73-5.81 21.8-15.38 31.64-24.52 5.74-5.4 11.67-10.96 17.82-15.77a109.96 109.96 0 0137.2-18.6zm49.94 447.4c26.06-7.44 48.07-26.63 57.69-50.98.76-1.86 1.41-3.69 2.17-5.55 3.2-8.55 6.2-16.56 12.4-23.26 8.86-9.7 23.26-16.03 36.07-21.33 4.23-1.67 8.09-3.36 11.84-5.02 7.51-3.31 14.1-6.13 19.86-7.77 35-10.33 70.48-23.03 85.14-54.8 4.63-10.13 7.12-25.29 6.75-41.4-.4-15.85-6.76-29.89-17.1-37.74-8.2-6.12-18.5-8.47-28.45-10.8-2.65-.66-5.38-1.17-7.92-1.85a77.15 77.15 0 01-32.43-17.77 87.85 87.85 0 01-20.26-26.99c-5.14-10.62-8.83-21.9-12.42-32.86-3.27-10.22-6.74-20.74-11.37-30.81-16.52-35.7-45.5-63.24-79.49-75.75-36.34-13.36-79.27-7-109.2 16.1-6.15 4.8-12.08 10.37-17.82 15.77-9.81 9.25-19.88 18.82-31.72 24.66-12.87 6.37-27.18 5.99-41.11 5.73-3.9-.06-7.93-.2-11.8-.16-35.41.59-65.96 14.11-83.85 37.06-18.33 23.43-23.72 63.01-1.1 88.4 9 10.11 20.95 17.86 32.45 25.26 8.66 5.64 17.7 11.4 25.43 18.36 24.78 21.82 37.1 53.9 48.96 84.8 3.63 9.42 7.34 19.16 11.37 28.35 14.47 33.45 33.66 59.57 56.81 77.75 26.16 20.49 59.57 29.75 89.3 24.92 3.25-.58 6.54-1.4 9.8-2.32z" fill="url(#paint29_linear)"/><path d="M441.05 73.52c23.57-6.72 49.85-6 73.69 3.06 34.74 13.11 64.27 42.16 80.96 79.67 4.85 10.84 8.45 22.25 11.97 33.35 3.6 11.42 7.3 23.16 12.33 34.18 6.61 14.55 22.07 40.33 51.05 49.33 2.97.91 6 1.7 9.05 2.47 8.37 2.2 17.07 4.3 23.99 9.6 9.64 7.47 15.27 21.01 14.48 35.56a82.03 82.03 0 01-11.11 37.23c-9.05 14.8-22.32 27.15-39.63 36.9-14.88 8.35-32.4 14.4-52.02 18.12-12.47 2.38-23.02 4.92-33.25 8.18-15.3 4.83-26.24 11.36-32.52 19.38-4.92 6.21-7.07 13.52-9.42 21.35-.79 2.58-1.55 5.26-2.56 7.9-9.73 27.66-37.12 48.98-68.15 53.01-14.95 1.92-30.43.34-45.83-4.66a127.57 127.57 0 01-40.87-22.64c-21.66-17.9-39.82-43.73-53.86-76.48-3.86-9-7.4-18.56-10.97-27.76-11.88-31.37-24.18-63.8-49.5-85.47-7.44-6.34-15.9-11.68-24.06-16.86-11.73-7.35-23.8-15.06-32.77-25.54-10.23-12-15.34-28.27-14.46-45.79.85-16.8 7-33.11 17.35-45.81 9.9-12.22 23.2-21.64 39.31-28.12 14.77-5.85 31.53-8.87 48.5-8.66 4.11 0 8.29.22 12.46.44 14.05.7 28.6 1.48 41.62-4.35 11.86-5.37 21.6-14.85 30.95-24.09 4.96-4.82 10-9.78 15.35-14.12a108.13 108.13 0 0137.92-19.38zm192.4 335.02c33.67-9.6 59.54-27.19 73.76-50.62 6.4-10.51 10.4-24.1 11.04-37.08.7-14.41-4.81-28-14.4-35.24-6.91-5.31-15.5-7.44-23.88-9.63-3.04-.78-6.08-1.56-9.04-2.47-11.46-3.55-22.04-10.16-31.34-19.72-7.97-8.18-14.77-18.46-20-29.77-5.05-11.12-8.75-22.87-12.36-34.29-3.51-11.1-7.12-22.51-11.94-33.23C578.64 119.08 549.24 90.1 514.5 77c-37.76-14.25-81.37-7.8-111.14 16.3-5.34 4.34-10.38 9.3-15.35 14.13-9.45 9.27-19.2 18.74-31.06 24.12-13.12 5.85-27.64 5.18-41.73 4.38-4.06-.25-8.34-.44-12.35-.47-36.05-.41-68.79 13.27-87.62 36.6-22 27.06-23.26 67.11-2.82 91 8.97 10.48 21.04 18.2 32.65 25.57 8.17 5.18 16.62 10.52 24.1 16.97 25.35 21.77 37.65 54.2 49.56 85.69a640.08 640.08 0 0010.94 27.64c14.03 32.76 32.06 58.5 53.72 76.4 25.66 21.22 57.15 31.16 86.45 27.26 31.03-4.03 58.2-25.28 67.85-52.81.9-2.6 1.77-5.32 2.57-7.9 2.38-7.72 4.6-15.16 9.52-21.38 6.36-8.16 17.3-14.68 32.71-19.54 10.23-3.27 20.88-5.84 33.25-8.2 6.2-1.3 12.05-2.6 17.7-4.22z" fill="url(#paint30_linear)"/><path d="M448.59 73.6a112.45 112.45 0 0115.95-3.38 121.06 121.06 0 0159.28 6.94c18.1 7.05 34.7 18.3 49.2 33.3 13.63 14.08 25.06 31.5 33.07 50.11 4.95 11.62 8.84 24.02 12.46 35.9 3.7 11.75 7.42 23.96 12.35 35.47 8.26 19.5 23.63 44.59 49.6 54.1 3.13 1.1 6.34 2.06 9.52 2.92 7.02 1.99 14.16 3.94 20 8.39 8.92 6.96 13.57 19.97 11.8 33.15-1.49 10.41-6.5 21.24-15.53 32.85a142.82 142.82 0 01-43.4 37.27 143.65 143.65 0 01-54.39 17.62 212 212 0 01-12.41.95c-7.38.47-14.99.99-22.42 2.52-13.28 2.85-23.6 9.08-29.02 17.67-3.9 6.05-5.51 13.2-7.06 20.1-.75 3.15-1.44 6.51-2.43 9.62-4.23 14-13.33 26.58-26.22 36.13a85.65 85.65 0 01-42.27 16.5c-28.44 2.83-59.02-8.06-83.87-29.75-20.49-17.88-37.13-42.5-50.78-75.12-3.69-8.82-7.14-18.05-10.53-27.06-11.9-31.84-24.21-64.74-50.1-86.36-7.08-5.85-15.08-10.85-22.77-15.59-11.83-7.31-23.98-14.89-32.94-25.72-10.13-12.5-15.15-29.27-14.04-47.2 1.16-17.36 7.68-34.01 18.58-46.87 20.26-24.1 54.56-37.63 91.72-36.24 4.28.18 8.7.45 13.04.86 14.29 1.09 28.96 2.3 42.21-3.11 11.9-4.8 21.08-14.23 29.99-23.35 4.19-4.25 8.53-8.77 13.18-12.68a103.94 103.94 0 0138.23-19.94zm182.89 339.97c29.32-8.36 56.28-26.26 74.78-50.33 8.91-11.58 13.96-22.3 15.46-32.7 1.79-13.08-2.83-25.98-11.71-32.84-5.74-4.47-12.88-6.43-19.9-8.42-3.18-.85-6.5-1.78-9.63-2.89-26.1-9.58-41.51-34.79-49.77-54.27-4.92-11.52-8.64-23.73-12.37-35.58-3.73-11.86-7.51-24.28-12.47-35.9-16.8-39.14-46.7-69.48-82.1-83.23-38.55-14.96-84.1-8.32-113.07 16.5-4.64 3.9-8.88 8.4-13.18 12.68-8.91 9.12-18.2 18.58-30.1 23.38-13.28 5.31-28.03 4.24-42.35 3.03-4.3-.3-8.65-.7-12.93-.89-37.05-1.42-71.24 12.1-91.4 36.16-23.08 27.36-25.07 68.56-4.51 93.7 8.85 10.87 21 18.45 32.8 25.65 7.71 4.84 15.8 9.7 22.9 15.67 26.03 21.7 38.34 54.6 50.27 86.54 3.36 8.9 6.85 18.25 10.53 27.06 13.65 32.63 30.27 57.13 50.64 75.05 24.71 21.6 55.2 32.53 83.63 29.7 31.77-3.06 59.78-24.67 68.19-52.44.96-3.2 1.68-6.46 2.43-9.61 1.55-6.9 3.23-14.2 7.14-20.24 5.53-8.62 15.93-15 29.24-17.73 7.43-1.53 15.03-2.06 22.42-2.52a212 212 0 0012.4-.95 140.9 140.9 0 0022.66-4.58z" fill="url(#paint31_linear)"/></g><defs><linearGradient id="paint0_linear" x1="533.57" y1="581.11" x2="338.53" y2="-103" gradientUnits="userSpaceOnUse"><stop stop-color="#4AFEBF"/><stop offset="1" stop-color="#51EEDA"/></linearGradient><linearGradient id="paint1_linear" x1="532.18" y1="578.06" x2="342.16" y2="-88.42" gradientUnits="userSpaceOnUse"><stop stop-color="#4AFEBF"/><stop offset="1" stop-color="#51EEDA"/></linearGradient><linearGradient id="paint2_linear" x1="531.34" y1="575.7" x2="346.13" y2="-73.93" gradientUnits="userSpaceOnUse"><stop stop-color="#4AFEBF"/><stop offset="1" stop-color="#51EEDA"/></linearGradient><linearGradient id="paint3_linear" x1="529.68" y1="572.72" x2="349.5" y2="-59.27" gradientUnits="userSpaceOnUse"><stop stop-color="#4AFEBF"/><stop offset="1" stop-color="#51EEDA"/></linearGradient><linearGradient id="paint4_linear" x1="528.13" y1="570" x2="352.87" y2="-44.73" gradientUnits="userSpaceOnUse"><stop stop-color="#4AFEBF"/><stop offset="1" stop-color="#51EEDA"/></linearGradient><linearGradient id="paint5_linear" x1="526.44" y1="567.4" x2="356.11" y2="-30.04" gradientUnits="userSpaceOnUse"><stop stop-color="#4AFEBF"/><stop offset="1" stop-color="#51EEDA"/></linearGradient><linearGradient id="paint6_linear" x1="524.25" y1="564.9" x2="358.83" y2="-15.31" gradientUnits="userSpaceOnUse"><stop stop-color="#4AFEBF"/><stop offset="1" stop-color="#51EEDA"/></linearGradient><linearGradient id="paint7_linear" x1="522.38" y1="562.49" x2="361.85" y2="-.55" gradientUnits="userSpaceOnUse"><stop stop-color="#4AFEBF"/><stop offset="1" stop-color="#51EEDA"/></linearGradient><linearGradient id="paint8_linear" x1="520.27" y1="559.95" x2="364.6" y2="13.93" gradientUnits="userSpaceOnUse"><stop stop-color="#4AFEBF"/><stop offset="1" stop-color="#51EEDA"/></linearGradient><linearGradient id="paint9_linear" x1="518.21" y1="557.71" x2="367.34" y2="28.53" gradientUnits="userSpaceOnUse"><stop stop-color="#4AFEBF"/><stop offset="1" stop-color="#51EEDA"/></linearGradient><linearGradient id="paint10_linear" x1="517.07" y1="554.95" x2="371.04" y2="42.74" gradientUnits="userSpaceOnUse"><stop stop-color="#4AFEBF"/><stop offset="1" stop-color="#51EEDA"/></linearGradient><linearGradient id="paint11_linear" x1="514.97" y1="552.58" x2="370.96" y2="47.46" gradientUnits="userSpaceOnUse"><stop stop-color="#4AFEBF"/><stop offset="1" stop-color="#51EEDA"/></linearGradient><linearGradient id="paint12_linear" x1="512.18" y1="550.83" x2="369.53" y2="50.46" gradientUnits="userSpaceOnUse"><stop stop-color="#4AFEBF"/><stop offset="1" stop-color="#51EEDA"/></linearGradient><linearGradient id="paint13_linear" x1="509.45" y1="548.4" x2="368.32" y2="53.38" gradientUnits="userSpaceOnUse"><stop stop-color="#4AFEBF"/><stop offset="1" stop-color="#51EEDA"/></linearGradient><linearGradient id="paint14_linear" x1="508.67" y1="545.85" x2="368.92" y2="55.68" gradientUnits="userSpaceOnUse"><stop stop-color="#4AFEBF"/><stop offset="1" stop-color="#51EEDA"/></linearGradient><linearGradient id="paint15_linear" x1="508.95" y1="543.07" x2="370.6" y2="57.78" gradientUnits="userSpaceOnUse"><stop stop-color="#4AFEBF"/><stop offset="1" stop-color="#51EEDA"/></linearGradient><linearGradient id="paint16_linear" x1="509.48" y1="540.4" x2="372.44" y2="59.72" gradientUnits="userSpaceOnUse"><stop stop-color="#4AFEBF"/><stop offset="1" stop-color="#51EEDA"/></linearGradient><linearGradient id="paint17_linear" x1="509.64" y1="537.78" x2="373.95" y2="61.88" gradientUnits="userSpaceOnUse"><stop stop-color="#4AFEBF"/><stop offset="1" stop-color="#51EEDA"/></linearGradient><linearGradient id="paint18_linear" x1="509.85" y1="535.11" x2="375.5" y2="63.9" gradientUnits="userSpaceOnUse"><stop stop-color="#4AFEBF"/><stop offset="1" stop-color="#51EEDA"/></linearGradient><linearGradient id="paint19_linear" x1="510.38" y1="532.88" x2="377.23" y2="65.87" gradientUnits="userSpaceOnUse"><stop stop-color="#4AFEBF"/><stop offset="1" stop-color="#51EEDA"/></linearGradient><linearGradient id="paint20_linear" x1="510.81" y1="530.54" x2="378.91" y2="67.86" gradientUnits="userSpaceOnUse"><stop stop-color="#4AFEBF"/><stop offset="1" stop-color="#51EEDA"/></linearGradient><linearGradient id="paint21_linear" x1="511.06" y1="527.9" x2="380.48" y2="69.88" gradientUnits="userSpaceOnUse"><stop stop-color="#4AFEBF"/><stop offset="1" stop-color="#51EEDA"/></linearGradient><linearGradient id="paint22_linear" x1="511.18" y1="525.74" x2="381.81" y2="71.97" gradientUnits="userSpaceOnUse"><stop stop-color="#4AFEBF"/><stop offset="1" stop-color="#51EEDA"/></linearGradient><linearGradient id="paint23_linear" x1="511.64" y1="523.6" x2="383.42" y2="73.86" gradientUnits="userSpaceOnUse"><stop stop-color="#4AFEBF"/><stop offset="1" stop-color="#51EEDA"/></linearGradient><linearGradient id="paint24_linear" x1="513.39" y1="521.16" x2="386.29" y2="75.39" gradientUnits="userSpaceOnUse"><stop stop-color="#4AFEBF"/><stop offset="1" stop-color="#51EEDA"/></linearGradient><linearGradient id="paint25_linear" x1="515.28" y1="518.92" x2="389.29" y2="77" gradientUnits="userSpaceOnUse"><stop stop-color="#4AFEBF"/><stop offset="1" stop-color="#51EEDA"/></linearGradient><linearGradient id="paint26_linear" x1="517.12" y1="516.78" x2="392.17" y2="78.53" gradientUnits="userSpaceOnUse"><stop stop-color="#4AFEBF"/><stop offset="1" stop-color="#51EEDA"/></linearGradient><linearGradient id="paint27_linear" x1="519.18" y1="514.54" x2="395.26" y2="79.88" gradientUnits="userSpaceOnUse"><stop stop-color="#4AFEBF"/><stop offset="1" stop-color="#51EEDA"/></linearGradient><linearGradient id="paint28_linear" x1="521.04" y1="512.07" x2="398.25" y2="81.37" gradientUnits="userSpaceOnUse"><stop stop-color="#4AFEBF"/><stop offset="1" stop-color="#51EEDA"/></linearGradient><linearGradient id="paint29_linear" x1="523.33" y1="509.87" x2="401.53" y2="82.67" gradientUnits="userSpaceOnUse"><stop stop-color="#4AFEBF"/><stop offset="1" stop-color="#51EEDA"/></linearGradient><linearGradient id="paint30_linear" x1="525.5" y1="507.93" x2="404.61" y2="83.9" gradientUnits="userSpaceOnUse"><stop stop-color="#4AFEBF"/><stop offset="1" stop-color="#51EEDA"/></linearGradient><linearGradient id="paint31_linear" x1="527.7" y1="505.74" x2="407.81" y2="85.22" gradientUnits="userSpaceOnUse"><stop stop-color="#4AFEBF"/><stop offset="1" stop-color="#51EEDA"/></linearGradient><clipPath id="clip0"><path fill="#fff" transform="translate(0 .05)" d="M0 0h273v605H0z"/></clipPath></defs></svg>